<?xml version="1.0" encoding="utf-8"?>
<!-- Generator: Adobe Illustrator 25.1.0, SVG Export Plug-In . SVG Version: 6.00 Build 0)  -->
<svg version="1.1" id="Camada_1" xmlns="http://www.w3.org/2000/svg" xmlns:xlink="http://www.w3.org/1999/xlink" x="0px" y="0px"
	 viewBox="0 0 265.08 218.91" style="enable-background:new 0 0 265.08 218.91;" xml:space="preserve">
<style type="text/css">
	.st0{fill:#18071A;}
	.st1{fill:#1A091C;}
	.st2{fill:#19081B;}
	.st3{fill:#1E0E20;}
	.st4{fill:#1F0F21;}
	.st5{fill:#200F22;}
	.st6{fill:#1E0D20;}
	.st7{fill:#231224;}
	.st8{fill:#231225;}
	.st9{fill:#1F0E21;}
	.st10{fill:#19091B;}
	.st11{fill:#221224;}
	.st12{fill:#251527;}
	.st13{fill:#261628;}
	.st14{fill:#38293A;}
	.st15{fill:#312233;}
	.st16{fill:#2E1E30;}
	.st17{fill:#372739;}
	.st18{fill:#3E3040;}
	.st19{fill:#2D1D2F;}
	.st20{fill:#1E0D1F;}
	.st21{fill:#2A1A2C;}
	.st22{fill:#473948;}
	.st23{fill:#3C2E3E;}
	.st24{fill:#312133;}
	.st25{fill:#221124;}
	.st26{fill:#3B2C3C;}
	.st27{fill:#675C68;}
	.st28{fill:#3F3041;}
	.st29{fill:#655966;}
	.st30{fill:#342536;}
	.st31{fill:#5B4F5C;}
	.st32{fill:#302132;}
	.st33{fill:#7B707C;}
	.st34{fill:#655866;}
	.st35{fill:#352737;}
	.st36{fill:#2D1E2F;}
	.st37{fill:#4B3D4D;}
	.st38{fill:#888089;}
	.st39{fill:#817882;}
	.st40{fill:#3C2D3E;}
	.st41{fill:#4B3D4C;}
	.st42{fill:#271728;}
	.st43{fill:#352537;}
	.st44{fill:#443545;}
	.st45{fill:#352637;}
	.st46{fill:#1D0C1F;}
	.st47{fill:#211123;}
	.st48{fill:#463748;}
	.st49{fill:#1C0B1E;}
	.st50{fill:#231324;}
	.st51{fill:#1B0B1D;}
	.st52{fill:#201022;}
	.st53{fill:#2C1C2E;}
	.st54{fill:#291A2B;}
	.st55{fill:#241426;}
	.st56{fill:#2B1A2D;}
	.st57{fill:#1D0D1F;}
	.st58{fill:#28182A;}
	.st59{fill:#443647;}
	.st60{fill:#635663;}
	.st61{fill:#200F21;}
	.st62{fill:#504351;}
	.st63{fill:#4D3F4E;}
	.st64{fill:#211022;}
	.st65{fill:#251627;}
	.st66{fill:#4B3D4B;}
	.st67{fill:#231325;}
	.st68{fill:#1F0E20;}
	.st69{fill:#362738;}
	.st70{fill:#362637;}
	.st71{fill:#231425;}
	.st72{fill:#857B86;}
	.st73{fill:#392B3B;}
	.st74{fill:#2B1B2D;}
	.st75{fill:#271729;}
	.st76{fill:#301F31;}
	.st77{fill:#2E1F30;}
	.st78{fill:#261728;}
	.st79{fill:#544755;}
	.st80{fill:#271829;}
	.st81{fill:#332435;}
	.st82{fill:#3A2B3B;}
	.st83{fill:#3A2B3C;}
	.st84{fill:#2A1B2C;}
	.st85{fill:#463948;}
	.st86{fill:#3D2F3F;}
	.st87{fill:#3E2F3F;}
	.st88{fill:#372839;}
	.st89{fill:#261627;}
	.st90{fill:#605461;}
	.st91{fill:#2F2031;}
	.st92{fill:#6A606B;}
	.st93{fill:#211223;}
	.st94{fill:#352636;}
	.st95{fill:#392A3A;}
	.st96{fill:#201122;}
	.st97{fill:#29192B;}
	.st98{fill:#463848;}
	.st99{fill:#271929;}
	.st100{fill:#2F1F31;}
	.st101{fill:#493C4B;}
	.st102{fill:#302032;}
	.st103{fill:#332235;}
	.st104{fill:#3F3141;}
	.st105{fill:#5E515F;}
	.st106{fill:#443646;}
	.st107{fill:#857E86;}
	.st108{fill:#2A1A2B;}
	.st109{fill:#2C1D2E;}
	.st110{fill:#251526;}
	.st111{fill:#1C0C1E;}
	.st112{fill:#221324;}
	.st113{fill:#312234;}
	.st114{fill:#3B2D3D;}
	.st115{fill:#352538;}
	.st116{fill:#403242;}
	.st117{fill:#403041;}
	.st118{fill:#221223;}
	.st119{fill:#392A3B;}
	.st120{fill:#605562;}
	.st121{fill:#423443;}
	.st122{fill:#2A1C2C;}
	.st123{fill:#D2CFD2;}
	.st124{fill:#3B2C3D;}
	.st125{fill:#28192A;}
	.st126{fill:#6C606D;}
	.st127{fill:#C0BBC0;}
	.st128{fill:#3E303F;}
	.st129{fill:#4B3E4D;}
	.st130{fill:#5A4D5B;}
	.st131{fill:#453746;}
	.st132{fill:#2B1C2D;}
	.st133{fill:#5A4E5B;}
	.st134{fill:#413443;}
	.st135{fill:#3B2D3C;}
	.st136{fill:#483B4A;}
	.st137{fill:#382A3A;}
</style>
<path class="st0" d="M54.18,151.51c2.72,1.65,3.87,4.43,4.93,7.16c1.48,3.81,3.17,7.5,5.05,11.11c0.45,0.86,1.25,1.54,1.78,2.18
	c7.27,1.9,13.99-0.19,20.87-1.65c8.93-1.9,17.59-1.63,25.07,5.07c6.05,5.42,13.62,6.02,21.33,5.2c1.62-0.17,3.04-1.26,4.2-2.51
	c6.38-6.89,14.89-10.23,23.19-13.91c1.08-0.48,2.22-0.59,3.4-0.59c3.24,0,6.68-0.77,9.67,0.07c2.98,0.84,6.07,1.39,8.98,2.44
	c5.06,1.83,10.4,1.28,15.6,1.95c1.64,0.21,3.46-0.89,5.19-1.42c8.31-2.54,15.53-7.06,22.49-12.13c2.48-1.81,4.77-3.8,7.91-4.78
	c4.84-1.5,9.11-0.02,13.34,1.63c2.08,0.81,3.94,1.26,6.18,1.13c2.96-0.17,5.96,0.2,8.94,0.33c1.02,0.04,2,0.13,2.79,1.4
	c-1.83,3.31-5.53,4.24-8.59,5.77c-4.4,2.2-9.19,3.62-13.65,5.72c-5.68,2.68-10.36,6.34-11.75,13.09c-0.66,3.18-1.82,6.32-3.16,9.28
	c-3.32,7.32-8.81,10.75-17.51,9.92c-6.71-0.64-12.73-3.35-18.88-5.65c-8.41-3.14-16.44-2.46-24.3,1.69
	c-3.07,1.63-6.01,3.45-8.78,5.54c-0.79,0.6-1.9,1.19-2.15,2c-1.25,4.01-4.76,6.27-7.02,9.48c-4.68,6.65-11.37,8.58-19.09,7.69
	c-10.05-1.17-18.49-5.73-25.86-12.48c-0.12-0.11-0.24-0.23-0.36-0.35c-3.23-3.12-6.71-6.63-10.92-7.48
	c-4.86-0.98-10.29-0.46-15.04,1.53c-7.78,3.26-13.66,1.67-19.22-4.76C54.3,190,51,184.16,47.12,178.67
	c-0.95-1.34-1.66-2.94-2.85-4.01c-2.71-2.43-5.86-3.68-9.57-2.31c-6.35,2.34-12.45,0.51-18.39-1.45c-4.36-1.43-7.63-4.76-9.82-8.71
	c-4.04-7.3-6-15.25-6.27-23.6c-0.04-1.16,0.11-2.34-0.03-3.48c-0.64-5.1,0.5-9.86,2.75-14.39c1.84-3.7,3.78-7.34,5.73-10.98
	c1.46-2.72,3.57-4.91,6.57-5.71c1.82-0.49,2.93-1.88,2.63-3.03c-0.8-3.02,0.57-5.89,0.07-8.81c-0.67-3.92-2.29-7.54-3.84-11.17
	c-0.56-0.57-0.38-1.42-0.78-2.06c-0.74-4.45-0.9-8.96-2.37-13.34c-0.91-2.71-1.69-5.88,0.16-8.69c0.62-0.94,0.52-1.7,0.26-2.68
	c-0.28-1.09,0.73-1.25,1.52-1.46c1.26-0.35,0.63-1.1,0.37-1.77c0.32-2.87,1.53-5.4,2.9-7.88c0.04-1.11,1.94-0.7,1.69-2.06
	c3.22-4.73,7.8-7.02,13.71-7.84c0.74-3.25,4.38-4.12,6.82-6.27c2.57-2.26,5.05-4.63,7.56-6.95c0.32,0.15,0.57,0.37,0.76,0.66
	c0.28,0.43,0.52,0.88,0.78,1.32c0.2,0.28,0.4,0.56,0.61,0.83c0.39,0.38,0.82,0.71,1.25,1.07c0.3,0.3,0.53,0.63,0.72,1.01
	c0.2,2.93-2.11,3.68-4.08,4.71c-0.48,0.06-0.96,0.13-1.31,0.51c0.25-0.03,0.49-0.21,0.78-0.24c0.55,0.27,1.04,0.57,0.56,1.28
	c-1.74,1.99-3.01,4.58-6.24,4.63c-1.06,0.02-0.38,1.35-1.03,1.76c-2.33,1.48-4.56,3.21-7.59,2.71l0.03-0.04
	c-0.2,1.67-1.9,1.6-2.79,2.44c-1.94,1.83-3.66,4-4.3,6.54c-1.12,4.47-2.9,8.72-4.22,13.1c-1.76,5.83,0.04,10.59,2.22,15.53
	c1.45,3.29,3.83,6.19,4.05,9.98c0.46,0.75,0.54,1.48-0.07,2.18c-0.18,0.28-1.12-0.36-0.76,0.62c-0.24,0.7-0.71,1.33-0.49,2.13
	c0.25,0.53,0.48,1.06,0.56,1.6c0.01-0.04-0.44,0.07-0.44,0.07s0.43,0.16,0.43,0.14c0.28-0.18,0.57-0.24,0.9-0.17
	c0.35,0.06,0.58,0.26,0.69,0.59c0.14,0.3,0.18,0.61,0.13,0.93c0,0.67,0.03,1.34,0.11,2c0.59,3.9-0.91,7.4-2.14,10.94
	c-0.26,0.37-0.46,0.85-0.85,1.03c-1.08,0.51-0.53,0.74,0.11,1.01c-0.79,1.81-1.43,3.7-2.39,5.41c-2.66,4.75-3.23,10.07-3.62,15.24
	c-0.22,2.87,0.62,6.18,2.19,8.93c1.22,2.14,3.18,3.12,5.75,3.18c6.06,0.14,12.06,0.76,18.02,2.01c4.05,0.85,7.45,2.47,9.9,5.86
	L54.18,151.51z"/>
<path class="st0" d="M113.69,40.96c7.34-5.16,15.66-7.3,24.44-6.82c5.36,0.29,10.41-0.05,15.37-2.03c3.5-0.72,7.03-0.26,10.85-0.41
	c0.27,1.88,1.37,3.57,0.26,5.49c-2.25-0.31-4.32-0.06-6.39,1.13c-1.64,0.94-3.59,1.33-5.41,1.96c-0.84,0.87-2.47-0.72-3.05,0.97
	c-4.31,0.69-8.4-1.3-12.73-0.95c-6.71,0.54-12.79,2.54-18.03,6.79c-1.76,1.43-3.68,2.1-5.89,2.15c-4.15,0.83-8.28,0.03-12.43-0.09
	c-1.79-0.1-3.55-0.56-5.33,0.44c-1.13,0.64-2.54,0.42-3.88,0.31c-3.91-0.31-7.36,0.85-10.24,3.57c-0.96,0.91-1.86,1.89-2.89,2.71
	c-1.87,1.49-3.1,3.2-3.67,5.66c-0.74,3.19-2.37,6.14-3.11,9.39c-0.41,1.8-1.67,3.21-2.98,4.5c-1.18,1.16-2.36,2.33-3.58,3.45
	c-6.12,5.63-7.08,12.84-6.62,20.63c0.22,3.68,1.09,7.05,2.86,10.23c0.9,1.62,2.08,3.23,3.91,3.6c3.44,0.68,6.16,2.99,9.77,3.51
	c3.52,0.5,6.98,1.89,10.55,2.58c3.72,0.72,7.41,1.62,11.09,2.5c2.8,0.67,5.08,2.16,7.21,4.15c2.61,2.44,5.22,4.9,8.89,5.96
	c3.25,0.95,5.79,0.28,8.14-1.98c6.82-6.57,10.68-9.11,18.68-10.12c6.02-0.76,12.2,0.18,17.76,2.8c3.51,1.66,7.22,2.25,10.85,3.24
	c1.99,0.54,4.23-0.2,5.98-1.62c1.92-1.57,3.74-3.27,5.71-4.77c5.51-4.23,11.48-7.09,18.71-5.93c2.32,1.25,4.69,0.45,7.04,0.15
	c6.55-2.05,6.55-2.05,10.02-5.86c-0.07-1.96-1.67-3.8-0.41-6.07c1.61-2.9,3.11-5.89,5.84-7.81c2.26-1.59,4.84-2.96,7.62-3.32
	c2.47-0.32,4.68-1.44,7.06-1.81c4.08-0.63,5.61-3.4,6.75-6.82c1.2-3.61,1.91-7.17,0.43-10.88c-0.14-0.35,0.27-0.91,0.43-1.38
	c-0.91-2.37-1.72-4.75-1.41-7.35c0-1.09,0.67-1.75,1.5-2.28c0.76-0.44,1.58-0.8,2.31-1.3c0.55-0.35,1.12-0.61,1.78-0.26l0.03-0.05
	c0.38,1.59,1.54,2.45,2.91,3.1c2.95,3.69,3.81,8.25,4.99,12.61c0.86,3.19,0.13,6.6-0.9,9.62c-0.76,2.23-1.22,4.39-1.34,6.68
	c-0.06,1.05-1.35,1.79-0.76,3.01c-2.35,5.91-7.22,9.91-12.74,11.2c-6.24,1.47-10.12,5.74-12.09,11.71c-0.5,1.51-0.22,3.32-2.06,4.13
	c0,0-0.05-0.08-0.05-0.07c0,0.01,0.05,0,0.05,0c0,0,0.05,0.03,0.05,0.03c0.02,0.32-0.05,0.61-0.22,0.88
	c-0.53,0.5-0.29,1.39-0.94,1.83c-1.44,0.59-1.29,2.7-2.96,3.07c-0.54-0.19-0.16-1.14-0.84-1.07c-0.15,0.01-0.38,0.79,0.01,1.21
	c-0.06,0.33-0.19,0.63-0.37,0.91c-2.68,0.55-4.79,3.3-7.93,2.09c-1.43,0.31-2.86-0.43-4.37,0.28c-2.71,1.27-5.63,1.12-8.54,0.62
	c-2.54-0.43-4.8,0.04-6.85,1.87c-2.46,2.2-4.91,4.38-6.94,6.99c-2.14,2.75-4.91,4.21-8.51,4.23c-3.75,0.02-7.64,0.44-10.99-1.37
	c-4.51-2.45-9.68-3.54-13.79-6.76c-5.18-4.08-11.37-3.47-16.3,0.99c-5.74,5.2-12.29,9.01-19.76,11.13c-1.5,0.43-2.65,1.33-3.88,2.12
	c-2.98,1.91-6.1,2.33-9.46,1.21c-1.87-0.62-3.77-1.04-5.73-1.36c-5.53-0.91-9.9-4.05-13.94-7.7c-0.31-0.28-0.3-0.9-0.44-1.36
	c0.06-1.21-1.22-1.33-1.7-2.1c-0.5-1.28-0.99-2.56-1.49-3.85c0.73-1.5-0.95-0.23-0.98-0.86c-3.67-2.17-7.24-4.53-11.63-5.04
	c-0.45-0.05-1.02-0.32-1.28-0.68c-2.2-3.06-5.69-4.35-8.64-6.36c-6-4.09-8.68-9.67-9.34-16.98c-0.44-4.84,0.23-9.49,0.69-14.12
	c0.51-5.26,3.08-10.27,7.06-13.77c5.29-4.64,7.5-10.63,9.45-16.96c0.62-2.01,0.84-4.18,2.23-5.9c0.68-0.62,1.31-1.28,1.73-2.12
	c5.42-6.73,11.83-11.59,21.06-11.06c0.43,0.54,0.36,1.23,0.52,1.84c-0.11-0.65-0.13-1.29,0.28-1.86c3.26-1.24,6.69-0.59,9.74,0.14
	c3.75,0.9,7.46,0.45,11.14,0.97C112.29,41.61,113.54,42.32,113.69,40.96z"/>
<path class="st0" d="M82.8,94.95c-1.49-6.06,0.34-11.56,2.71-17.04c1.82-4.21,5.27-7.36,7.05-11.66c1.18-2.87,3.95-2.96,7.47-2.56
	c3.2,0.37,5.55,1.72,7.55,3.97c1.84,2.08,4.32,2.07,6.65,2.5c2.23-1.47,3.07-4.1,5.35-5.22c1.06-0.48,1.95,0.08,2.87,0.46
	c0.33,0.26,0.55,0.59,0.65,1c-0.05,0.86-0.49,1.51-1.14,2.05c-0.63,0.44-1.33,0.78-1.99,1.17c-0.64,0.42-1.15,0.94-1.43,1.67
	c-0.8,1.67,1.14,3.16,0.3,4.82c-0.4,1-1.2,1.73-2.2,1.76c-5.89,0.19-11.6-0.12-15.44-5.67c-0.71-1.03-1.07-2.46-2.52-3
	c-2.41,0.7-3.27,2.67-3.55,4.84c-0.65,5.14,0.44,9.49,4.47,13.41c3.82,3.72,8.34,4.97,13.12,6.08c2.54,0.59,5.03-0.22,7.08-1.47
	c2.49-1.52,4.87-1.59,6.92,0.01c5.67,4.42,11.34,4.15,17.57,1.21c4.74-2.24,10.13-2.64,14.99-4.82c3.11-1.39,6.51,0.08,9.73,0.69
	c1.61,0.31,3.14,1.02,4.74,1.37c4.76,1.03,9.26-1.52,10.87-6.07c0.44-1.24,0.76-2.54,1.37-3.68c0.53-1,1.4-1.82,2.12-2.72
	c4.16-1.07,8.25-2.12,12.35-3.17c0.36,0.27,0.63,0.61,0.8,1.03c0.21,0.64,0.29,1.29,0.3,1.96c0.02,0.44,0,0.88-0.05,1.31
	c-0.09,0.66-0.37,1.24-0.72,1.8c-0.62,0.65-1.68,0.26-2.29,0.95c-0.4,0.35-0.8,0.7-1.2,1.05c-0.8,1.58,0.25,3.45-0.77,5l0.02-0.02
	c-0.75,1.38-1.29,2.86-1.87,4.31c-0.48,0.86-0.99,1.7-1.44,2.57c-3.65,7.05-9.73,8.99-17.09,7.93c-3.01-0.43-6.15-0.46-8.78-2.55
	c-1.95-1.54-4.55,0.56-6.49-1.15c-3.34,3.32-6.03,6.71-10.07,8.53c-1.53,0.69-2.98,1.14-4.7,1.26c-5.46,0.38-10.25-0.8-14.83-4.04
	c-4.63-3.28-10-4.06-15.53-1.99l-0.17-0.09l0.12,0.13c-3.34,1.96-6.53,4.27-10.06,5.81c-5.68,2.47-11.13,1.35-16.24-2.06
	c-3.87-2.59-6.86-5.59-6.51-10.68c0.52-0.74,1.58-0.14,2.17-0.91C84.23,95.7,83.51,95.43,82.8,94.95z"/>
<path class="st1" d="M46.01,21.21c-0.02-0.4-0.05-0.8-0.07-1.2c0.97-1.41,2.43-2.15,3.91-2.87c1.03-0.28,1.9-0.74,2.15-1.9
	l-0.01-0.01c0.54-0.57,1.48-0.39,1.97-1.04c1.14-2.05,3.43-1.76,5.2-2.38c5.55-1.94,11.17-3.66,16.98-4.78
	c4.3-0.83,8.49-0.61,12.74-0.23c5.07,0.46,10.15,0.9,15.2,1.55c8.3,1.07,16.06-0.65,23.54-4.11c0.51-0.39,1.08-0.47,1.69-0.29
	c0.53,0.43,1.05,0.91,1.82,0.77c-0.01,0,0.36-0.17,0.36-0.17s-0.41,0.01-0.45,0.02c-0.65,0.24-1.07-0.12-1.51-0.47
	c-0.29-0.37-0.25-0.7,0.1-1c1.41-1.13,3.1-1.57,4.81-1.94c2.81,0.88,5.61-1.14,8.43-0.04c0.63,0.75,0.7,1.59,0.47,2.5
	c-0.46,0.91-1.33,1.54-1.68,2.53c-0.95,0.06-1.89,0.12-2.84,0.18c-0.91,0.77-2.24,0.06-3.14,0.88c-8.42,6.98-18.53,8.04-28.87,8.02
	c-3.73-0.01-7.64,0.57-11.11-1.55C87.88,14,80,12.13,72.24,13.43c-6.2,1.04-11.63,4.35-16.39,8.55c-0.86,0.76-1.67,1.57-2.51,2.36
	c-1.47,0.61-2.93,0.95-4.34-0.14l0,0c-0.27-0.24-0.51-0.52-0.71-0.83c-0.16-0.33-0.32-0.66-0.47-0.99
	C47.38,21.75,46.56,21.68,46.01,21.21z"/>
<path class="st2" d="M200.5,76.01c-0.02-0.38-0.03-0.75-0.05-1.13c0.86-2.04,3.19-2.74,4.21-4.63l0-0.04
	c0.39-0.27,1.08-0.48,1.14-0.81c0.75-3.98,3.52-7.17,4.23-10.18c-0.03-3.34-2.64-3.55-3.62-5.18l0.08,0.09
	c-3.02-1.23-6.3-1.51-9.42-2.45c-4.48-1.34-8.27-3.54-11.99-6.24c-3.98-2.88-8.53-4.75-13.25-6.16c-1.41-0.42-2.82-0.86-4.23-1.29
	c-1.25-1.37,0.53-1.97,0.73-2.96c0.11-0.54,0.13-1.08,0.08-1.63c-0.07-0.74-0.34-1.49,0.2-2.17c0.98-0.54,1.98-0.32,2.98-0.07
	c0.88,1.11,2.2,0.5,3.27,0.85c7.07,1.12,12.79,4.67,18.02,9.44c3.02,2.76,6.65,4.62,11.12,4.87c4.32,0.24,8.36,2.23,11.32,5.4
	c4.95,5.31,4.34,13.7-1,19.22c-1.09,0.29-1.48,1.2-1.83,2.13c-0.65,2.8-3.87,2.87-5.24,4.9c-0.46,0.55-1.22,0.49-1.77,0.84
	c-0.44,0.38-0.88,0.76-1.32,1.14c-0.6,0.97-2.08,0.01-2.59,1.18l0.05-0.02c-0.44,0.26-0.81,0.2-1.14-0.19c0-0.64,0-1.29,0-1.93
	c0.44-0.38,0.78-0.83,0.79-1.45C201.14,76.96,200.92,76.44,200.5,76.01z"/>
<path class="st3" d="M136.71,67.32c1.69-1.95,3.03-4.14,5.5-5.43c4.54-2.37,8.93-3.07,13.43-0.1c1.1,0.72,2.34,1.28,3.3,2.16
	c2.39,2.21,5.4,2.99,8.37,3.92c1.94-0.51,3.2-0.31,2.31,2.18c-4.02,2.84-8.44,1.9-11.87-0.26c-4.84-3.05-9.14-3.82-13.98-0.66
	c-0.23,0.15-0.64,0.02-0.97,0.02l0.04-0.02c-1.07,1.61-2.33,3.02-4.13,3.85c-0.76-0.71-1.98-0.89-2.34-2.05
	C136.4,69.73,135.76,68.45,136.71,67.32z"/>
<path class="st4" d="M142.69,4.27c0-0.99-0.01-1.97-0.01-2.96c-0.34-0.19-0.46-0.37-0.34-0.54c0.12-0.17,0.23-0.26,0.35-0.26
	c0.34-0.03,0.67-0.06,1.01-0.08c1.58,0.92,3.48-0.16,5.06,0.8l-0.03-0.04c0.95,1.58,2.84-0.13,3.89,1.11
	c1.06-0.12,1.99,0.35,2.73,0.94c3.91,3.14,8.46,5.04,13.04,6.9c0.6-0.3,1.23-0.39,1.89-0.31c0.42,0.19,0.67,0.5,0.75,0.96
	c-0.01,0.9-0.38,1.66-0.89,2.37c-0.45,0.44-1.08,0.64-1.51,1.12l0.03-0.02c-1.38,0.67-2.76,0.67-4.15,0.01
	c-3.62,0.27-5.67-2.93-8.74-3.97c-2.13-0.72-4.13-1.98-6-3.28c-1.34-0.92-2.93,0.29-4.1-0.85C145.02,5.01,142.39,6.91,142.69,4.27z"
	/>
<path class="st5" d="M200.46,25.33c-3.46-2.67-6.96-5.24-11.32-6.31c-2.55-0.63-5.11-1.24-7.62-2.01c-1.53-0.47-3.3-0.71-4.06-2.5
	c-0.26-0.61-0.47-1.23-0.35-1.91c1.03-1.68,2.37,0.62,3.46-0.26c2.13-0.87,4.33-0.32,6.32,0.2c6.16,1.61,12.25,3.49,16.57,8.68
	c-0.15,0.37-0.35,0.7-0.6,1c-0.35,0.45-0.73,0.89-1.11,1.31C201.21,24.06,200.96,24.79,200.46,25.33z"/>
<path class="st6" d="M202.56,21.21c0.3,0.01,0.59,0.01,0.89,0.02c6.34,4.53,14.19,5.64,20.95,9.23c0.76,0.83,0.91,1.74,0.36,2.74
	c-0.52,0.59-1.18,0.88-1.94,0.96c-1.16,0.01-2.31,0.96-3.49,0.06c-6.91-1.64-13.45-4.07-18.88-8.87c-0.23-0.57-0.46-1.14-0.69-1.71
	c0.46-0.53,1.12-0.38,1.73-0.42C202.1,22.67,201.93,21.72,202.56,21.21z"/>
<path class="st7" d="M244.36,61.04c-0.66,0.34-1.33,0.67-1.99,1.01c-1.41-0.96-1.18-2.7-1.88-3.99c-0.23-0.2-0.32-0.46-0.27-0.76
	c-0.14-0.36-0.27-0.73-0.37-1.08c0.15-0.34,0.04-0.57-0.36-0.65c-0.37-0.07-0.64-0.26-0.84-0.56c-1.47-3.61-2.95-7.22-4.42-10.84
	c0.8-1.88,2.15-2.63,4.17-2.06c1.59,3.88,3.74,7.46,5.93,11.02c0.65,0.49,0.4,1.38,0.87,1.94c0.75,1.29,1.51,2.59,2.26,3.88
	c-0.61,0.13-1.04,0.44-1.12,1.11C245.8,60.64,244.87,60.42,244.36,61.04z"/>
<path class="st8" d="M224.42,33.15c0-0.9-0.01-1.8-0.01-2.7c4.97,1.64,8.79,4.82,11.96,8.88c1.14,3.48-0.6,3.73-3.28,2.93
	c-0.89-0.71-1.78-1.42-2.67-2.13c-0.82-0.49,0.04-2.83-2.08-1.88c-1.97-1.05-3.93-2.09-5.9-3.14c-0.26-0.19-0.37-0.4-0.35-0.65
	c0.02-0.26,0.07-0.39,0.14-0.39C222.85,33.53,223.84,33.84,224.42,33.15z"/>
<path class="st9" d="M136.71,71.01c1.02,0.3,1.68,0.96,1.99,1.97c-3.64,0.72-6.75-0.3-9.46-2.8c-0.83-0.77-1.83-1.36-2.75-2.03
	c0.06-0.3,0.22-0.55,0.45-0.73c0.17-0.19,0.26-0.41,0.22-0.67c-0.22-0.18-0.45-0.27-0.74-0.23c-0.51,0.1-0.9,0.39-1.34,0.63
	c-0.36,0.19-0.73,0.24-1.12,0.19c-0.6-0.25-0.94-0.74-1.21-1.29l-0.01-0.01c-0.83-0.95-0.73-1.9,0.01-2.84
	c0.67-0.34,1.33-0.38,2.01-0.03c0.92,0.74,2.2,0.08,3.12,0.82c2.41,1.13,4.77,2.35,6.83,4.08C136.19,68.5,136.18,69.94,136.71,71.01
	z"/>
<path class="st10" d="M168.61,31.24c0.33,0.63,0.67,1.27,1,1.9c-0.73,0.66-0.77,1.32-0.02,1.99c-0.23,0.66,0.66,2.26-1.38,1.4
	c-0.62-0.26-0.53,0.9-0.61,1.48c-1-0.27-1.99-0.53-2.99-0.8c0.26-1.53-0.8-2.43-1.84-3.35c0.56-0.49,1-0.87,1.73-1.51
	c-2.14-0.17-3.91-0.19-5.83,0.18c-1.63,0.32-3.44-0.24-5.16-0.41c1.16-1.32,2.76-0.95,4.19-0.97
	C161.33,31.09,164.97,31.19,168.61,31.24z"/>
<path class="st11" d="M122.75,66.04c0.67,0.33,1.33,0.66,2,0.99c0.47,0.41,0.51,0.85,0.12,1.34c-1.44,3.03-3.38,5.67-6.05,7.74
	c-1.27-1.87-3.15-3.64-1.04-6.09c0.4-0.36,0.88-0.48,1.39-0.46c0.35-0.02,0.64,0.12,0.84,0.4c0.57,0.16,0.15-0.37,0.32-0.48
	c0.25-0.71,0.89-1.02,1.43-1.45C122.09,67.37,122.42,66.71,122.75,66.04z"/>
<path class="st5" d="M49,24.2c1.45,0.05,2.9,0.09,4.34,0.14c-1.64,3.14-4.1,5.4-7.34,6.81c-0.07-0.59-0.39-0.92-0.99-0.97
	c-0.26-0.22-0.34-0.44-0.26-0.66c0.08-0.22,0.17-0.33,0.25-0.33c2.01-0.41,2.82-2.5,4.67-3.28C49.45,25.33,49.23,24.77,49,24.2z"/>
<path class="st12" d="M177.58,12.23c-0.04,0.76-0.08,1.53-0.12,2.29c-0.84-0.37-1.44-1.31-2.53-1.11c-0.79,0.24-1.59,0.36-2.41,0.31
	c-0.4,0-0.77-0.12-1.12-0.33c-0.37-0.68-0.57-1.42-0.81-2.15c0-0.31,0-0.61-0.01-0.92c1.38-0.91,2.81-0.64,4.25-0.19
	c1.31-0.49,1.74,1,2.73,1.22c0.35,0.19,0.47,0.38,0.36,0.57C177.81,12.13,177.69,12.23,177.58,12.23z"/>
<path class="st13" d="M142.7,0.51c0,0.27,0,0.54-0.02,0.8c-1.76,0.9-3.57-0.12-5.37-0.01c0.2,1.5-0.3,2.67-1.11,3.75
	c-0.86-0.69-2.03-1.27-1.05-2.67c0.63-0.9-0.14-0.99-0.68-1.22C137.11-0.26,139.92,0.28,142.7,0.51z"/>
<path class="st14" d="M240.49,58.07c1.23,1.05,1.83,2.39,1.88,3.99c-0.76,2.82,1.33,5.32,0.91,8.1c-1.03-0.48-1.43-1.61-1.44-2.43
	C241.81,64.44,240.22,61.38,240.49,58.07z"/>
<path class="st15" d="M100.69,49.17c0.63-0.11,1.26-0.21,1.89-0.31c-0.17-0.58-0.29-0.99-0.42-1.41c1.8-0.84,1.49,1.42,2.55,1.82
	c2.8,0,5.6,0,8.41,0C108.97,50.48,104.82,50.65,100.69,49.17z"/>
<path class="st16" d="M212.3,129.85c0.82-0.07,2.16,0.14,2.37-0.25c1.32-2.49,3.57-1.7,5.56-1.84
	C217.64,130.35,215.92,130.81,212.3,129.85z"/>
<path class="st17" d="M169.62,70.06c0.27-1.83-0.94-2.09-2.31-2.18c1.11-0.96,2.81-1.2,3.39-2.8c0.42-0.56,0.63-1.51,1.68-0.91
	c0.03,0.61,0.06,1.22,0.09,1.82c-0.48,0.63-0.32,1.5-0.8,2.13C171.23,69.03,170.87,70.01,169.62,70.06z"/>
<path class="st18" d="M205.53,114.12c-0.1,0.45-0.2,0.9-0.32,1.4c-1.4,0.79-2.75-1.58-4.36,0.1c-0.72,0.74-1.88-0.59-2.37-1.65
	C200.84,114.02,203.19,114.07,205.53,114.12z"/>
<path class="st19" d="M233.08,42.26c0.91-0.09,1.83-0.17,2.64-0.25c1-0.8,0.52-1.8,0.64-2.68c1.27,0.5,1.46,1.78,2.03,2.79
	c-1.39,0.69-2.78,1.37-4.17,2.06C233.46,43.77,233.38,42.94,233.08,42.26z"/>
<path class="st20" d="M24.09,92.93c-0.48-0.04-0.95-0.08-1.5-0.13c-0.35-2.04,2.35-1.35,2.5-2.86c1.27-0.25,0.92-1.31,1.05-2.13
	c1.04,0.82,0.82,2.01,0.9,3.11c-0.36,0.42-0.51,0.97-0.87,1.39c-0.46,0.33-0.96,0.53-1.52,0.6C24.45,92.92,24.27,92.92,24.09,92.93z
	"/>
<path class="st21" d="M24.3,110.9c-1.29-0.08-1.7,1.4-3.13,1.76c0.03-2.8,2.49-2.77,3.87-3.8C25.09,109.65,25.19,110.46,24.3,110.9z
	"/>
<path class="st13" d="M142.69,4.27c0.2,0.93,0.88,1.07,1.68,1c0.7-0.06,1.1,0.29,1.3,0.92c-1.33-0.01-2.66-0.03-4-0.04
	c-0.35-0.69-0.69-1.39-1.03-2.06C141.53,3,142,4.46,142.69,4.27z"/>
<path class="st22" d="M17.84,41.07c0.85-0.29,1.7-0.58,2.63-0.9c-0.93,1.49-0.93,1.49-4.32,2.95
	C15.95,41.82,16.44,41.07,17.84,41.07z"/>
<path class="st23" d="M250.39,62.02c-0.92-0.04-1.88,0.26-2.74-0.39c-0.56-0.85-0.23-1.79-0.17-2.71
	C248.57,59.84,249.92,60.52,250.39,62.02z"/>
<path class="st24" d="M52,15.25c-0.03,0.9,1.4,1.4,0.68,2.54c-1.2,1.1-1.82-0.69-2.83-0.64C50.28,16.19,50.83,15.37,52,15.25z"/>
<path class="st25" d="M122.76,63.19c0,0.95-0.01,1.89-0.01,2.84c-1.3,0.32-2.08-0.84-3.18-1.09
	C120.34,63.83,121.57,63.55,122.76,63.19z"/>
<path class="st4" d="M136.71,71.01c-1.34-0.53-1.24-2.03-1.99-2.95c0.66-0.25,1.33-0.49,1.99-0.74
	C136.54,68.55,138.14,69.79,136.71,71.01z"/>
<path class="st26" d="M174.83,10.14c-1.42,0.06-2.83,0.13-4.25,0.19c-0.73-0.06-1.46-0.12-2.2-0.18
	C170.53,8.74,172.68,9.12,174.83,10.14z"/>
<path class="st16" d="M220.6,126.85c-0.48-0.04-0.97-0.08-2.06-0.17c1.04-1.21,2.96-1.76,1.97-3.71c1.37,1.24,0.71,2.56,0.92,3.74
	l-0.41,0.14L220.6,126.85z"/>
<path class="st27" d="M149.77,41.26c0.04-0.95-1.42-1.34-0.7-2.91c1.22,0.66,2.1,2.32,3.76,1.94
	C152.07,41.47,150.87,41.21,149.77,41.26z"/>
<path class="st19" d="M196.53,87.98c0.27-1.66-0.8-3.54,0.77-5C197.23,84.68,198.09,86.52,196.53,87.98z"/>
<path class="st28" d="M252.4,93.94c-0.48-0.04-0.96-0.07-1.84-0.13c0.97-1.07,1.78-1.97,2.6-2.88
	C253.14,91.99,253.64,93.18,252.4,93.94z"/>
<path class="st0" d="M124.86,68.37c-0.04-0.45-0.08-0.89-0.12-1.34v0c0.78-0.99,1.54-2.03,2.99-1l0,0c0.59,0.66,0.59,1.31-0.03,1.95
	c-0.41,0.06-0.81,0.11-1.22,0.17C125.95,68.22,125.41,68.29,124.86,68.37z"/>
<path class="st29" d="M81.1,138.64c0.64,0.06,1.38-0.05,1.9,0.23c1.27,0.68,1.05,1.38-0.2,1.88C81.96,140.26,81,139.88,81.1,138.64z
	"/>
<path class="st13" d="M152.62,2.3c-1.23-0.12-2.41,0.01-3.46,0.65c-0.72-0.5-0.38-1.17-0.42-1.77
	C150.04,1.51,151.66,0.75,152.62,2.3z"/>
<path class="st30" d="M113.69,40.96c0.02,0.95,1.32,1.43,0.82,2.9c-0.98-0.62-1.92-1.22-2.87-1.82
	C112.17,41.38,112.9,41.12,113.69,40.96z"/>
<path class="st31" d="M212.5,73.07c0.04-0.81-1.47-1.39-0.23-2.41c0.92-0.77,1.36,0.35,2.06,0.28
	C214.04,71.92,213.39,72.6,212.5,73.07z"/>
<path class="st32" d="M194.68,92.27c-0.45-1.9,0.55-3.18,1.87-4.31C196.75,89.76,195.86,91.08,194.68,92.27z"/>
<path class="st13" d="M148.76,1.22c-1.69-0.26-3.61,0.94-5.06-0.8C145.43,0.43,147.26-0.24,148.76,1.22z"/>
<path class="st33" d="M172.37,64.17c-0.56,0.3-1.12,0.6-1.68,0.91c0.08-0.91-0.31-1.89,0.4-2.71
	C171.99,62.66,172.5,63.19,172.37,64.17z"/>
<path class="st26" d="M177.58,12.23c0.01-0.29,0-0.58-0.02-0.87c1.25-0.43,1.95,0.81,3.01,0.99
	C179.48,14.51,178.58,12.19,177.58,12.23z"/>
<path class="st34" d="M26.08,91.93c0.08-0.56,0.38-0.91,0.95-1.01c-0.03,1.35-0.06,2.71-0.09,4.06c-0.29-0.03-0.58-0.05-0.87-0.06
	c-0.56-0.49-0.63-1.16-0.67-1.85C25.52,92.63,25.74,92.25,26.08,91.93z"/>
<path class="st12" d="M164.5,14.28c1.38,0,2.76-0.01,4.15-0.01C167.27,15.46,165.89,15.59,164.5,14.28z"/>
<path class="st34" d="M27.18,97.92c-1.39-0.6-1.61-1.26-0.11-2C28.24,96.52,28.38,97.19,27.18,97.92z"/>
<path class="st35" d="M174.86,32.01c-0.58,0.3-1.17,0.6-1.8,0.92c-0.62-0.4-1.31-0.86-1.47-1.77
	C172.81,30.94,173.96,30.99,174.86,32.01z"/>
<path class="st36" d="M222.42,34.17c0.01,0.31,0.01,0.62,0,0.94c-1.05-0.22-2.29,0.18-3.09-0.9c1.21,0.2,2.05-0.75,3.11-1.02
	c0.33,0.23,0.44,0.45,0.32,0.67C222.65,34.07,222.54,34.17,222.42,34.17z"/>
<path class="st37" d="M78.63,133.94c1.18,0.01,2.74-0.86,3.36,1.5c-1.04-0.28-1.71-0.46-2.38-0.64
	C79.01,134.82,78.78,134.43,78.63,133.94z"/>
<path class="st38" d="M228.33,38.24c0.56-0.28,1.13-0.56,1.84-0.91c0.09,0.98,0.17,1.88,0.25,2.79
	C229.29,39.96,228.87,39.04,228.33,38.24z"/>
<path class="st13" d="M135.69,7.21c0.66-1.65,2.05-0.73,3.14-0.88C138,7.39,136.81,7.16,135.69,7.21z"/>
<path class="st13" d="M201.58,81.13c0.21-1.84,1.66-0.94,2.59-1.18C203.76,81.34,202.48,80.82,201.58,81.13z"/>
<path class="st39" d="M13.25,51.01c0.85,0.27,1.29,0.91,1.52,1.72c-0.63,0.43-1.26,0.29-1.89,0.05C13,52.19,13.12,51.6,13.25,51.01z
	"/>
<path class="st40" d="M68.89,52.01c0.21,1.34-0.19,2.19-1.73,2.12C67.33,53.08,67.99,52.45,68.89,52.01z"/>
<path class="st12" d="M168.62,14.29c0.03-0.65,0.39-0.99,1.03-1.06c0.65-0.56,1.3-0.6,1.94,0.02l0,0c0.33,0.22,0.44,0.44,0.33,0.67
	c-0.11,0.22-0.22,0.33-0.33,0.33C170.61,14.74,169.62,14.42,168.62,14.29z"/>
<path class="st26" d="M171.59,14.24c0-0.33,0-0.67,0-1c1.11,0.06,2.23,0.11,3.34,0.17C174.05,14.61,172.79,14.32,171.59,14.24z"/>
<path class="st41" d="M238.65,55.01c0.57,0.02,1.15,0.05,1.72,0.07l-0.02-0.01c-0.05,0.74-0.09,1.49-0.14,2.23
	C239.58,56.62,238.77,56.05,238.65,55.01z"/>
<path class="st25" d="M127.89,63.99c-1.06-0.19-2.43,0.77-3.12-0.82C125.92,63,127.08,62.83,127.89,63.99z"/>
<path class="st42" d="M82.8,94.95c0.94,0.09,1.97-0.39,2.81,0.42c-0.77,0.94-1.82,0.39-2.73,0.54
	C82.85,95.59,82.83,95.27,82.8,94.95z"/>
<path class="st19" d="M200.49,80.91c0.38,0.06,0.76,0.13,1.14,0.19c-0.79,1.22-1.97,0.99-3.13,0.82
	C198.73,80.75,199.71,81.01,200.49,80.91z"/>
<path class="st43" d="M90.76,40.93c-0.01,0.6,0.33,1.25-0.27,1.82c-1.06-0.33-0.44-1.18-0.54-1.8
	C90.22,40.91,90.49,40.91,90.76,40.93z"/>
<path class="st14" d="M245.2,55.08c-1.02-0.32-0.85-1.17-0.87-1.94C245.22,53.52,245.37,54.23,245.2,55.08z"/>
<path class="st44" d="M13.31,78.96c1.03,0.39,0.85,1.25,0.78,2.06C13.22,80.56,13.1,79.82,13.31,78.96z"/>
<path class="st13" d="M205.49,78.81c0.26-0.98,1.06-0.82,1.77-0.84C207.12,79.21,206.27,78.94,205.49,78.81z"/>
<path class="st16" d="M224.39,123.64c0.02-0.76-0.11-1.6,0.94-1.83C225.41,122.62,225.62,123.5,224.39,123.64z"/>
<path class="st45" d="M53.96,14.19c-0.17,1.26-1.12,1.06-1.97,1.04C52.4,14.41,53.15,14.25,53.96,14.19z"/>
<path class="st13" d="M129.65,3.1c0.03,0.39,0.05,0.79,0.08,1.18c0,0,0,0,0,0c-0.7-0.01-1.4-0.03-2.1-0.04
	C128.1,3.48,128.89,3.31,129.65,3.1z"/>
<path class="st33" d="M171.67,68.12c-0.04-0.82-0.22-1.7,0.8-2.13C172.71,66.9,172.69,67.69,171.67,68.12z"/>
<path class="st46" d="M113.07,200.99c0.44-0.85,0.81-1.54,1.37-2.61c1.65,1.49,3.46,2.5,3.95,4.8c-1.15,0.5-2.18,0.66-2.66-0.86
	C115.32,201.03,113.95,201.89,113.07,200.99z"/>
<path class="st4" d="M239.27,153.95c-0.17,2.34-2.26,1.49-2.53,2.78c-1.92-0.84-3.7-1.24-4.55-3.46c1.67-0.44,2.14,1.23,3.24,1.43
	C236.73,154.95,237.65,153.45,239.27,153.95z"/>
<path class="st47" d="M218.15,184.62c0.87-0.02,1.73-0.33,2.29,1.05c-0.84,1.13-1.54,2.62-3.75,2.8
	C216.32,186.6,217.6,185.73,218.15,184.62z"/>
<path class="st48" d="M27.98,161.07c0.4-1.67,1.47-2.4,2.62-3.11c0.79,1.04,0.48,2.14,0.3,3.11
	C29.93,161.07,29.01,161.07,27.98,161.07z"/>
<path class="st4" d="M32.74,156.07c1.26-1.98,3.01-0.96,4.03-1.94C36.34,156.3,35.3,157.19,32.74,156.07z"/>
<path class="st49" d="M160.63,169.62c-0.05,0.48-0.1,0.97-0.17,1.53c-1.33,0.55-2.61,0.95-3.91-0.47
	C157.74,168.95,159.35,169.92,160.63,169.62L160.63,169.62z"/>
<path class="st46" d="M20.88,151.19c-1.02,0.98-2.56-0.17-3.03,1.37c-1.16-0.94-0.35-1.53-0.04-2.21c0.21-0.47-0.88-1.03,0.06-1.57
	C19.59,148.77,19.16,151.18,20.88,151.19z"/>
<path class="st50" d="M30.78,148.35c-0.79,1.49-1.86,2.37-3.79,1.91C27.68,148.06,29.32,148.35,30.78,148.35z"/>
<path class="st51" d="M209.52,177.57c1.08,0.98,1.73,2.06,1.83,3.58C208.68,180.26,208.4,179.71,209.52,177.57z"/>
<path class="st4" d="M78.9,188.54c-0.93,1.94-2.37,0.81-3.76,0.7c0.47-0.95,0.88-1.77,1.25-2.51c0.89-0.23,1.33,0.09,1.52,0.81
	C77.89,188.22,78.58,188.2,78.9,188.54z"/>
<path class="st52" d="M20.1,103.87c0.06,1.07,1.24,0.84,1.71,1.47c-0.53,1.02-1.3,1.77-2.46,2.31
	C19.32,106.28,18.14,104.81,20.1,103.87L20.1,103.87z"/>
<path class="st9" d="M15.6,126.47c-1.77-0.08-2.49-0.84-2.24-2.44C15.64,123.79,14.82,125.82,15.6,126.47z"/>
<path class="st53" d="M18.72,164.19c0.94-0.77,1.43-1.17,1.77-1.45c1.39-0.09,1.94,0.61,2.32,1.58
	C21.75,164.85,20.68,164.75,18.72,164.19z"/>
<path class="st12" d="M216.56,180.8c-1.55-1.28-1.12-2.5-0.96-3.64c0.15-0.08,0.25-0.14,0.35-0.19
	C216.22,178.14,218.18,178.94,216.56,180.8z"/>
<path class="st54" d="M169.65,187.41c1.08-1.7,1.08-1.7,3.87-1.53C172.26,186.5,171.48,187.47,169.65,187.41z"/>
<path class="st46" d="M74.91,192.53c0.31-0.33,0.6-0.9,0.94-0.94c0.75-0.09,1.84-0.25,1.87,0.91c0.03,1.19-1.06,0.94-1.82,1.03
	C75.62,193.15,74.98,193.13,74.91,192.53z"/>
<path class="st55" d="M74.91,192.53c0.6,0.06,0.94,0.4,1,1c-1.34-0.19-2.91,0.48-4.17-0.95C72.99,191.47,73.94,193.01,74.91,192.53z
	"/>
<path class="st56" d="M89.02,174.28c0.86-1.21,1.46-2.28,2.73-0.96C91.52,175.05,90.41,174.68,89.02,174.28z"/>
<path class="st20" d="M25.08,89.93c-1.27,0.14-2.21-0.3-2.75-1.71C23.95,87.75,25.17,87.72,25.08,89.93z"/>
<path class="st57" d="M102.76,174.91c0.69-1.95,1.78-0.9,2.6-1.12C104.85,174.95,104.42,176.2,102.76,174.91z"/>
<path class="st58" d="M17.2,61.98c-1.28-0.46-2.56-0.92-3.96-1.42c1.35-0.88,2.66-0.36,3.91-0.47C17.65,60.7,17.66,61.34,17.2,61.98
	z"/>
<path class="st12" d="M121.76,202.49c-0.55,0.24-1.1,0.48-1.68,0.73c-0.68-1.37,0.29-1.89,1.2-2.45
	C121.92,201.23,121.7,201.9,121.76,202.49L121.76,202.49z"/>
<path class="st55" d="M121.76,202.49c0.47,0.06,1.04-0.03,1.38,0.2c0.59,0.4,0.69,1.05,0.01,1.51c-0.44,0.3-0.98,0.08-1.18-0.33
	C121.76,203.48,121.82,202.95,121.76,202.49L121.76,202.49z"/>
<path class="st45" d="M16.79,69.22c0.37,0.45,0.75,0.91,1.15,1.39c-0.82,0.53-1.56,0.55-2.34,0.21
	C15.33,69.85,16.07,69.6,16.79,69.22z"/>
<path class="st59" d="M20.11,103.88c0.06-0.75-0.18-1.69,0.95-1.83c0.51-0.06,0.92,0.35,0.86,0.86
	C21.8,104.04,20.85,103.81,20.11,103.88L20.11,103.88z"/>
<path class="st11" d="M17.27,120.7c-0.62,0.13-0.87-0.28-1-0.72c-0.17-0.58,0.28-0.86,0.72-0.98c0.57-0.16,0.85,0.28,0.98,0.73
	C18.13,120.3,17.7,120.53,17.27,120.7z"/>
<path class="st60" d="M32.92,36.26c-0.2,0.43-0.45,0.89-1.01,0.72c-0.45-0.13-0.9-0.43-0.72-1c0.13-0.45,0.42-0.88,1.01-0.71
	C32.66,35.41,33.06,35.66,32.92,36.26z"/>
<path class="st61" d="M158.5,175.77c-0.15,0.44-0.4,0.85-0.96,0.69c-0.45-0.13-0.89-0.42-0.72-0.98c0.13-0.44,0.42-0.9,0.99-0.71
	C158.22,174.9,158.72,175.11,158.5,175.77z"/>
<path class="st62" d="M31.17,40.22c-0.49-0.06-1.07,0.01-1.44-0.23c-0.62-0.4-0.77-1.07-0.06-1.56c0.46-0.32,0.99-0.05,1.2,0.38
	c0.21,0.42,0.18,0.95,0.26,1.44L31.17,40.22z"/>
<path class="st4" d="M22.2,144.85c0.43,0.19,0.88,0.43,0.72,0.99c-0.13,0.44-0.41,0.89-0.99,0.71c-0.44-0.13-0.89-0.4-0.72-0.99
	C21.34,145.1,21.61,144.73,22.2,144.85z"/>
<path class="st4" d="M8.24,146.84c0.43,0.19,0.88,0.43,0.72,0.99c-0.13,0.44-0.41,0.89-0.99,0.71c-0.44-0.13-0.89-0.4-0.72-0.99
	C7.39,147.09,7.65,146.72,8.24,146.84z"/>
<path class="st12" d="M24.83,153.08c-0.07,0.15-0.3,0.59-0.87,0.43c-0.44-0.13-0.89-0.41-0.71-0.99c0.13-0.44,0.4-0.89,0.99-0.71
	C24.68,151.95,25.12,152.17,24.83,153.08z"/>
<path class="st55" d="M23.94,155.82c0.58-0.12,0.84,0.29,0.97,0.73c0.16,0.57-0.28,0.84-0.73,0.98c-0.58,0.17-0.85-0.25-0.98-0.71
	C23.04,156.24,23.49,156.02,23.94,155.82z"/>
<path class="st63" d="M13,158.49c0.12,0.6-0.31,0.86-0.75,1c-0.57,0.17-0.87-0.27-1.01-0.73c-0.17-0.6,0.28-0.85,0.74-0.99
	C12.58,157.59,12.8,158.05,13,158.49z"/>
<path class="st64" d="M14.23,163.54c-0.56,0.12-0.82-0.3-0.95-0.74c-0.17-0.58,0.28-0.86,0.72-0.98c0.57-0.16,0.85,0.28,0.98,0.73
	C15.14,163.12,14.72,163.36,14.23,163.54z"/>
<path class="st13" d="M160.63,169.62c0.06-0.47-0.03-1.03,0.21-1.38c0.4-0.59,1.05-0.69,1.52-0.01c0.3,0.44,0.08,0.98-0.34,1.18
	C161.62,169.61,161.1,169.56,160.63,169.62L160.63,169.62z"/>
<path class="st65" d="M208.37,171.5c0.12,0.56-0.3,0.82-0.74,0.95c-0.58,0.17-0.86-0.28-0.98-0.72c-0.16-0.57,0.28-0.85,0.73-0.98
	C207.94,170.59,208.19,171.01,208.37,171.5z"/>
<path class="st12" d="M78.75,173.75c0.58-0.12,0.84,0.29,0.97,0.73c0.16,0.57-0.28,0.84-0.73,0.98c-0.58,0.17-0.85-0.25-0.98-0.71
	C77.86,174.17,78.3,173.95,78.75,173.75z"/>
<path class="st6" d="M133.59,206.58c-0.19,0.43-0.43,0.88-0.99,0.72c-0.44-0.13-0.89-0.41-0.71-0.99c0.13-0.44,0.4-0.89,0.99-0.72
	C133.34,205.73,133.71,205.99,133.59,206.58z"/>
<path class="st66" d="M17.01,47.94c0.13,0.61-0.28,0.87-0.72,1c-0.58,0.17-0.86-0.28-0.99-0.72c-0.18-0.58,0.29-0.83,0.73-0.97
	C16.6,47.08,16.83,47.51,17.01,47.94z"/>
<path class="st4" d="M186.41,179.75c-0.15,0.44-0.4,0.85-0.96,0.69c-0.45-0.13-0.89-0.42-0.72-0.98c0.13-0.44,0.42-0.9,0.99-0.71
	C186.13,178.89,186.63,179.09,186.41,179.75z"/>
<path class="st67" d="M128.63,186.44c0.12,0.56-0.3,0.82-0.74,0.95c-0.58,0.17-0.86-0.28-0.98-0.72c-0.16-0.57,0.28-0.85,0.73-0.98
	C128.21,185.53,128.45,185.95,128.63,186.44z"/>
<path class="st64" d="M195.68,187.44c-0.62,0.13-0.87-0.28-1-0.73c-0.17-0.58,0.28-0.86,0.72-0.98c0.57-0.16,0.85,0.28,0.98,0.73
	C196.54,187.03,196.11,187.26,195.68,187.44z"/>
<path class="st4" d="M201.88,185.81c0.15,0.07,0.6,0.3,0.43,0.86c-0.13,0.44-0.41,0.89-0.99,0.71c-0.44-0.13-0.89-0.4-0.71-0.99
	C200.75,185.95,200.97,185.52,201.88,185.81z"/>
<path class="st55" d="M89.73,188.72c-0.15,0.44-0.4,0.85-0.96,0.69c-0.45-0.13-0.89-0.42-0.72-0.98c0.13-0.44,0.42-0.9,0.99-0.71
	C89.45,187.85,89.95,188.06,89.73,188.72z"/>
<path class="st67" d="M165.51,191.42c0.12,0.56-0.29,0.82-0.74,0.95c-0.58,0.17-0.86-0.28-0.98-0.72c-0.16-0.57,0.28-0.85,0.73-0.98
	C165.09,190.51,165.33,190.93,165.51,191.42z"/>
<path class="st20" d="M148.47,192.06c-1.23,0.68-2.37,0.71-3.59-0.04C146.12,191.33,147.26,191.28,148.47,192.06z"/>
<path class="st67" d="M138.55,195.35c0.12,0.6-0.29,0.86-0.73,0.99c-0.57,0.16-0.85-0.28-0.98-0.73c-0.17-0.58,0.25-0.85,0.71-0.98
	C138.14,194.47,138.35,194.93,138.55,195.35z"/>
<path class="st68" d="M117.62,196.37c0.12,0.58-0.29,0.84-0.73,0.97c-0.57,0.16-0.85-0.28-0.98-0.73c-0.17-0.58,0.25-0.85,0.71-0.98
	C117.21,195.47,117.43,195.92,117.62,196.37z"/>
<path class="st6" d="M130.58,199.34c0.12,0.6-0.29,0.86-0.73,0.99c-0.57,0.16-0.85-0.28-0.98-0.73c-0.17-0.58,0.25-0.85,0.71-0.98
	C130.17,198.46,130.38,198.91,130.58,199.34z"/>
<path class="st5" d="M46.01,21.21c1.02,0.26,2.46-0.72,2.98,1.01c-0.67,0.57-1.33,0.57-1.99-0.01
	C46.4,22.15,46.07,21.81,46.01,21.21z"/>
<path class="st21" d="M19.16,77.59c-1.27,0.05-1.42-0.64-1.95-1.21C18.97,75.77,18.92,76.65,19.16,77.59z"/>
<path class="st69" d="M33.89,150.38c-1.72,0.44-2-0.09-1.46-1.32C33.12,149.13,33.47,149.58,33.89,150.38z"/>
<path class="st55" d="M21.71,156.92c-0.07,0.85-0.45,1.32-1.35,1.31C19.95,156.89,20.46,156.56,21.71,156.92z"/>
<path class="st4" d="M13.86,167.25c-0.85-0.07-1.32-0.45-1.32-1.35C13.9,165.5,14.23,166,13.86,167.25z"/>
<path class="st12" d="M26.08,92.93c0,0.66-0.01,1.33-0.01,1.99l-0.49,0l-0.49,0l0,0c-0.33-0.66-0.66-1.33-0.99-1.99l0,0
	C24.75,92.39,25.42,92.31,26.08,92.93z"/>
<path class="st47" d="M196.89,169.31c0.74,0.73,1.17,1.16,1.91,1.89C196.86,171.66,196.46,171.21,196.89,169.31z"/>
<path class="st24" d="M190.92,175.28c0.02-0.84,0.59-1.52,1.25-1.19c0.71,0.35,0.23,1.08-0.37,1.39
	C191.61,175.57,191.25,175.36,190.92,175.28z"/>
<path class="st70" d="M101.22,178.36c-0.62-1.14-0.42-1.74,1.11-1.57C102.52,177.72,101.84,178.01,101.22,178.36z"/>
<path class="st57" d="M142.69,180.58c0.23,0.55,0.45,1.1,0.68,1.66C141.7,181.94,141.7,181.94,142.69,180.58L142.69,180.58z"/>
<path class="st71" d="M116.61,182.85c-0.39,0.82-0.79,1.25-1.45,1.4C114.62,183.07,114.74,182.41,116.61,182.85z"/>
<path class="st52" d="M71.53,188.78c0.61,1.13,0.43,1.74-1.11,1.56C70.21,189.4,70.92,189.13,71.53,188.78z"/>
<path class="st72" d="M25.59,42.94c-0.42-0.46-0.85-0.91-0.13-1.45c0.07-0.05,0.25-0.06,0.32,0C26.44,42.05,26.05,42.5,25.59,42.94z
	"/>
<path class="st73" d="M16.51,52.75c-0.49-0.37-0.5-0.93-0.09-1.16c0.66-0.37,0.65,0.27,0.59,0.66
	C16.99,52.44,16.68,52.59,16.51,52.75z"/>
<path class="st74" d="M17.34,58.55c0.53-0.55,1.03-0.55,1.52,0.03C18.34,59.15,17.84,59.11,17.34,58.55z"/>
<path class="st55" d="M17.51,82.62c-0.48-0.37-0.5-0.92-0.09-1.15c0.65-0.36,0.65,0.27,0.59,0.66
	C17.98,82.32,17.68,82.47,17.51,82.62z"/>
<path class="st75" d="M18.34,87.43c0.52-0.54,1.02-0.56,1.51,0.04C19.34,88.02,18.83,88.02,18.34,87.43z"/>
<path class="st76" d="M4.49,136.37c0.34-0.69,0.77-0.74,1.32-0.22C5.47,136.83,5.04,136.89,4.49,136.37z"/>
<path class="st77" d="M36.39,151.1c0.37-0.48,0.92-0.51,1.15-0.09c0.36,0.65-0.27,0.65-0.66,0.59
	C36.69,151.57,36.55,151.27,36.39,151.1z"/>
<path class="st78" d="M47.25,151.17c0.52-0.54,1.03-0.56,1.51,0.04C48.24,151.77,47.74,151.76,47.25,151.17z"/>
<path class="st79" d="M238.7,151.37c0.36-0.82,0.82-0.7,1.37-0.35C239.72,151.84,239.25,151.69,238.7,151.37z"/>
<path class="st55" d="M11.47,152.1c0.37-0.48,0.92-0.5,1.15-0.09c0.36,0.65-0.27,0.65-0.66,0.59
	C11.77,152.57,11.63,152.27,11.47,152.1z"/>
<path class="st35" d="M54.18,151.51c-0.31,0.81-0.76,1.35-1.83,0.98c0.26-1.19,1.26-0.62,1.8-0.96L54.18,151.51z"/>
<path class="st80" d="M30.44,153.03c0.69,0.34,0.74,0.77,0.21,1.32C29.98,154.01,29.93,153.58,30.44,153.03z"/>
<path class="st4" d="M254.07,154.2c-0.52,0.54-1.02,0.56-1.51-0.04C253.08,153.61,253.59,153.61,254.07,154.2z"/>
<path class="st25" d="M9.9,157.19c-0.53,0.55-1.03,0.55-1.53-0.03C8.9,156.59,9.4,156.62,9.9,157.19z"/>
<path class="st52" d="M55.63,158.26c-0.37,0.48-0.92,0.5-1.15,0.09c-0.36-0.65,0.27-0.65,0.66-0.59
	C55.33,157.79,55.47,158.09,55.63,158.26z"/>
<path class="st4" d="M30.41,165.04c0.37-0.48,0.92-0.5,1.15-0.09c0.36,0.65-0.27,0.65-0.66,0.59
	C30.71,165.51,30.57,165.22,30.41,165.04z"/>
<path class="st53" d="M207.81,167.25c0.34-0.69,0.77-0.74,1.32-0.21C208.79,167.71,208.36,167.76,207.81,167.25z"/>
<path class="st81" d="M183.95,170.28c-0.49-0.37-0.51-0.92-0.09-1.15c0.65-0.36,0.65,0.27,0.59,0.66
	C184.43,169.97,184.13,170.12,183.95,170.28z"/>
<path class="st82" d="M47,22.21c0.66,0,1.33,0.01,1.99,0.01C49,22.55,49,22.88,49,23.2c-0.66,0.62-1.33,0.54-1.99,0
	C47,22.87,47,22.54,47,22.21z"/>
<path class="st83" d="M193.28,172.13c-0.52,0.54-1.03,0.56-1.53-0.04C192.28,171.53,192.79,171.55,193.28,172.13z"/>
<path class="st45" d="M221.77,173.22c0.34-0.69,0.77-0.74,1.32-0.22C222.75,173.69,222.32,173.74,221.77,173.22z"/>
<path class="st5" d="M47.01,23.21c0.66,0,1.33,0,1.99,0c0,0.33,0,0.67,0,1C48.19,24.17,47.23,24.43,47.01,23.21z"/>
<path class="st28" d="M42.5,26.94c-0.54-0.52-0.55-1.02,0.05-1.51C43.1,25.95,43.08,26.45,42.5,26.94z"/>
<path class="st84" d="M65.54,174.94c0.48,0.37,0.51,0.92,0.09,1.15c-0.65,0.36-0.65-0.27-0.59-0.66
	C65.07,175.25,65.37,175.1,65.54,174.94z"/>
<path class="st12" d="M45.01,29.18c0,0.33,0,0.67,0,1c-0.15,0.42-0.37,1.1-0.83,0.38C43.78,29.91,44.23,29.34,45.01,29.18z"/>
<path class="st52" d="M142.1,177.25c-0.48-0.37-0.5-0.92-0.09-1.15c0.65-0.36,0.65,0.27,0.59,0.66
	C142.57,176.94,142.27,177.09,142.1,177.25z"/>
<path class="st42" d="M99.35,176.83c0.55,0.53,0.55,1.03-0.03,1.53C98.75,177.82,98.78,177.32,99.35,176.83z"/>
<path class="st57" d="M142.69,180.58c0.05-0.61-0.15-1.3,0.54-1.75C143.97,179.7,143.68,180.24,142.69,180.58L142.69,180.58z"/>
<path class="st51" d="M208.47,179.57c-0.06,0.62,0.14,1.31-0.53,1.74C207.17,180.45,207.49,179.92,208.47,179.57z"/>
<path class="st74" d="M112.17,181.92c0.69,0.34,0.74,0.77,0.22,1.32C111.71,182.89,111.65,182.47,112.17,181.92z"/>
<path class="st85" d="M35.43,34.52c0.68,0.34,0.73,0.77,0.21,1.31C34.95,35.5,34.92,35.07,35.43,34.52z"/>
<path class="st67" d="M143.3,186.21c-0.69-0.34-0.74-0.77-0.21-1.32C143.76,185.23,143.82,185.66,143.3,186.21z"/>
<path class="st58" d="M20.45,85.57c0.34-0.69,0.77-0.74,1.32-0.21C21.42,86.03,20.99,86.09,20.45,85.57z"/>
<path class="st12" d="M25.08,94.92c-0.05,0.61,0.14,1.3-0.54,1.75C23.8,95.8,24.09,95.26,25.08,94.92L25.08,94.92z"/>
<path class="st86" d="M93.62,187.07c-0.53,0.56-1.04,0.56-1.54-0.03C92.62,186.46,93.12,186.49,93.62,187.07z"/>
<path class="st87" d="M78.9,188.54c-0.58-0.06-1.26,0.21-1.63-0.47c-0.03-0.05,0.42-0.35,0.64-0.53
	C78.5,187.61,78.84,187.94,78.9,188.54z"/>
<path class="st88" d="M166.85,188.03c0.52-0.54,1.02-0.56,1.51,0.04C167.84,188.63,167.34,188.62,166.85,188.03z"/>
<path class="st19" d="M124.51,190.06c-0.52,0.54-1.02,0.56-1.51-0.04C123.52,189.47,124.02,189.47,124.51,190.06z"/>
<path class="st89" d="M161.03,194.18c-0.48-0.37-0.5-0.92-0.09-1.15c0.65-0.36,0.65,0.27,0.59,0.66
	C161.5,193.87,161.2,194.02,161.03,194.18z"/>
<path class="st12" d="M113.26,195.28c-0.54-0.52-0.56-1.02,0.04-1.51C113.86,194.29,113.86,194.79,113.26,195.28z"/>
<path class="st90" d="M26.36,36.87c0.36-0.85,0.83-0.71,1.39-0.37C27.4,37.32,26.93,37.19,26.36,36.87z"/>
<path class="st11" d="M146.06,195.86c0.69,0.34,0.74,0.77,0.21,1.32C145.6,196.84,145.54,196.41,146.06,195.86z"/>
<path class="st91" d="M123.09,196.92c0.37-0.48,0.92-0.5,1.15-0.09c0.36,0.65-0.27,0.65-0.66,0.59
	C123.4,197.39,123.25,197.09,123.09,196.92z"/>
<path class="st11" d="M71.17,198.98c0.52-0.54,1.02-0.56,1.51,0.04C72.16,199.58,71.66,199.57,71.17,198.98z"/>
<path class="st92" d="M17.2,61.98c-0.02-0.63-0.04-1.26-0.05-1.9C18.47,60.68,18.51,61.31,17.2,61.98z"/>
<path class="st9" d="M5.53,140.09c0.69,0.34,0.74,0.77,0.21,1.32C5.07,141.06,5.01,140.63,5.53,140.09z"/>
<path class="st57" d="M52.99,103.88c0.17,1.45-0.17,2.78-1,3.98c0.58,0.66,0.56,1.33,0.01,2c-1.36,0.09-2.32-0.36-1.93-1.89
	c0.34-1.35,0.95-2.62,1.44-3.93C52.03,103.98,52.51,103.93,52.99,103.88L52.99,103.88z"/>
<path class="st57" d="M73.19,55.4c0.82-1.45,1.88-2.36,4.04-1.81C76.06,55.23,74.85,55.77,73.19,55.4z"/>
<path class="st20" d="M99.69,124.97c1.53,1.34,1.33,2.58,0.01,3.76C99.36,127.46,99.92,126.19,99.69,124.97z"/>
<path class="st20" d="M62.37,115.85c2.38,0.11,3.83-0.52,4.8,1.47C64.77,117.11,64.77,117.11,62.37,115.85z"/>
<path class="st4" d="M241.46,99.03c-0.5,2.13-1.74,2.06-3.13,2.64C238.67,99.76,239.37,98.99,241.46,99.03z"/>
<path class="st64" d="M65.91,62.52c0.39-1.66,1.13-2.41,2.86-2.19c-0.07,0.64,0,1.13-0.14,1.21C67.86,61.94,67.22,62.73,65.91,62.52
	z"/>
<path class="st75" d="M93.71,45.6c-0.74,0.38-1.56,0.8-2.78,1.43c0.03-1.84,0.79-2.56,2.16-2.82C93.57,44.55,93.82,44.93,93.71,45.6
	z"/>
<path class="st4" d="M186.54,119.82c-0.24-0.54-0.49-1.09-0.81-1.81c0.65-0.06,1.24-0.12,1.83-0.17c0.54,0.67,0.56,1.33-0.02,1.99
	c-0.04,0.81,0.23,1.79-1.02,1.97C185.99,121.13,185.96,120.47,186.54,119.82z"/>
<path class="st93" d="M237.1,94.59c-1.01-0.76-2.29-0.47-3.34-1.11C234.4,92.41,235.76,92.75,237.1,94.59z"/>
<path class="st67" d="M69.93,63.05c0.06-0.47-0.03-1.04,0.21-1.38c0.4-0.59,1.05-0.69,1.52-0.01c0.3,0.44,0.08,0.98-0.34,1.18
	C70.92,63.04,70.39,62.99,69.93,63.05L69.93,63.05z"/>
<path class="st19" d="M69.93,63.05c-0.06,0.47,0.03,1.04-0.2,1.38c-0.4,0.59-1.05,0.7-1.52,0.01c-0.3-0.44-0.08-0.98,0.34-1.18
	C68.94,63.05,69.46,63.11,69.93,63.05L69.93,63.05z"/>
<path class="st78" d="M246.34,72.03c0.06-0.47-0.03-1.04,0.21-1.39c0.4-0.59,1.05-0.7,1.52-0.02c0.3,0.45,0.07,0.98-0.34,1.19
	c-0.4,0.2-0.93,0.15-1.4,0.21C246.33,72.02,246.34,72.03,246.34,72.03z"/>
<path class="st94" d="M245.31,100.45c-1.85,0.79-2.08-0.38-2.8-1.12C244.28,98.49,244.41,99.81,245.31,100.45z"/>
<path class="st52" d="M224.27,101.73c0.12,0.6-0.29,0.86-0.73,0.99c-0.57,0.16-0.85-0.28-0.98-0.73c-0.17-0.58,0.25-0.85,0.71-0.98
	C223.86,100.85,224.07,101.3,224.27,101.73z"/>
<path class="st67" d="M54.98,103.88c-0.67,0-1.33,0-2,0l0,0c0.08-0.75-0.16-1.82,1-1.81C55.14,102.07,54.9,103.13,54.98,103.88
	L54.98,103.88z"/>
<path class="st54" d="M54.98,103.88c0.74,0.07,1.69-0.16,1.82,0.96c0.06,0.51-0.35,0.92-0.86,0.86
	C54.83,105.57,55.05,104.63,54.98,103.88L54.98,103.88z"/>
<path class="st52" d="M211.85,115.09c0.15,0.07,0.6,0.3,0.43,0.86c-0.13,0.44-0.41,0.89-0.99,0.71c-0.44-0.13-0.89-0.4-0.71-0.99
	C210.72,115.24,210.94,114.8,211.85,115.09z"/>
<path class="st52" d="M61.79,119.97c0.6-0.12,0.86,0.29,0.99,0.73c0.16,0.57-0.28,0.84-0.73,0.98c-0.58,0.17-0.85-0.25-0.98-0.71
	C60.91,120.38,61.37,120.17,61.79,119.97z"/>
<path class="st67" d="M88.09,123.36c1.19-0.81,2.29-0.74,3.55-0.1C90.44,124.05,89.34,123.99,88.09,123.36z"/>
<path class="st3" d="M68.81,124.91c-0.19,0.43-0.43,0.88-0.99,0.72c-0.44-0.13-0.89-0.41-0.71-0.99c0.13-0.44,0.4-0.89,0.99-0.72
	C68.55,124.05,68.93,124.32,68.81,124.91z"/>
<path class="st95" d="M186.67,129.67c0.19-0.43,0.43-0.88,0.99-0.72c0.44,0.13,0.89,0.41,0.71,0.98c-0.14,0.44-0.4,0.88-0.99,0.72
	C186.92,130.53,186.55,130.26,186.67,129.67z"/>
<path class="st96" d="M104.67,133.6c0.12,0.6-0.29,0.86-0.73,0.99c-0.57,0.16-0.85-0.28-0.98-0.73c-0.17-0.58,0.25-0.85,0.71-0.98
	C104.26,132.72,104.47,133.18,104.67,133.6z"/>
<path class="st57" d="M106.66,134.9c0.58-0.12,0.84,0.29,0.97,0.73c0.16,0.57-0.28,0.84-0.73,0.98c-0.58,0.17-0.85-0.25-0.98-0.71
	C105.76,135.32,106.21,135.1,106.66,134.9z"/>
<path class="st19" d="M119.88,44.02c-0.57,0.12-0.82-0.29-0.95-0.74c-0.17-0.58,0.28-0.86,0.72-0.99c0.57-0.16,0.85,0.28,0.98,0.73
	C120.79,43.6,120.37,43.84,119.88,44.02z"/>
<path class="st12" d="M109.8,45.12c-0.47-0.06-1.04,0.03-1.38-0.2c-0.59-0.4-0.7-1.05-0.01-1.52c0.44-0.3,0.98-0.08,1.19,0.34
	C109.79,44.13,109.74,44.65,109.8,45.12C109.8,45.12,109.8,45.12,109.8,45.12z"/>
<path class="st40" d="M69.78,55.91c0.13,0.6-0.29,0.86-0.72,0.98c-0.56,0.16-0.84-0.28-0.97-0.72c-0.17-0.57,0.25-0.85,0.71-0.98
	C69.37,55.04,69.58,55.49,69.78,55.91z"/>
<path class="st85" d="M117.38,41.4c-0.08,0.84-0.41,1.34-1.34,1.31C115.63,41.36,116.12,41.02,117.38,41.4z"/>
<path class="st3" d="M245.74,77.67c0.03-0.84,0.59-1.52,1.26-1.2c0.71,0.35,0.23,1.08-0.37,1.39
	C246.43,77.96,246.07,77.75,245.74,77.67z"/>
<path class="st97" d="M101.19,45.79c-0.52-1.19-0.32-1.78,1.16-1.42C102.49,45.29,101.9,45.58,101.19,45.79z"/>
<path class="st4" d="M87.42,47.93c-0.7-0.98-0.69-1.68-0.13-2.51C88.25,46.11,87.88,46.89,87.42,47.93z"/>
<path class="st15" d="M83.89,133.8c1.11,0.52,1.53,0.92,1.69,1.57C84.32,136.02,83.99,135.44,83.89,133.8z"/>
<path class="st3" d="M56.66,77.6c0.73-0.74,1.16-1.17,1.9-1.91C59.02,77.63,58.56,78.03,56.66,77.6z"/>
<path class="st98" d="M126.39,40.77c-1.18,0.51-1.78,0.33-1.41-1.14C125.91,39.48,126.19,40.06,126.39,40.77z"/>
<path class="st93" d="M165.59,137.73c-0.54,1.12-0.93,1.55-1.6,1.7C163.35,138.18,163.94,137.86,165.59,137.73z"/>
<path class="st47" d="M181.64,138.25c1.37-0.83,1.7-0.23,1.91,0.91C182.3,139.63,182.3,138.52,181.64,138.25z"/>
<path class="st12" d="M171.96,141.4c-0.52-1.19-0.31-1.78,1.16-1.42C173.25,140.91,172.66,141.19,171.96,141.4z"/>
<path class="st47" d="M120,143.12c1.13-0.61,1.74-0.42,1.56,1.11C120.62,144.43,120.35,143.73,120,143.12z"/>
<path class="st21" d="M90.54,145.36c0.74-0.78,1.16-1.21,1.87-1.96C92.95,145.41,92.41,145.71,90.54,145.36z"/>
<path class="st36" d="M97.32,44.87c-0.54-0.52-0.56-1.03,0.04-1.51C97.92,43.88,97.91,44.39,97.32,44.87z"/>
<path class="st69" d="M109.8,45.12c0.62,0.04,1.3-0.15,1.75,0.53C110.68,46.4,110.13,46.12,109.8,45.12L109.8,45.12z"/>
<path class="st58" d="M80.55,51.68c-0.37,0.48-0.92,0.5-1.15,0.09c-0.36-0.65,0.27-0.65,0.66-0.59
	C80.25,51.21,80.39,51.51,80.55,51.68z"/>
<path class="st53" d="M52.75,112.36c-0.53,0.55-1.03,0.55-1.53-0.03C51.75,111.76,52.26,111.8,52.75,112.36z"/>
<path class="st99" d="M56.73,116.36c-0.52,0.54-1.02,0.56-1.51-0.04C55.74,115.76,56.24,115.76,56.73,116.36z"/>
<path class="st69" d="M187.54,119.82c0.01-0.66,0.01-1.32,0.02-1.99C189,118.51,188.98,119.17,187.54,119.82z"/>
<path class="st16" d="M224.42,120.81c-1.45-0.66-1.46-1.32,0-1.98C224.96,119.49,225.03,120.15,224.42,120.81z"/>
<path class="st100" d="M224.42,120.81c0-0.66,0-1.32,0-1.98c1.29,0.25,0.92,1.33,1.09,2.15l0.05-0.04
	C225.18,120.9,224.8,120.85,224.42,120.81z"/>
<path class="st101" d="M186.54,119.82c-0.01,0.66-0.02,1.31-0.03,1.97C185.08,121.12,185.07,120.46,186.54,119.82z"/>
<path class="st52" d="M129.26,125.04c0.54,0.52,0.56,1.02-0.04,1.51C128.66,126.03,128.66,125.53,129.26,125.04z"/>
<path class="st102" d="M95.25,129.44c-0.48-0.37-0.51-0.92-0.09-1.15c0.65-0.36,0.65,0.27,0.59,0.66
	C95.72,129.13,95.42,129.28,95.25,129.44z"/>
<path class="st103" d="M101.3,131.53c-0.54-0.52-0.56-1.02,0.04-1.51C101.9,130.54,101.89,131.05,101.3,131.53z"/>
<path class="st104" d="M53.23,86.43c0.52-0.54,1.03-0.58,1.52,0.04C54.23,87.03,53.72,87.03,53.23,86.43z"/>
<path class="st12" d="M185.79,135.23c0.52-0.54,1.02-0.56,1.51,0.04C186.78,135.83,186.27,135.83,185.79,135.23z"/>
<path class="st105" d="M158.34,136.35c-0.37,0.48-0.93,0.49-1.15,0.08c-0.37-0.67,0.29-0.62,0.66-0.58
	C158.03,135.88,158.18,136.18,158.34,136.35z"/>
<path class="st12" d="M174.18,136.1c0.48,0.37,0.5,0.92,0.09,1.15c-0.65,0.36-0.65-0.27-0.59-0.66
	C173.71,136.4,174.01,136.26,174.18,136.1z"/>
<path class="st81" d="M179.33,138.27c-0.52,0.55-1.03,0.56-1.52-0.04C178.33,137.67,178.84,137.67,179.33,138.27z"/>
<path class="st13" d="M49.52,99.14c0.54,0.52,0.56,1.02-0.04,1.51C48.93,100.13,48.93,99.63,49.52,99.14z"/>
<path class="st106" d="M246.33,72.02c-0.04,0.62,0.18,1.31-0.53,1.75c-0.74-0.86-0.47-1.41,0.54-1.74L246.33,72.02z"/>
<path class="st21" d="M249.68,71.42c0.37-0.48,0.92-0.5,1.15-0.09c0.36,0.65-0.27,0.65-0.66,0.59
	C249.98,71.89,249.84,71.59,249.68,71.42z"/>
<path class="st67" d="M50.61,93.58c-0.69-0.34-0.74-0.77-0.21-1.32C51.07,92.6,51.13,93.03,50.61,93.58z"/>
<path class="st89" d="M236.99,102.54c-0.69-0.34-0.74-0.77-0.21-1.32C237.45,101.57,237.51,101.99,236.99,102.54z"/>
<path class="st58" d="M65.6,67.62c-0.37,0.48-0.92,0.5-1.15,0.09c-0.36-0.65,0.27-0.65,0.66-0.59C65.3,67.15,65.44,67.45,65.6,67.62
	z"/>
<path class="st77" d="M217.68,102.36c0.52-0.54,1.03-0.56,1.52,0.04C218.67,102.96,218.17,102.96,217.68,102.36z"/>
<path class="st107" d="M134.43,35.74c-0.38,0.48-0.95,0.48-1.17,0.09c-0.38-0.68,0.35-0.57,0.68-0.57
	C134.11,35.26,134.27,35.58,134.43,35.74z"/>
<path class="st74" d="M153,35.56c0.37-0.48,0.92-0.5,1.15-0.09c0.36,0.65-0.27,0.65-0.66,0.59C153.3,36.03,153.16,35.73,153,35.56z"
	/>
<path class="st80" d="M128.98,37.62c0.52-0.54,1.02-0.56,1.51,0.04C129.97,38.22,129.46,38.22,128.98,37.62z"/>
<path class="st14" d="M244.36,61.04c0.21-1.22,1.17-0.95,1.97-0.98C246.11,61.27,245.17,61.02,244.36,61.04z"/>
<path class="st23" d="M52,109.86c0-0.67,0-1.33-0.01-2C53.44,108.52,53.45,109.19,52,109.86z"/>
<path class="st65" d="M94.88,105.62c-1.78-0.89-3.23,1.02-4.75-0.09c0.65-1.89,2.58-1.72,3.67-2.59
	C95.16,103.33,94.76,104.28,94.88,105.62z"/>
<path class="st11" d="M137.09,96.99c2.08,1.46,1.91,3.02,0.64,4.75C138.03,100.16,135.31,99.01,137.09,96.99z"/>
<path class="st108" d="M144.83,95.92c1.35-0.73,1.35-0.73,2.7,0C146.18,96.64,146.18,96.64,144.83,95.92z"/>
<path class="st55" d="M102.99,67.92c-0.62,0.13-0.87-0.28-1-0.73c-0.17-0.58,0.28-0.86,0.72-0.98c0.57-0.16,0.85,0.28,0.98,0.73
	C103.85,67.51,103.42,67.74,102.99,67.92z"/>
<path class="st24" d="M161.75,93.82c0.19-0.43,0.43-0.88,0.99-0.72c0.44,0.13,0.89,0.41,0.72,0.99c-0.13,0.44-0.4,0.89-0.99,0.72
	C162,94.67,161.62,94.41,161.75,93.82z"/>
<path class="st109" d="M163.5,97.08c-0.17,0.43-0.42,0.85-0.98,0.69c-0.45-0.13-0.89-0.42-0.72-0.98c0.13-0.44,0.41-0.89,0.99-0.71
	C163.22,96.21,163.65,96.46,163.5,97.08z"/>
<path class="st110" d="M88.26,97.16c0.15,0.06,0.59,0.3,0.43,0.86c-0.13,0.44-0.41,0.89-0.99,0.71c-0.44-0.13-0.89-0.4-0.71-0.99
	C87.13,97.31,87.35,96.87,88.26,97.16z"/>
<path class="st4" d="M115.63,98.05c0.58-0.12,0.84,0.29,0.97,0.73c0.16,0.57-0.28,0.84-0.73,0.98c-0.58,0.17-0.85-0.25-0.98-0.71
	C114.73,98.47,115.18,98.25,115.63,98.05z"/>
<path class="st14" d="M178.43,99.73c0.12,0.6-0.3,0.86-0.74,0.99c-0.57,0.17-0.85-0.27-0.98-0.72c-0.16-0.58,0.26-0.85,0.72-0.98
	C178.02,98.85,178.23,99.31,178.43,99.73z"/>
<path class="st47" d="M152.52,104.06c-0.15,0.44-0.4,0.85-0.96,0.69c-0.45-0.13-0.89-0.42-0.72-0.98c0.13-0.44,0.42-0.9,0.99-0.71
	C152.24,103.19,152.74,103.39,152.52,104.06z"/>
<path class="st45" d="M200.5,76.01c1.03,0.29,1.69,0.95,1.98,1.97c-0.66,0.55-1.32,0.62-1.98,0C200.5,77.32,200.5,76.67,200.5,76.01
	z"/>
<path class="st111" d="M170.59,96.91c0,0.66,0,1.33,0,1.99v0c-0.88-0.16-1.34-0.8-1.75-1.5C169.31,96.79,169.98,96.95,170.59,96.91z
	"/>
<path class="st111" d="M170.59,96.91c0.04-0.61-0.12-1.27,0.75-1.94c0.38,0.39,0.8,0.81,1.18,1.2
	C171.87,97.03,171.2,96.87,170.59,96.91z"/>
<path class="st112" d="M119.38,99.6c-0.65-0.14-1.03-0.59-1.32-1.15c0.46-0.58,0.98-0.7,1.46-0.08
	C119.81,98.76,119.78,99.22,119.38,99.6z"/>
<path class="st67" d="M114.1,73.39c-0.73,0.74-1.16,1.17-1.9,1.91C111.74,73.36,112.19,72.96,114.1,73.39z"/>
<path class="st111" d="M170.59,98.9c0.88,0.09,2.05-0.19,1.77,1.64C171.33,100.42,170.86,99.8,170.59,98.9L170.59,98.9z"/>
<path class="st100" d="M121.76,68.03c-0.33,0.66-0.66,1.32-1,1.98c-0.32,0.46-0.66,0.49-1,0.02L119.76,70
	c-0.35-0.22-0.46-0.43-0.34-0.65c0.12-0.21,0.23-0.32,0.35-0.32C119.98,67.8,120.94,68.06,121.76,68.03z"/>
<path class="st113" d="M115.69,102.85c-0.89-0.05-1.88,0.4-2.65-0.52c1.06-0.6,2.05-1.01,2.7,0.48L115.69,102.85z"/>
<path class="st13" d="M185.15,88.19c0.61,1.13,0.43,1.74-1.11,1.56C183.84,88.81,184.54,88.53,185.15,88.19z"/>
<path class="st114" d="M105.42,107.19c-0.74-0.73-1.17-1.15-1.93-1.9C105.46,104.83,105.87,105.27,105.42,107.19z"/>
<path class="st115" d="M158.15,96.14c0.55,0.53,0.54,1.03-0.03,1.52C157.56,97.14,157.59,96.64,158.15,96.14z"/>
<path class="st13" d="M200.5,77.98c0.66,0,1.32,0,1.98,0c-0.21,1.23-1.17,0.97-1.99,1C200.5,78.65,200.5,78.31,200.5,77.98z"/>
<path class="st67" d="M85.4,98.15c0.54,0.52,0.56,1.02-0.04,1.51C84.8,99.14,84.81,98.64,85.4,98.15z"/>
<path class="st12" d="M109.04,71.49c0.52-0.54,1.02-0.56,1.51,0.04C110.04,72.09,109.53,72.08,109.04,71.49z"/>
<path class="st75" d="M195.03,85.19c0.55,0.53,0.55,1.03-0.03,1.53C194.43,86.19,194.46,85.69,195.03,85.19z"/>
<path class="st23" d="M104.19,70.36c0.7,0.34,0.76,0.77,0.22,1.33C103.73,71.35,103.66,70.92,104.19,70.36z"/>
<path class="st116" d="M119.76,69.03c0,0.32,0,0.65-0.01,0.97c-0.66,0.01-1.32,0.01-1.98,0.02
	C117.99,68.77,118.96,69.07,119.76,69.03z"/>
<path class="st11" d="M192.17,87.33c-0.34,0.69-0.77,0.74-1.32,0.21C191.2,86.87,191.63,86.81,192.17,87.33z"/>
<path class="st117" d="M95.25,66.7c-0.49-0.37-0.5-0.92-0.09-1.15c0.66-0.36,0.64,0.28,0.58,0.66
	C95.72,66.39,95.43,66.54,95.25,66.7z"/>
<path class="st118" d="M139.36,106.47c-0.37,0.48-0.92,0.5-1.15,0.09c-0.36-0.65,0.27-0.65,0.66-0.59
	C139.05,106,139.2,106.29,139.36,106.47z"/>
<path class="st119" d="M96.6,107.39c-0.52,0.54-1.02,0.56-1.51-0.04C95.61,106.79,96.12,106.79,96.6,107.39z"/>
<path class="st13" d="M132.77,5.25c-1.05-0.22-2.47,0.75-3.03-0.97l0,0c1.22,0.32,1.98-0.79,3.05-0.96
	C133.27,3.97,133.27,4.61,132.77,5.25z"/>
<path class="st18" d="M86.75,9.37c-0.19,0.43-0.42,0.88-0.99,0.72c-0.44-0.13-0.89-0.42-0.72-0.99c0.13-0.44,0.4-0.89,0.99-0.72
	C86.5,8.51,86.87,8.78,86.75,9.37z"/>
<path class="st3" d="M52.73,21.6c-0.07,0.15-0.3,0.6-0.87,0.43c-0.44-0.13-0.89-0.41-0.71-0.99c0.13-0.44,0.4-0.89,0.99-0.71
	C52.59,20.47,53.03,20.7,52.73,21.6z"/>
<path class="st14" d="M68.76,11.94c-1.74,0.45-2-0.11-1.46-1.33C68,10.68,68.35,11.13,68.76,11.94z"/>
<path class="st12" d="M60.36,14.3c-0.05-1.27,0.64-1.42,1.21-1.94C62.18,14.11,61.3,14.06,60.36,14.3z"/>
<path class="st71" d="M54.46,20.97c-0.67-0.85-0.72-1.67,0.04-2.5C55.19,19.32,55.22,20.14,54.46,20.97z"/>
<path class="st120" d="M132.77,5.25c0-0.64,0.01-1.29,0.01-1.93C134.18,3.97,134.16,4.61,132.77,5.25z"/>
<path class="st12" d="M127.39,6.65c-0.34,0.69-0.77,0.74-1.32,0.21C126.42,6.2,126.84,6.14,127.39,6.65z"/>
<path class="st16" d="M92.53,8.57c-0.35,0.83-0.81,0.7-1.36,0.36C91.52,8.11,91.98,8.25,92.53,8.57z"/>
<path class="st121" d="M81.58,10.94c-0.84-0.35-0.69-0.81-0.36-1.36C82.03,9.93,81.89,10.39,81.58,10.94z"/>
<path class="st82" d="M109.14,10.67c0.37-0.48,0.92-0.5,1.15-0.09c0.36,0.65-0.27,0.65-0.66,0.59
	C109.44,11.14,109.3,10.84,109.14,10.67z"/>
<path class="st122" d="M89.63,11.77c-0.52,0.54-1.02,0.56-1.51-0.04C88.63,11.18,89.14,11.18,89.63,11.77z"/>
<path class="st45" d="M116.3,11.49c0.54,0.52,0.56,1.02-0.04,1.51C115.7,12.48,115.71,11.98,116.3,11.49z"/>
<path class="st67" d="M106.05,12.72c0.52-0.54,1.02-0.56,1.51,0.04C107.04,13.32,106.54,13.32,106.05,12.72z"/>
<path class="st4" d="M48.33,19.91c0.35-0.83,0.81-0.7,1.36-0.36C49.34,20.37,48.88,20.23,48.33,19.91z"/>
<path class="st13" d="M205.33,74.83c0.12,0.6-0.29,0.86-0.73,0.99c-0.57,0.16-0.84-0.28-0.98-0.73c-0.17-0.58,0.25-0.85,0.71-0.98
	C204.92,73.95,205.13,74.41,205.33,74.83z"/>
<path class="st123" d="M169.59,35.13c-0.75,0.01-1.77,0.25-1.88-0.77c-0.15-1.37,0.93-1.32,1.9-1.22
	C169.6,33.8,169.59,34.46,169.59,35.13z"/>
<path class="st84" d="M175.94,38.82c-0.52-1.2-0.31-1.78,1.16-1.42C177.24,38.32,176.65,38.6,175.94,38.82z"/>
<path class="st124" d="M215.13,55.68c-0.85-0.02-1.52-0.6-1.2-1.26c0.35-0.71,1.08-0.23,1.39,0.37
	C215.43,54.99,215.21,55.35,215.13,55.68z"/>
<path class="st67" d="M174.24,37.74c-0.37,0.48-0.92,0.5-1.15,0.09c-0.36-0.65,0.27-0.65,0.66-0.59
	C173.93,37.27,174.08,37.57,174.24,37.74z"/>
<path class="st125" d="M184.89,39.55c0.37-0.48,0.92-0.5,1.15-0.09c0.36,0.65-0.27,0.65-0.66,0.59
	C185.19,40.02,185.05,39.72,184.89,39.55z"/>
<path class="st32" d="M195.85,48.51c0.37-0.48,0.92-0.51,1.15-0.09c0.36,0.65-0.27,0.65-0.66,0.59
	C196.16,48.98,196.01,48.68,195.85,48.51z"/>
<path class="st126" d="M208.87,51.77c-0.47-0.38-0.5-0.94-0.09-1.16c0.67-0.37,0.63,0.29,0.58,0.67
	C209.35,51.46,209.05,51.61,208.87,51.77z"/>
<path class="st127" d="M206.49,54.14c0.16-1.12,0.71-1.24,1.58-0.64c-0.43,0.62-1.02,0.68-1.65,0.55L206.49,54.14z"/>
<path class="st52" d="M181.32,35.68c-0.52,0.54-1.02,0.56-1.51-0.04C180.33,35.08,180.83,35.09,181.32,35.68z"/>
<path class="st128" d="M212.78,61.75c0.35-0.83,0.82-0.71,1.37-0.36C213.8,62.22,213.33,62.07,212.78,61.75z"/>
<path class="st21" d="M142.08,64.29c0.15,0.07,0.59,0.3,0.43,0.86c-0.13,0.44-0.41,0.89-0.99,0.71c-0.44-0.13-0.89-0.4-0.71-0.99
	C140.95,64.44,141.17,64,142.08,64.29z"/>
<path class="st109" d="M142.83,69.14c-0.86-0.26-1.27-0.74-0.94-1.76c1.2,0.28,0.63,1.23,0.9,1.78L142.83,69.14z"/>
<path class="st11" d="M153,65.44c0.37-0.48,0.92-0.5,1.15-0.09c0.36,0.65-0.27,0.65-0.66,0.59C153.3,65.91,153.16,65.61,153,65.44z"
	/>
<path class="st4" d="M145.06,65.39c0.69,0.34,0.74,0.76,0.21,1.32C144.6,66.36,144.55,65.93,145.06,65.39z"/>
<path class="st129" d="M171.59,13.25c-0.65-0.01-1.29-0.01-1.94-0.02c-0.01-0.82-0.23-1.73,0.94-1.98c0.58,0.07,1.17,0.13,1.81,0.2
	C172.08,12.17,171.84,12.71,171.59,13.25z"/>
<path class="st77" d="M147.4,3.9c-1.03-0.68-2.27-0.46-3.32-1.04C144.53,1.79,145.96,2.11,147.4,3.9z"/>
<path class="st130" d="M164.67,11.12c-1.59-0.41-1.59-0.41-1.65-1.53C163.69,9.65,163.99,10.17,164.67,11.12z"/>
<path class="st131" d="M154.13,7.03c-0.55-0.52-0.55-1.03,0.04-1.51C154.73,6.03,154.72,6.54,154.13,7.03z"/>
<path class="st132" d="M158.87,9.74c0.53-0.55,1.03-0.55,1.52,0.03C159.87,10.34,159.37,10.31,158.87,9.74z"/>
<path class="st133" d="M190.02,16.43c0.22-0.57-0.03-0.16-0.6-0.33c-0.45-0.13-0.89-0.41-0.72-0.98c0.13-0.44,0.41-0.9,0.98-0.71
	C190.1,14.55,190.6,14.76,190.02,16.43z"/>
<path class="st134" d="M202.56,21.21c-0.15,0.78,0.16,1.79-1.07,2C201.5,22.35,201.3,21.39,202.56,21.21z"/>
<path class="st125" d="M196.83,20.91c0.35-0.83,0.81-0.7,1.36-0.36C197.84,21.36,197.38,21.22,196.83,20.91z"/>
<path class="st75" d="M212.06,29.81c-2.4,0-3-1.96-4.2-3.27C210.11,26.54,210.91,28.46,212.06,29.81z"/>
<path class="st135" d="M220.77,31.79c0.34-0.69,0.77-0.74,1.32-0.22C221.75,32.25,221.32,32.31,220.77,31.79z"/>
<path class="st136" d="M222.42,34.17c0-0.33,0.01-0.66,0.03-0.99c0.66-0.01,1.31-0.02,1.97-0.03
	C224.21,34.4,223.23,34.12,222.42,34.17z"/>
<path class="st41" d="M240.37,55.08c-0.24-0.55-0.48-1.1-0.72-1.65c1.68,0.25,1.68,0.25,0.71,1.64L240.37,55.08z"/>
<path class="st137" d="M234.14,39.66c-0.52,0.54-1.02,0.56-1.51-0.04C233.15,39.06,233.65,39.07,234.14,39.66z"/>
<path class="st21" d="M227.1,34.83c-0.83-0.35-0.7-0.81-0.36-1.36C227.56,33.82,227.42,34.28,227.1,34.83z"/>
<path class="st67" d="M127.74,66.03c-1.21-0.31-1.97,0.74-2.99,1c0.03-0.74-0.1-1.66,0.81-1.89
	C126.4,64.92,127.42,64.76,127.74,66.03z"/>
<path class="st25" d="M127.71,67.98c0.01-0.65,0.02-1.3,0.03-1.95c0.76,0.08,1.83-0.15,1.81,1.01
	C129.53,68.2,128.47,67.95,127.71,67.98z"/>
<path class="st0" d="M166.3,35.83c-0.83-0.35-0.7-0.81-0.36-1.36C166.76,34.82,166.62,35.28,166.3,35.83z"/>
<path class="st0" d="M119.76,70.03c0.33-0.01,0.66-0.01,1-0.02c-0.03,0.9,0.09,1.9-1.31,1.93
	C118.59,71.11,119.95,70.69,119.76,70.03z"/>
<path class="st0" d="M26.08,92.93c-0.67,0-1.33,0-2,0c0.22-1.22,1.18-0.96,1.99-1C26.08,92.26,26.08,92.6,26.08,92.93z"/>
</svg>
