<?xml version="1.0" encoding="utf-8"?>
<!-- Generator: Adobe Illustrator 25.1.0, SVG Export Plug-In . SVG Version: 6.00 Build 0)  -->
<svg version="1.1" id="Camada_1" xmlns="http://www.w3.org/2000/svg" xmlns:xlink="http://www.w3.org/1999/xlink" x="0px" y="0px"
	 viewBox="0 0 265.1 218.9" style="enable-background:new 0 0 265.1 218.9;" xml:space="preserve">
<path d="M133.6,206.6c-0.2,0.4-0.4,0.9-1,0.7c-0.4-0.1-0.9-0.4-0.7-1c0.1-0.4,0.4-0.9,1-0.7C133.3,205.7,133.7,206,133.6,206.6z"/>
<path d="M4.5,136.4c0.3-0.7,0.8-0.7,1.3-0.2C5.5,136.8,5,136.9,4.5,136.4z"/>
<path d="M5.5,140.1c0.7,0.3,0.7,0.8,0.2,1.3C5.1,141.1,5,140.6,5.5,140.1z"/>
<g>
	<path d="M262.3,152.8c-3-0.1-6-0.5-8.9-0.3c-2.2,0.1-4.1-0.3-6.2-1.1c-4.2-1.6-8.5-3.1-13.3-1.6c-3.1,1-5.4,3-7.9,4.8
		c-7,5.1-14.2,9.6-22.5,12.1c-1.7,0.5-3.5,1.6-5.2,1.4c-5.2-0.7-10.5-0.1-15.6-2c-2.9-1-6-1.6-9-2.4c-3-0.8-6.4-0.1-9.7-0.1
		c-1.2,0-2.3,0.1-3.4,0.6c-8.3,3.7-16.8,7-23.2,13.9c-1.2,1.3-2.6,2.3-4.2,2.5c-7.7,0.8-15.3,0.2-21.3-5.2c-7.5-6.7-16.1-7-25.1-5.1
		c-6.9,1.5-13.6,3.5-20.9,1.7c-0.5-0.6-1.3-1.3-1.8-2.2c-1.9-3.6-3.6-7.3-5.1-11.1c-1.1-2.7-2.2-5.5-4.9-7.2c-0.3,0.8-0.8,1.4-1.8,1
		c0.3-1.2,1.3-0.6,1.8-1l0,0c-2.4-3.4-5.8-5-9.9-5.9c-6-1.3-12-1.9-18-2c-2.6-0.1-4.5-1-5.8-3.2c-1.6-2.8-2.4-6.1-2.2-8.9
		c0.4-5.2,1-10.5,3.6-15.2c1-1.7,1.6-3.6,2.4-5.4c0,0,0,0,0,0c0,0,0,0,0,0c-1.3-0.1-1.7,1.4-3.1,1.8c0-2.8,2.5-2.8,3.9-3.8
		c0,0,0,0,0,0c0,0,0,0,0,0c1.2-3.5,2.7-7,2.1-10.9c0,0,0,0,0,0c0,0,0,0,0,0c-1.4-0.6-1.6-1.3-0.1-2c0,0,0,0,0,0c0,0,0,0,0,0
		c0-0.3,0-0.6-0.1-0.9c0,0,0,0,0,0c0,0,0,0,0,0c-0.3,0-0.6-0.1-0.9-0.1h-0.5h-0.5c-0.3-0.7-0.7-1.3-1-2c0,0,0,0,0,0s0,0,0,0
		c0,0,0,0,0,0c-0.5,0-0.9-0.1-1.5-0.1c-0.4-2,2.3-1.4,2.5-2.9c1.3-0.2,0.9-1.3,1-2.1c-0.2-3.8-2.6-6.7-4-10c-2.2-4.9-4-9.7-2.2-15.5
		c1.3-4.4,3.1-8.6,4.2-13.1c0.6-2.5,2.4-4.7,4.3-6.5c0.9-0.8,2.6-0.8,2.8-2.4c3,0.5,5.2-1.2,7.6-2.7c0.7-0.4,0-1.7,1-1.8
		c3.2,0,4.5-2.6,6.2-4.6c0,0,0,0,0,0c0,0,0,0,0,0c-0.1-0.6-0.4-0.9-1-1c-0.2,0.4-0.4,1.1-0.8,0.4c-0.4-0.7,0-1.2,0.8-1.4
		c0,0,0,0,0,0c2-0.4,2.8-2.5,4.7-3.3c-0.2-0.6-0.4-1.1-0.7-1.7c0,0,0,0,0,0c-0.8,0-1.8,0.2-2-1c0,0,0,0,0,0c0,0,0,0,0,0
		c0-0.3,0-0.7,0-1c-0.6-0.1-0.9-0.4-1-1c0-0.4,0-0.8-0.1-1.2c0,0,0,0,0,0c-2.5,2.3-5,4.7-7.6,7c-2.4,2.2-6.1,3-6.8,6.3
		c-5.9,0.8-10.5,3.1-13.7,7.8c0.8-0.3,1.7-0.6,2.6-0.9c-0.9,1.5-0.9,1.5-4.3,2.9c0,0,0,0,0,0c-1.4,2.5-2.6,5-2.9,7.9
		c0.3,0.7,0.9,1.4-0.4,1.8c-0.8,0.2-1.8,0.4-1.5,1.5c0.3,1,0.4,1.7-0.3,2.7c-1.8,2.8-1.1,6-0.2,8.7c1.5,4.4,1.6,8.9,2.4,13.3
		c0,0,0,0,0,0c1,0.4,0.8,1.2,0.8,2c0,0,0,0,0,0c1.6,3.6,3.2,7.3,3.8,11.2c0.5,2.9-0.9,5.8-0.1,8.8c0.3,1.1-0.8,2.5-2.6,3
		c-3,0.8-5.1,3-6.6,5.7c-1.9,3.6-3.9,7.3-5.7,11c-2.3,4.5-3.4,9.3-2.8,14.4c0.1,1.1,0,2.3,0,3.5c0.3,8.3,2.2,16.3,6.3,23.6
		c2.2,4,5.5,7.3,9.8,8.7c5.9,2,12,3.8,18.4,1.5c3.7-1.4,6.9-0.1,9.6,2.3c1.2,1.1,1.9,2.7,2.8,4c3.9,5.5,7.2,11.3,11.7,16.5
		c5.6,6.4,11.4,8,19.2,4.8c4.8-2,10.2-2.5,15-1.5c4.2,0.8,7.7,4.4,10.9,7.5c0.1,0.1,0.2,0.2,0.4,0.4c7.4,6.8,15.8,11.3,25.9,12.5
		c7.7,0.9,14.4-1,19.1-7.7c2.3-3.2,5.8-5.5,7-9.5c0.3-0.8,1.4-1.4,2.2-2c2.8-2.1,5.7-3.9,8.8-5.5c7.9-4.2,15.9-4.8,24.3-1.7
		c6.2,2.3,12.2,5,18.9,5.6c8.7,0.8,14.2-2.6,17.5-9.9c1.3-3,2.5-6.1,3.2-9.3c1.4-6.8,6.1-10.4,11.8-13.1c4.5-2.1,9.3-3.5,13.6-5.7
		c3.1-1.5,6.8-2.5,8.6-5.8C264.3,152.9,263.3,152.8,262.3,152.8z M25.1,94.9c0,0.6,0.1,1.3-0.5,1.8C23.8,95.8,24.1,95.3,25.1,94.9z
		 M25.1,89.9c-1.3,0.1-2.2-0.3-2.8-1.7C24,87.7,25.2,87.7,25.1,89.9z M42.5,25.4c0.5,0.5,0.5,1,0,1.5C42,26.4,42,25.9,42.5,25.4z
		 M35.4,34.5c0.7,0.3,0.7,0.8,0.2,1.3C35,35.5,34.9,35.1,35.4,34.5z M31.2,36c0.1-0.5,0.4-0.9,1-0.7c0.5,0.1,0.9,0.4,0.7,1
		c-0.2,0.4-0.5,0.9-1,0.7C31.5,36.9,31,36.6,31.2,36z M29.7,38.4c0.5-0.3,1-0.1,1.2,0.4c0.2,0.4,0.2,0.9,0.3,1.4c0,0,0,0,0,0l0,0
		c0,0,0,0,0,0c-0.5-0.1-1,0-1.4-0.2C29.1,39.6,29,38.9,29.7,38.4z M27.8,36.5c-0.3,0.8-0.8,0.7-1.4,0.4C26.7,36,27.2,36.2,27.8,36.5
		z M25.5,41.5c0.1-0.1,0.3-0.1,0.3,0c0.7,0.6,0.3,1-0.2,1.4C25.2,42.5,24.7,42,25.5,41.5z M8,148.5c-0.4-0.1-0.9-0.4-0.7-1
		c0.1-0.5,0.4-0.8,1-0.7c0.4,0.2,0.9,0.4,0.7,1C8.8,148.3,8.5,148.7,8,148.5z M8.4,157.2c0.5-0.6,1-0.5,1.5,0
		C9.4,157.7,8.9,157.7,8.4,157.2z M23.3,152.5c0.1-0.4,0.4-0.9,1-0.7c0.4,0.1,0.9,0.4,0.6,1.3c-0.1,0.2-0.3,0.6-0.9,0.4
		C23.5,153.4,23.1,153.1,23.3,152.5z M21.8,85.4c-0.4,0.7-0.8,0.7-1.3,0.2C20.8,84.9,21.2,84.8,21.8,85.4z M21.1,102.1
		c0.5-0.1,0.9,0.3,0.9,0.9c-0.1,1.1-1.1,0.9-1.8,1C20.2,103.1,19.9,102.2,21.1,102.1z M21.8,105.3c-0.5,1-1.3,1.8-2.5,2.3
		c0-1.4-1.2-2.8,0.8-3.8C20.2,104.9,21.3,104.7,21.8,105.3z M19.8,87.5c-0.5,0.5-1,0.5-1.5,0C18.9,86.9,19.4,86.9,19.8,87.5z
		 M18.9,58.6c-0.5,0.6-1,0.5-1.5,0C17.9,58,18.4,58,18.9,58.6z M16,47.2c0.6-0.2,0.8,0.3,1,0.7c0.1,0.6-0.3,0.9-0.7,1
		c-0.6,0.2-0.9-0.3-1-0.7C15.1,47.6,15.6,47.4,16,47.2z M17,52.2c0,0.2-0.3,0.3-0.5,0.5c-0.5-0.4-0.5-0.9-0.1-1.2
		C17.1,51.2,17.1,51.9,17,52.2z M13.2,60.6c1.4-0.9,2.7-0.4,3.9-0.5c0,0,0,0,0,0c0,0,0,0,0,0c1.3,0.6,1.4,1.2,0,1.9
		C15.9,61.5,14.6,61.1,13.2,60.6z M15.6,70.8c-0.3-1,0.5-1.2,1.2-1.6c0.4,0.5,0.8,0.9,1.2,1.4C17.1,71.1,16.4,71.2,15.6,70.8z
		 M18,82.1c0,0.2-0.3,0.3-0.5,0.5c-0.5-0.4-0.5-0.9-0.1-1.2C18.1,81.1,18.1,81.7,18,82.1z M17.2,76.4c1.8-0.6,1.7,0.3,1.9,1.2
		C17.9,77.6,17.7,76.9,17.2,76.4z M12.6,152c0.4,0.7-0.3,0.7-0.7,0.6c-0.2,0-0.3-0.3-0.5-0.5C11.8,151.6,12.4,151.6,12.6,152z
		 M11.2,158.8c-0.2-0.6,0.3-0.8,0.7-1c0.6-0.2,0.8,0.3,1,0.7c0.1,0.6-0.3,0.9-0.8,1C11.7,159.7,11.4,159.2,11.2,158.8z M13.9,167.2
		c-0.8-0.1-1.3-0.4-1.3-1.3C13.9,165.5,14.2,166,13.9,167.2z M14.2,163.5c-0.6,0.1-0.8-0.3-0.9-0.7c-0.2-0.6,0.3-0.9,0.7-1
		c0.6-0.2,0.8,0.3,1,0.7C15.1,163.1,14.7,163.4,14.2,163.5z M13.4,124c2.3-0.2,1.5,1.8,2.2,2.4C13.8,126.4,13.1,125.6,13.4,124z
		 M16.3,120c-0.2-0.6,0.3-0.9,0.7-1c0.6-0.2,0.9,0.3,1,0.7c0.2,0.6-0.3,0.8-0.7,1C16.7,120.8,16.4,120.4,16.3,120z M17.8,152.6
		c-1.2-0.9-0.3-1.5,0-2.2c0.2-0.5-0.9-1,0.1-1.6c1.7,0,1.3,2.4,3,2.4C19.9,152.2,18.3,151,17.8,152.6z M21.7,156.9
		c-0.1,0.8-0.5,1.3-1.4,1.3C20,156.9,20.5,156.6,21.7,156.9z M18.7,164.2c0.9-0.8,1.4-1.2,1.8-1.4c1.4-0.1,1.9,0.6,2.3,1.6
		C21.8,164.9,20.7,164.7,18.7,164.2z M22.9,145.8c-0.1,0.4-0.4,0.9-1,0.7c-0.4-0.1-0.9-0.4-0.7-1c0.1-0.5,0.4-0.8,1-0.7
		C22.6,145,23.1,145.3,22.9,145.8z M24.2,157.5c-0.6,0.2-0.8-0.3-1-0.7c-0.2-0.6,0.3-0.8,0.7-1c0.6-0.1,0.8,0.3,1,0.7
		C25.1,157.1,24.6,157.4,24.2,157.5z M30.7,154.4c-0.7-0.3-0.7-0.8-0.2-1.3C31.1,153.4,31.2,153.8,30.7,154.4z M27,150.3
		c0.7-2.2,2.3-1.9,3.8-1.9C30,149.8,28.9,150.7,27,150.3z M28,161.1c0.4-1.7,1.5-2.4,2.6-3.1c0.8,1,0.5,2.1,0.3,3.1
		C29.9,161.1,29,161.1,28,161.1z M30.9,165.5c-0.2,0-0.3-0.3-0.5-0.5c0.4-0.5,0.9-0.5,1.2-0.1C31.9,165.6,31.3,165.6,30.9,165.5z
		 M32.4,149.1c0.7,0.1,1,0.5,1.5,1.3C32.2,150.8,31.9,150.3,32.4,149.1z M32.7,156.1c1.3-2,3-1,4-1.9
		C36.3,156.3,35.3,157.2,32.7,156.1z M36.9,151.6c-0.2,0-0.3-0.3-0.5-0.5c0.4-0.5,0.9-0.5,1.1-0.1C37.9,151.7,37.3,151.7,36.9,151.6
		z M47.3,151.2c0.5-0.5,1-0.6,1.5,0C48.2,151.8,47.7,151.8,47.3,151.2z M54.5,158.4c-0.4-0.7,0.3-0.7,0.7-0.6c0.2,0,0.3,0.3,0.5,0.5
		C55.3,158.7,54.7,158.8,54.5,158.4z M65.6,176.1c-0.7,0.4-0.7-0.3-0.6-0.7c0-0.2,0.3-0.3,0.5-0.5C66,175.3,66,175.9,65.6,176.1z
		 M70.4,190.3c-0.2-0.9,0.5-1.2,1.1-1.6C72.1,189.9,72,190.5,70.4,190.3z M71.2,199c0.5-0.5,1-0.6,1.5,0
		C72.2,199.6,71.7,199.6,71.2,199z M75.9,193.5C75.9,193.5,75.9,193.5,75.9,193.5C75.9,193.5,75.9,193.5,75.9,193.5
		C75.9,193.5,75.9,193.5,75.9,193.5C75.9,193.5,75.9,193.5,75.9,193.5c-1.3-0.2-2.9,0.5-4.2-0.9c1.3-1.1,2.2,0.4,3.2,0
		c0.3-0.3,0.6-0.9,0.9-0.9c0.8-0.1,1.8-0.3,1.9,0.9C77.7,193.7,76.7,193.4,75.9,193.5z M75.1,189.2c0.5-0.9,0.9-1.8,1.3-2.5
		c0.9-0.2,1.3,0.1,1.5,0.8v0l0,0c0.6,0.1,0.9,0.4,1,1C78,190.5,76.5,189.4,75.1,189.2z M79,175.5c-0.6,0.2-0.8-0.3-1-0.7
		c-0.2-0.6,0.3-0.8,0.7-1c0.6-0.1,0.8,0.3,1,0.7C79.9,175.1,79.4,175.3,79,175.5z M89.7,188.7c-0.1,0.4-0.4,0.8-1,0.7
		c-0.5-0.1-0.9-0.4-0.7-1c0.1-0.4,0.4-0.9,1-0.7C89.5,187.9,90,188.1,89.7,188.7z M89,174.3c0.9-1.2,1.5-2.3,2.7-1
		C91.5,175.1,90.4,174.7,89,174.3z M92.1,187c0.5-0.6,1-0.5,1.5,0C93.1,187.6,92.6,187.6,92.1,187z M117.6,196.4
		c0.1,0.6-0.3,0.8-0.7,1c-0.6,0.2-0.9-0.3-1-0.7c-0.2-0.6,0.3-0.9,0.7-1C117.2,195.5,117.4,195.9,117.6,196.4z M116.6,182.9
		c-0.4,0.8-0.8,1.3-1.4,1.4C114.6,183.1,114.7,182.4,116.6,182.9z M99.3,178.4c-0.6-0.5-0.5-1,0-1.5
		C99.9,177.4,99.9,177.9,99.3,178.4z M101.2,178.4c-0.6-1.1-0.4-1.7,1.1-1.6C102.5,177.7,101.8,178,101.2,178.4z M102.8,174.9
		c0.7-2,1.8-0.9,2.6-1.1C104.8,174.9,104.4,176.2,102.8,174.9z M112.4,183.2c-0.7-0.4-0.7-0.8-0.2-1.3
		C112.9,182.3,112.9,182.7,112.4,183.2z M113.3,193.8c0.6,0.5,0.6,1,0,1.5C112.7,194.8,112.7,194.3,113.3,193.8z M115.7,202.3
		c-0.4-1.3-1.8-0.4-2.7-1.3c0.4-0.9,0.8-1.5,1.4-2.6c1.7,1.5,3.5,2.5,4,4.8C117.2,203.7,116.2,203.8,115.7,202.3z M123.2,204.2
		c-0.4,0.3-1,0.1-1.2-0.3c-0.2-0.4-0.2-0.9-0.2-1.4c-0.5,0.2-1.1,0.5-1.7,0.7c-0.7-1.4,0.3-1.9,1.2-2.5c0.6,0.5,0.4,1.1,0.5,1.7
		c0.5,0.1,1,0,1.4,0.2C123.7,203.1,123.8,203.7,123.2,204.2z M123.6,197.4c-0.2,0-0.3-0.3-0.5-0.5c0.4-0.5,0.9-0.5,1.1-0.1
		C124.6,197.5,124,197.5,123.6,197.4z M123,190c0.5-0.5,1-0.5,1.5,0C124,190.6,123.5,190.6,123,190z M127.9,187.4
		c-0.6,0.2-0.9-0.3-1-0.7c-0.2-0.6,0.3-0.9,0.7-1c0.6-0.2,0.8,0.3,1,0.8C128.8,187,128.3,187.3,127.9,187.4z M129.9,200.3
		c-0.6,0.2-0.9-0.3-1-0.7c-0.2-0.6,0.3-0.9,0.7-1c0.6-0.2,0.8,0.3,1,0.7C130.7,199.9,130.3,200.2,129.9,200.3z M137.8,196.3
		c-0.6,0.2-0.8-0.3-1-0.7c-0.2-0.6,0.3-0.9,0.7-1c0.6-0.2,0.8,0.3,1,0.7C138.7,195.9,138.3,196.2,137.8,196.3z M142,176.1
		c0.7-0.4,0.7,0.3,0.6,0.7c0,0.2-0.3,0.3-0.5,0.5C141.6,176.9,141.6,176.3,142,176.1z M143.3,186.2c-0.7-0.3-0.7-0.8-0.2-1.3
		C143.8,185.2,143.8,185.7,143.3,186.2z M142.7,180.6c0.2,0.5,0.5,1.1,0.7,1.7C141.7,181.9,141.7,181.9,142.7,180.6
		c0-0.6-0.1-1.3,0.5-1.8C144,179.7,143.7,180.2,142.7,180.6z M146.3,197.2c-0.7-0.3-0.7-0.8-0.2-1.3
		C146.8,196.2,146.8,196.6,146.3,197.2z M144.9,192c1.2-0.7,2.4-0.7,3.6,0C147.2,192.7,146.1,192.8,144.9,192z M158.5,175.8
		c-0.1,0.4-0.4,0.9-1,0.7c-0.4-0.1-0.9-0.4-0.7-1c0.1-0.4,0.4-0.9,1-0.7C158.2,174.9,158.7,175.1,158.5,175.8z M161.5,193.7
		c0,0.2-0.3,0.3-0.5,0.5c-0.5-0.4-0.5-0.9-0.1-1.1C161.6,192.7,161.6,193.3,161.5,193.7z M162,169.4c-0.4,0.2-0.9,0.1-1.4,0.2
		c0,0.5-0.1,1-0.2,1.5c-1.3,0.5-2.6,1-3.9-0.5c1.2-1.7,2.8-0.8,4.1-1.1c0.1-0.5,0-1,0.2-1.4c0.4-0.6,1-0.7,1.5,0
		C162.7,168.7,162.4,169.2,162,169.4z M164.8,192.4c-0.6,0.2-0.9-0.3-1-0.7c-0.2-0.6,0.3-0.9,0.7-1c0.6-0.2,0.8,0.3,1,0.8
		C165.6,192,165.2,192.2,164.8,192.4z M166.9,188c0.5-0.5,1-0.6,1.5,0C167.8,188.6,167.3,188.6,166.9,188z M169.7,187.4
		c1.1-1.7,1.1-1.7,3.9-1.5C172.3,186.5,171.5,187.5,169.7,187.4z M184.5,169.8c0,0.2-0.3,0.3-0.5,0.5c-0.5-0.4-0.5-0.9-0.1-1.2
		C184.5,168.8,184.5,169.4,184.5,169.8z M186.4,179.7c-0.2,0.4-0.4,0.9-1,0.7c-0.5-0.1-0.9-0.4-0.7-1c0.1-0.4,0.4-0.9,1-0.7
		C186.1,178.9,186.6,179.1,186.4,179.7z M191.8,175.5c-0.2,0.1-0.5-0.1-0.9-0.2c0-0.8,0.6-1.5,1.3-1.2
		C192.9,174.4,192.4,175.2,191.8,175.5z M191.8,172.1c0.5-0.6,1-0.5,1.5,0C192.8,172.7,192.3,172.7,191.8,172.1z M195.7,187.4
		c-0.6,0.1-0.9-0.3-1-0.7c-0.2-0.6,0.3-0.9,0.7-1c0.6-0.2,0.8,0.3,1,0.7C196.5,187,196.1,187.3,195.7,187.4z M196.9,169.3
		c0.7,0.7,1.2,1.2,1.9,1.9C196.9,171.7,196.5,171.2,196.9,169.3z M202.3,186.7c-0.1,0.4-0.4,0.9-1,0.7c-0.4-0.1-0.9-0.4-0.7-1
		c0.1-0.4,0.4-0.9,1.3-0.6C202,185.9,202.5,186.1,202.3,186.7z M206.7,171.7c-0.2-0.6,0.3-0.9,0.7-1c0.6-0.2,0.8,0.3,1,0.8
		c0.1,0.6-0.3,0.8-0.7,1C207,172.6,206.8,172.2,206.7,171.7z M207.9,181.3c-0.8-0.9-0.5-1.4,0.5-1.7
		C208.4,180.2,208.6,180.9,207.9,181.3z M207.8,167.2c0.3-0.7,0.8-0.7,1.3-0.2C208.8,167.7,208.4,167.8,207.8,167.2z M209.5,177.6
		c1.1,1,1.7,2.1,1.8,3.6C208.7,180.3,208.4,179.7,209.5,177.6z M215.6,177.2c0.2-0.1,0.3-0.1,0.4-0.2c0.3,1.2,2.2,2,0.6,3.8
		C215,179.5,215.4,178.3,215.6,177.2z M216.7,188.5c-0.4-1.9,0.9-2.7,1.5-3.9c0.9,0,1.7-0.3,2.3,1.1
		C219.6,186.8,218.9,188.3,216.7,188.5z M221.8,173.2c0.3-0.7,0.8-0.7,1.3-0.2C222.8,173.7,222.3,173.7,221.8,173.2z M236.7,156.7
		c-1.9-0.8-3.7-1.2-4.5-3.5c1.7-0.4,2.1,1.2,3.2,1.4c1.3,0.3,2.2-1.3,3.8-0.8C239.1,156.3,237,155.4,236.7,156.7z M238.7,151.4
		c0.4-0.8,0.8-0.7,1.4-0.3C239.7,151.8,239.3,151.7,238.7,151.4z M252.6,154.2c0.5-0.5,1-0.5,1.5,0
		C253.5,154.7,253,154.8,252.6,154.2z"/>
	<polygon points="220.2,127.8 220.2,127.8 220.2,127.8 	"/>
	<path d="M246.3,60.1C246.3,60.1,246.3,60.1,246.3,60.1c-0.2,1.2-1.2,1-2,1c-0.7,0.3-1.3,0.7-2,1c0,0,0,0,0,0c0,0,0,0,0,0
		c-0.8,2.8,1.3,5.3,0.9,8.1c0,0,0,0,0,0c0,0,0,0,0,0c-0.2,0.5-0.6,1-0.4,1.4c1.5,3.7,0.8,7.3-0.4,10.9c-1.1,3.4-2.7,6.2-6.8,6.8
		c-2.4,0.4-4.6,1.5-7.1,1.8c-2.8,0.4-5.4,1.7-7.6,3.3c-2.7,1.9-4.2,4.9-5.8,7.8c-1.3,2.3,0.3,4.1,0.4,6.1c-3.5,3.8-3.5,3.8-10,5.9
		c0,0,0,0-0.1,0c0,0,0,0,0.1,0c-0.1,0.4-0.2,0.9-0.3,1.4c-1.4,0.8-2.8-1.6-4.4,0.1c-0.7,0.7-1.9-0.6-2.4-1.7c0,0,0,0,0,0
		c0,0,0,0,0,0c-7.2-1.2-13.2,1.7-18.7,5.9c-2,1.5-3.8,3.2-5.7,4.8c-1.8,1.4-4,2.2-6,1.6c-3.6-1-7.3-1.6-10.9-3.2
		c-5.6-2.6-11.7-3.6-17.8-2.8c-8,1-11.9,3.5-18.7,10.1c-2.3,2.3-4.9,2.9-8.1,2c-3.7-1.1-6.3-3.5-8.9-6c-2.1-2-4.4-3.5-7.2-4.1
		c-3.7-0.9-7.4-1.8-11.1-2.5c-3.6-0.7-7-2.1-10.6-2.6c-3.6-0.5-6.3-2.8-9.8-3.5c-1.8-0.4-3-2-3.9-3.6c-1.8-3.2-2.6-6.5-2.9-10.2
		c-0.5-7.8,0.5-15,6.6-20.6c1.2-1.1,2.4-2.3,3.6-3.5c1.3-1.3,2.6-2.7,3-4.5c0.7-3.3,2.4-6.2,3.1-9.4c0.6-2.5,1.8-4.2,3.7-5.7
		c1-0.8,1.9-1.8,2.9-2.7c2.9-2.7,6.3-3.9,10.2-3.6c1.3,0.1,2.8,0.3,3.9-0.3c1.8-1,3.5-0.5,5.3-0.4c0,0,0.1,0,0.1,0
		c0.6-0.1,1.2-0.2,1.8-0.3c-0.2-0.6-0.3-1-0.4-1.4c1.8-0.8,1.5,1.4,2.5,1.8c2.7,0,5.5,0,8.2,0c0.1,0,0.1,0,0.2,0
		c2.2-0.1,4.1-0.7,5.9-2.2c5.2-4.3,11.3-6.3,18-6.8c4.3-0.4,8.4,1.6,12.7,1c0,0,0,0,0,0c0-0.9-1.4-1.3-0.7-2.9
		c1.2,0.7,2.1,2.3,3.7,1.9c0,0,0,0,0,0c1.8-0.6,3.8-1,5.4-2c2.1-1.2,4.1-1.4,6.4-1.1c0,0,0,0,0,0c0.2-1.5-0.8-2.4-1.8-3.3
		c0.6-0.5,1-0.9,1.7-1.5c0,0,0,0,0,0c-2.1-0.2-3.9-0.2-5.8,0.2c-1.6,0.3-3.4-0.2-5.2-0.4c0,0,0,0,0,0c0,0,0,0,0,0
		c-5,2-10,2.3-15.4,2c-8.8-0.5-17.1,1.7-24.4,6.8c0,1,1.3,1.4,0.8,2.9c-1-0.6-1.9-1.2-2.9-1.8c0,0,0,0,0,0c0,0,0,0,0,0
		c-3.7-0.5-7.4-0.1-11.1-1c-3-0.7-6.5-1.4-9.7-0.1c0,0,0,0,0,0c0,0.6,0.3,1.3-0.3,1.8c0,0,0,0,0,0c0,0,0,0,0,0.1c0,0,0,0,0-0.1
		c-1-0.3-0.4-1.2-0.5-1.8l0,0c-9.2-0.5-15.6,4.3-21.1,11.1c0.2,1.3-0.2,2.2-1.7,2.1l0,0c-1.4,1.7-1.6,3.9-2.2,5.9
		c-2,6.3-4.2,12.3-9.5,17c-4,3.5-6.5,8.5-7.1,13.8c-0.5,4.6-1.1,9.3-0.7,14.1c0.7,7.3,3.3,12.9,9.3,17c2.9,2,6.4,3.3,8.6,6.4
		c0.3,0.4,0.8,0.6,1.3,0.7c4.4,0.5,8,2.9,11.6,5c0,0.1,0,0.1,0.1,0.1c0,0,0-0.1-0.1-0.1c1.2,0,2.7-0.9,3.4,1.5
		c-1-0.3-1.7-0.5-2.4-0.6c0,0,0,0,0,0c0,0,0,0,0,0c0.5,1.3,1,2.6,1.5,3.8c0,0,0,0,0,0c0,0,0,0,0,0c0.6,0.1,1.4,0,1.9,0.2
		c1.3,0.7,1,1.4-0.2,1.9c0,0,0,0,0,0c0,0,0,0,0,0c0.1,0.5,0.1,1.1,0.4,1.4c4,3.7,8.4,6.8,13.9,7.7c2,0.3,3.9,0.7,5.7,1.4
		c3.4,1.1,6.5,0.7,9.5-1.2c1.2-0.8,2.4-1.7,3.9-2.1c7.5-2.1,14-5.9,19.8-11.1c4.9-4.5,11.1-5.1,16.3-1c4.1,3.2,9.3,4.3,13.8,6.8
		c3.4,1.8,7.2,1.4,11,1.4c3.6,0,6.4-1.5,8.5-4.2c2-2.6,4.5-4.8,6.9-7c2.1-1.8,4.3-2.3,6.9-1.9c2.9,0.5,5.8,0.7,8.5-0.6
		c1.5-0.7,2.9,0,4.4-0.3c0.5,0.2,0.9,0.3,1.3,0.3c-0.4-0.1-0.9-0.2-1.3-0.3c0.8-0.1,2.2,0.1,2.4-0.3c1.3-2.5,3.6-1.7,5.6-1.8
		c0.2-0.3,0.3-0.6,0.4-0.9c0,0,0,0,0,0c-0.5,0-1-0.1-2-0.2c1-1.2,3-1.8,2-3.7c1.4,1.2,0.7,2.6,0.9,3.7l0,0c0,0,0,0,0,0
		c1.7-0.4,1.5-2.5,3-3.1c0,0,0,0,0,0c0,0,0,0,0,0c0-0.8-0.1-1.6,0.9-1.8c0.2-0.3,0.2-0.5,0.2-0.9l0,0c0,0,0,0,0,0
		c-0.4,0-0.7-0.1-1.1-0.1c-1.4-0.7-1.5-1.3,0-2c1.3,0.2,0.9,1.3,1.1,2.1c0,0,0,0,0.1,0c1.8-0.8,1.5-2.6,2-4.1
		c2-6,5.8-10.2,12.1-11.7c5.5-1.3,10.4-5.3,12.7-11.2c0,0,0,0,0,0c-0.5,0-1-0.1-1.8-0.1c1-1.1,1.8-2,2.6-2.9c0,0,0,0,0,0
		c0.1-2.3,0.6-4.5,1.3-6.7c1-3,1.8-6.4,0.9-9.6c-1.2-4.4-2-8.9-5-12.6l0,0c-0.9,0-1.9,0.3-2.7-0.4c-0.6-0.8-0.2-1.8-0.2-2.7l0,0
		c0,0,0,0,0,0C246.8,59.1,246.4,59.4,246.3,60.1z M154.2,35.5c0.4,0.7-0.3,0.7-0.7,0.6c-0.2,0-0.3-0.3-0.5-0.5
		C153.4,35.1,153.9,35.1,154.2,35.5z M133.9,35.3c0.2,0,0.3,0.3,0.5,0.5c-0.4,0.5-1,0.5-1.2,0.1C132.9,35.1,133.6,35.3,133.9,35.3z
		 M130.5,37.7c-0.5,0.6-1,0.6-1.5,0C129.5,37.1,130,37.1,130.5,37.7z M125,39.6c0.9-0.1,1.2,0.4,1.4,1.1
		C125.2,41.3,124.6,41.1,125,39.6z M119.7,42.3c0.6-0.2,0.8,0.3,1,0.7c0.2,0.6-0.3,0.8-0.8,1c-0.6,0.1-0.8-0.3-1-0.7
		C118.8,42.7,119.2,42.4,119.7,42.3z M117.4,41.4c-0.1,0.8-0.4,1.3-1.3,1.3C115.6,41.4,116.1,41,117.4,41.4z M108.4,43.4
		c0.4-0.3,1-0.1,1.2,0.3c0.2,0.4,0.1,0.9,0.2,1.4c0.6,0,1.3-0.2,1.8,0.5c-0.9,0.8-1.4,0.5-1.8-0.5c-0.5-0.1-1,0-1.4-0.2
		C107.8,44.5,107.7,43.9,108.4,43.4z M102.4,44.4c0.1,0.9-0.5,1.2-1.2,1.4C100.7,44.6,100.9,44,102.4,44.4z M97.4,43.4
		c0.6,0.5,0.6,1,0,1.5C96.8,44.4,96.8,43.8,97.4,43.4z M93.1,44.2c0.5,0.3,0.7,0.7,0.6,1.4C93,46,92.2,46.4,90.9,47
		C91,45.2,91.7,44.5,93.1,44.2z M87.3,45.4c1,0.7,0.6,1.5,0.1,2.5C86.7,46.9,86.7,46.2,87.3,45.4z M80.1,51.2c0.2,0,0.3,0.3,0.5,0.5
		c-0.4,0.5-0.9,0.5-1.1,0.1C79,51.1,79.7,51.1,80.1,51.2z M77.2,53.6c-1.2,1.6-2.4,2.2-4,1.8C74,53.9,75.1,53,77.2,53.6z M70.1,61.7
		c0.4-0.6,1-0.7,1.5,0c0.3,0.4,0.1,1-0.3,1.2c-0.4,0.2-0.9,0.2-1.4,0.2c-0.1,0.5,0,1-0.2,1.4c-0.4,0.6-1,0.7-1.5,0
		c-0.3-0.4-0.1-1,0.3-1.2c0.4-0.2,0.9-0.1,1.4-0.2C70,62.6,69.9,62,70.1,61.7z M68.8,55.2c0.6-0.1,0.8,0.3,1,0.7
		c0.1,0.6-0.3,0.9-0.7,1c-0.6,0.2-0.8-0.3-1-0.7C67.9,55.6,68.3,55.3,68.8,55.2z M68.8,60.3c-0.1,0.6,0,1.1-0.1,1.2
		c-0.8,0.4-1.4,1.2-2.7,1C66.3,60.9,67,60.1,68.8,60.3z M65.1,67.1c0.2,0,0.3,0.3,0.5,0.5c-0.4,0.5-0.9,0.5-1.1,0.1
		C64.1,67.1,64.7,67.1,65.1,67.1z M54.8,86.5c-0.5,0.6-1,0.6-1.5,0C53.8,85.9,54.3,85.9,54.8,86.5z M50.4,92.3
		c0.7,0.3,0.7,0.8,0.2,1.3C49.9,93.2,49.9,92.8,50.4,92.3z M49.5,100.6c-0.5-0.5-0.5-1,0-1.5C50.1,99.7,50.1,100.2,49.5,100.6z
		 M51.2,112.3c0.5-0.6,1-0.5,1.5,0C52.2,112.9,51.7,112.9,51.2,112.3z M55.2,116.3c0.5-0.6,1-0.6,1.5,0
		C56.2,116.9,55.7,116.9,55.2,116.3z M55.9,105.7c-1.1-0.1-0.9-1.1-1-1.8c-0.7,0-1.3,0-2,0c0.2,1.5-0.2,2.8-1,4c1.5,0.7,1.5,1.3,0,2
		c-1.4,0.1-2.3-0.4-1.9-1.9c0.3-1.3,1-2.6,1.4-3.9c0.5-0.1,1-0.1,1.5-0.2c0,0,0,0,0,0c0.1-0.8-0.2-1.8,1-1.8c1.2,0,0.9,1.1,1,1.8
		c0.7,0.1,1.7-0.2,1.8,1C56.9,105.4,56.5,105.8,55.9,105.7z M56.7,77.6c0.7-0.7,1.2-1.2,1.9-1.9C59,77.6,58.6,78,56.7,77.6z
		 M62,121.7c-0.6,0.2-0.8-0.3-1-0.7c-0.2-0.6,0.3-0.8,0.7-1c0.6-0.1,0.9,0.3,1,0.7C62.9,121.3,62.5,121.5,62,121.7z M62.4,115.9
		c2.4,0.1,3.8-0.5,4.8,1.5C64.8,117.1,64.8,117.1,62.4,115.9z M68.8,124.9c-0.2,0.4-0.4,0.9-1,0.7c-0.4-0.1-0.9-0.4-0.7-1
		c0.1-0.4,0.4-0.9,1-0.7C68.5,124.1,68.9,124.3,68.8,124.9z M83.9,133.8c1.1,0.5,1.5,0.9,1.7,1.6C84.3,136,84,135.4,83.9,133.8z
		 M88.1,123.4c1.2-0.8,2.3-0.7,3.5-0.1C90.4,124.1,89.3,124,88.1,123.4z M90.5,145.4c0.7-0.8,1.2-1.2,1.9-2
		C93,145.4,92.4,145.7,90.5,145.4z M95.8,128.9c0,0.2-0.3,0.3-0.5,0.5c-0.5-0.4-0.5-0.9-0.1-1.1C95.8,127.9,95.8,128.6,95.8,128.9z
		 M99.7,128.7c-0.3-1.3,0.2-2.5,0-3.8C101.2,126.3,101,127.6,99.7,128.7z M101.3,131.5c-0.5-0.5-0.6-1,0-1.5
		C101.9,130.5,101.9,131.1,101.3,131.5z M103.9,134.6c-0.6,0.2-0.8-0.3-1-0.7c-0.2-0.6,0.3-0.9,0.7-1c0.6-0.2,0.8,0.3,1,0.7
		C104.8,134.2,104.4,134.5,103.9,134.6z M106.9,136.6c-0.6,0.2-0.9-0.3-1-0.7c-0.2-0.6,0.3-0.8,0.7-1c0.6-0.1,0.8,0.3,1,0.7
		C107.8,136.2,107.4,136.5,106.9,136.6z M121.6,144.2c-0.9,0.2-1.2-0.5-1.6-1.1C121.1,142.5,121.7,142.7,121.6,144.2z M129.2,126.6
		c-0.6-0.5-0.6-1,0-1.5C129.8,125.6,129.8,126.1,129.2,126.6z M157.2,136.4c-0.4-0.7,0.3-0.6,0.7-0.6c0.2,0,0.3,0.3,0.5,0.5
		C158,136.8,157.4,136.8,157.2,136.4z M164,139.4c-0.6-1.3,0-1.6,1.6-1.7C165,138.9,164.7,139.3,164,139.4z M172,141.4
		c-0.5-1.2-0.3-1.8,1.2-1.4C173.3,140.9,172.7,141.2,172,141.4z M174.3,137.2c-0.7,0.4-0.7-0.3-0.6-0.7c0-0.2,0.3-0.3,0.5-0.5
		C174.7,136.5,174.7,137,174.3,137.2z M177.8,138.2c0.5-0.6,1-0.6,1.5,0C178.8,138.8,178.3,138.8,177.8,138.2z M181.6,138.2
		c1.4-0.8,1.7-0.2,1.9,0.9C182.3,139.6,182.3,138.5,181.6,138.2z M185.8,135.2c0.5-0.5,1-0.6,1.5,0
		C186.8,135.8,186.3,135.8,185.8,135.2z M188.4,129.9c-0.1,0.4-0.4,0.9-1,0.7c-0.5-0.1-0.8-0.4-0.7-1c0.2-0.4,0.4-0.9,1-0.7
		C188.1,129.1,188.5,129.4,188.4,129.9z M187.5,119.8C187.5,119.8,187.5,119.8,187.5,119.8c0,0.8,0.2,1.8-1,2c0,0,0,0,0,0
		c0,0,0,0,0,0c-1.4-0.7-1.4-1.3,0-2c-0.2-0.5-0.5-1.1-0.8-1.8c0.6-0.1,1.2-0.1,1.8-0.2c0,0,0,0,0,0C189,118.5,189,119.2,187.5,119.8
		z M212.3,115.9c-0.1,0.4-0.4,0.9-1,0.7c-0.4-0.1-0.9-0.4-0.7-1c0.1-0.4,0.4-0.9,1.3-0.6C212,115.2,212.5,115.4,212.3,115.9z
		 M217.7,102.4c0.5-0.5,1-0.6,1.5,0C218.7,103,218.2,103,217.7,102.4z M223.5,102.7c-0.6,0.2-0.9-0.3-1-0.7c-0.2-0.6,0.3-0.9,0.7-1
		c0.6-0.2,0.8,0.3,1,0.7C224.4,102.3,224,102.6,223.5,102.7z M237.1,94.6c-1-0.8-2.3-0.5-3.3-1.1C234.4,92.4,235.8,92.7,237.1,94.6z
		 M237,102.5c-0.7-0.3-0.7-0.8-0.2-1.3C237.5,101.6,237.5,102,237,102.5z M238.3,101.7c0.3-1.9,1-2.7,3.1-2.6
		C241,101.2,239.7,101.1,238.3,101.7z M250.8,71.3c0.4,0.7-0.3,0.7-0.7,0.6c-0.2,0-0.3-0.3-0.5-0.5C250,70.9,250.6,70.9,250.8,71.3z
		 M242.5,99.3c1.8-0.8,1.9,0.5,2.8,1.1C243.5,101.2,243.2,100.1,242.5,99.3z M246.6,77.9c-0.2,0.1-0.6-0.1-0.9-0.2
		c0-0.8,0.6-1.5,1.3-1.2C247.7,76.8,247.2,77.6,246.6,77.9z M248.1,70.6c0.3,0.4,0.1,1-0.3,1.2c-0.4,0.2-0.9,0.2-1.4,0.2
		c0,0,0,0,0,0c0,0,0,0,0,0c0,0.6,0.2,1.3-0.5,1.7c-0.7-0.9-0.5-1.4,0.5-1.7c0,0,0,0,0,0c0,0,0,0,0,0c0.1-0.5,0-1,0.2-1.4
		C247,70.1,247.6,69.9,248.1,70.6z"/>
	<path d="M200.5,80.9c0-0.6,0-1.3,0-1.9c0,0,0,0,0,0c0,0,0,0,0,0c0-0.3,0-0.7,0-1c0-0.7,0-1.3,0-2c0-0.4,0-0.7,0-1.1
		c-4.1,1-8.2,2.1-12.3,3.2c-0.7,0.9-1.6,1.7-2.1,2.7c-0.6,1.1-0.9,2.4-1.4,3.7c-1.6,4.6-6.1,7.1-10.9,6.1c-1.6-0.3-3.1-1.1-4.7-1.4
		c-3.2-0.6-6.6-2.1-9.7-0.7c-4.9,2.2-10.3,2.6-15,4.8c-6.2,2.9-11.9,3.2-17.6-1.2c-2-1.6-4.4-1.5-6.9,0c-2.1,1.3-4.5,2.1-7.1,1.5
		c-4.8-1.1-9.3-2.4-13.1-6.1c-4-3.9-5.1-8.3-4.5-13.4c0.3-2.2,1.1-4.1,3.6-4.8c1.4,0.5,1.8,2,2.5,3c3.8,5.5,9.5,5.9,15.4,5.7
		c1,0,1.8-0.8,2.2-1.8c0,0,0,0,0,0c0,0,0,0,0,0c-1.3-1.9-3.2-3.6-1-6.1c0,0,0,0,0,0c0,0,0,0,0,0c0.2-1.3,1.2-1,2-1c0,0,0,0,0,0
		c0,0,0,0,0,0c0.2-1.2,1.2-1,2-1c0.3-0.7,0.7-1.3,1-2l0,0c0,0,0,0,0,0c-1.3,0.3-2.1-0.8-3.2-1.1c-2.3,1.1-3.1,3.7-5.3,5.2
		c-2.3-0.4-4.8-0.4-6.7-2.5c-2-2.3-4.4-3.6-7.5-4c-3.5-0.4-6.3-0.3-7.5,2.6c-1.8,4.3-5.2,7.5-7,11.7c-2.4,5.5-4.2,11-2.7,17
		c0.9,0.1,2-0.4,2.8,0.4c-0.8,0.9-1.8,0.4-2.7,0.5c0,0,0,0,0,0c-0.3,5.1,2.6,8.1,6.5,10.7c5.1,3.4,10.6,4.5,16.2,2.1
		c3.5-1.5,6.7-3.9,10.1-5.8l0,0c-0.9,0-1.9,0.4-2.6-0.5c1.1-0.6,2.1-1,2.7,0.5l0,0l0,0c5.5-2.1,10.9-1.3,15.5,2
		c4.6,3.2,9.4,4.4,14.8,4c1.7-0.1,3.2-0.6,4.7-1.3c4-1.8,6.7-5.2,10.1-8.5c1.9,1.7,4.5-0.4,6.5,1.2c2.6,2.1,5.8,2.1,8.8,2.5
		c7.4,1.1,13.4-0.9,17.1-7.9c0.5-0.9,1-1.7,1.4-2.6c0,0,0,0,0,0c0,0,0,0,0,0c-0.4-1.9,0.5-3.2,1.9-4.3c0.3-1.7-0.8-3.5,0.8-5
		c0,0,0,0,0,0c0,0,0,0,0,0c0.4-0.4,0.8-0.7,1.2-1c0,0,0,0,0,0c0,0,0,0,0,0C198.7,80.8,199.7,81,200.5,80.9z M114.1,73.4
		c-0.7,0.7-1.2,1.2-1.9,1.9C111.7,73.4,112.2,73,114.1,73.4z M110.5,71.5c-0.5,0.6-1,0.5-1.5,0C109.6,70.9,110.1,70.9,110.5,71.5z
		 M104.2,70.4c0.7,0.3,0.8,0.8,0.2,1.3C103.7,71.4,103.7,70.9,104.2,70.4z M102.7,66.2c0.6-0.2,0.8,0.3,1,0.7c0.2,0.6-0.3,0.8-0.7,1
		c-0.6,0.1-0.9-0.3-1-0.7C101.8,66.6,102.3,66.3,102.7,66.2z M85.4,99.7c-0.6-0.5-0.5-1,0-1.5C85.9,98.7,86,99.2,85.4,99.7z
		 M88.7,98c-0.1,0.4-0.4,0.9-1,0.7c-0.4-0.1-0.9-0.4-0.7-1c0.1-0.4,0.4-0.9,1.3-0.6C88.4,97.2,88.8,97.5,88.7,98z M95.2,65.6
		c0.7-0.4,0.6,0.3,0.6,0.7c0,0.2-0.3,0.3-0.5,0.5C94.8,66.3,94.8,65.8,95.2,65.6z M90.1,105.5c0.7-1.9,2.6-1.7,3.7-2.6
		c1.4,0.4,1,1.3,1.1,2.7C93.1,104.7,91.7,106.6,90.1,105.5z M95.1,107.4c0.5-0.6,1-0.6,1.5,0C96.1,107.9,95.6,107.9,95.1,107.4z
		 M105.4,107.2c-0.7-0.7-1.2-1.1-1.9-1.9C105.5,104.8,105.9,105.3,105.4,107.2z M115.9,99.8c-0.6,0.2-0.8-0.3-1-0.7
		c-0.2-0.6,0.3-0.8,0.7-1c0.6-0.1,0.8,0.3,1,0.7C116.8,99.4,116.3,99.6,115.9,99.8z M119.4,99.6c-0.7-0.1-1-0.6-1.3-1.2
		c0.5-0.6,1-0.7,1.5-0.1C119.8,98.8,119.8,99.2,119.4,99.6z M137.1,97c2.1,1.5,1.9,3,0.6,4.8C138,100.2,135.3,99,137.1,97z
		 M138.2,106.6c-0.4-0.6,0.3-0.6,0.7-0.6c0.2,0,0.3,0.3,0.5,0.5C139,106.9,138.4,107,138.2,106.6z M144.8,95.9
		c1.3-0.7,1.3-0.7,2.7,0C146.2,96.6,146.2,96.6,144.8,95.9z M152.5,104.1c-0.2,0.4-0.4,0.9-1,0.7c-0.5-0.1-0.9-0.4-0.7-1
		c0.1-0.4,0.4-0.9,1-0.7C152.2,103.2,152.7,103.4,152.5,104.1z M158.1,97.7c-0.6-0.5-0.5-1,0-1.5C158.7,96.7,158.7,97.2,158.1,97.7z
		 M161.8,93.8c0.2-0.4,0.4-0.9,1-0.7c0.4,0.1,0.9,0.4,0.7,1c-0.1,0.4-0.4,0.9-1,0.7C162,94.7,161.6,94.4,161.8,93.8z M163.5,97.1
		c-0.2,0.4-0.4,0.9-1,0.7c-0.5-0.1-0.9-0.4-0.7-1c0.1-0.4,0.4-0.9,1-0.7C163.2,96.2,163.7,96.5,163.5,97.1z M172.4,100.5
		c-1-0.1-1.5-0.7-1.8-1.6c-0.9-0.2-1.3-0.8-1.8-1.5c0.5-0.6,1.1-0.5,1.8-0.5c0-0.6-0.1-1.3,0.8-1.9c0.4,0.4,0.8,0.8,1.2,1.2
		c-0.7,0.9-1.3,0.7-1.9,0.7c0,0.7,0,1.3,0,2C171.5,99,172.6,98.7,172.4,100.5z M177.7,100.7c-0.6,0.2-0.9-0.3-1-0.7
		c-0.2-0.6,0.3-0.8,0.7-1c0.6-0.2,0.8,0.3,1,0.7C178.5,100.3,178.1,100.6,177.7,100.7z M184,89.7c-0.2-0.9,0.5-1.2,1.1-1.6
		C185.8,89.3,185.6,89.9,184,89.7z M190.8,87.5c0.4-0.7,0.8-0.7,1.3-0.2C191.8,88,191.4,88.1,190.8,87.5z M195,86.7
		c-0.6-0.5-0.5-1,0-1.5C195.6,85.7,195.6,86.2,195,86.7z"/>
	<polygon points="196.6,88 196.5,88 196.5,88 	"/>
	<path d="M46.7,20.7c0.1,0.2,0.2,0.4,0.3,0.5c0.8-0.1,1.6-0.2,2,1c0,0.3,0,0.7,0,1c0,0,0,0,0,0c0,0,0,0,0,0c0,0.1,0,0.3,0,0.4
		c0.1,0.1,0.2,0.2,0.3,0.3c0.1,0.1,0.2,0.2,0.3,0.3c1.2,0,2.5,0.1,3.7,0.1c0.8-0.8,1.6-1.6,2.5-2.4c4.8-4.2,10.2-7.5,16.4-8.5
		c7.8-1.3,15.6,0.6,23.5,0.3c3.5,2.1,7.4,1.5,11.1,1.5c10.3,0,20.5-1,28.9-8c0,0,0,0,0,0c0.7-1.6,2-0.7,3.1-0.9c0,0,0,0,0,0
		c0.9-0.1,1.9-0.1,2.8-0.2c0,0,0,0,0,0c-0.3-0.7-0.7-1.4-1-2.1c0.9-1.1,1.4,0.4,2,0.2c0-1,0-2,0-3c-1.8,0.9-3.6-0.1-5.4,0
		c0.2,1.5-0.3,2.7-1.1,3.8c-0.9-0.7-2-1.3-1-2.7c0.6-0.9-0.1-1-0.6-1.2c0,0-0.1,0-0.1,0c-1.7,0.4-3.4,0.8-4.8,1.9c0,0,0,0,0,0
		c0,0,0,0,0,0c0,0.4,0,0.8,0.1,1.2c0,0,0,0,0,0c1.2,0.3,2-0.8,3-1c0,0,0,0,0,0c0,0,0,0,0,0c0,0,0,0,0,0c0,0,0,0,0,0
		c1.4,0.6,1.4,1.3,0,1.9c-1-0.2-2.5,0.7-3-1c0,0,0,0,0,0c-0.7,0-1.4,0-2.1,0c0,0,0,0,0,0c0,0,0,0,0,0c-7.5,3.5-15.2,5.2-23.5,4.1
		C99,7.7,94,7.3,88.9,6.8C84.6,6.4,80.4,6.2,76.1,7c-5.8,1.1-11.4,2.8-17,4.8c-1.8,0.6-4.1,0.3-5.2,2.4c-0.2,1.3-1.1,1.1-2,1l0,0
		c0,0,0,0,0,0c0,0,0,0,0,0c0,0.9,1.4,1.4,0.7,2.5c-1.2,1.1-1.8-0.7-2.8-0.6c0,0,0,0,0,0c0,0,0,0,0,0c-1.5,0.7-2.9,1.5-3.9,2.9
		c0,0,0,0,0,0C46.3,20.2,46.5,20.4,46.7,20.7z M127.4,6.6c-0.3,0.7-0.8,0.7-1.3,0.2C126.4,6.2,126.8,6.1,127.4,6.6z M116.3,11.5
		c0.5,0.5,0.6,1,0,1.5C115.7,12.5,115.7,12,116.3,11.5z M110.3,10.6c0.4,0.7-0.3,0.7-0.7,0.6c-0.2,0-0.3-0.3-0.5-0.5
		C109.5,10.2,110.1,10.2,110.3,10.6z M107.6,12.8c-0.5,0.6-1,0.6-1.5,0C106.6,12.2,107.1,12.2,107.6,12.8z M92.5,8.6
		c-0.4,0.8-0.8,0.7-1.4,0.4C91.5,8.1,92,8.2,92.5,8.6z M89.6,11.8c-0.5,0.5-1,0.6-1.5,0C88.6,11.2,89.1,11.2,89.6,11.8z M85,9.1
		c0.1-0.4,0.4-0.9,1-0.7c0.5,0.1,0.8,0.4,0.7,1c-0.2,0.4-0.4,0.9-1,0.7C85.3,10,84.9,9.7,85,9.1z M81.2,9.6c0.8,0.4,0.7,0.8,0.4,1.4
		C80.7,10.6,80.9,10.1,81.2,9.6z M67.3,10.6c0.7,0.1,1,0.5,1.5,1.3C67,12.4,66.8,11.8,67.3,10.6z M61.6,12.4
		c0.6,1.8-0.3,1.7-1.2,1.9C60.3,13,61,12.9,61.6,12.4z M54.5,18.5c0.7,0.8,0.7,1.7,0,2.5C53.8,20.1,53.7,19.3,54.5,18.5z M51.2,21
		c0.1-0.4,0.4-0.9,1-0.7c0.5,0.1,0.9,0.4,0.6,1.3c-0.1,0.1-0.3,0.6-0.9,0.4C51.4,21.9,51,21.6,51.2,21z M49.7,19.6
		c-0.3,0.8-0.8,0.7-1.4,0.4C48.7,19.1,49.1,19.2,49.7,19.6z"/>
	<path d="M169.6,33.1c0,0.7,0,1.3,0,2c-0.2,0.7,0.7,2.3-1.4,1.4c-0.6-0.3-0.5,0.9-0.6,1.5c1.4,0.4,2.8,0.9,4.2,1.3
		c4.7,1.4,9.3,3.3,13.3,6.2c3.7,2.7,7.5,4.9,12,6.2c3.1,0.9,6.4,1.2,9.4,2.4c1,1.6,3.5,1.8,3.6,5.1c-0.7,3-3.5,6.2-4.2,10.2
		c-0.1,0.3-0.8,0.5-1.1,0.8v0c-1,1.9-3.4,2.6-4.2,4.6c0,0,0,0,0,0c0,0,0,0,0,0c0.4,0.3,0.6,0.6,0.8,1c0.1,0.2,0.1,0.3,0.1,0.5
		c0.5,0.4,0.9,0.9,1.1,1.5c-0.1,0.7-0.5,0.9-1,1c0,0.1,0,0.1,0,0.2c-0.1,0.7-0.4,1.2-0.7,1.8c0.3,0,0.5,0.1,0.8,0.1
		c0.2-1.8,1.6-0.9,2.6-1.1c0,0,0,0,0,0c0.4-0.4,0.9-0.8,1.3-1.1c0,0,0,0,0,0c0.3-1,1.1-0.8,1.8-0.8l0,0c1.4-2,4.6-2.1,5.2-4.9
		c0,0,0,0,0,0c0-0.8-1.5-1.4-0.2-2.4c0.9-0.8,1.4,0.3,2.1,0.3c5.3-5.5,5.9-13.9,1-19.2c-3-3.2-7-5.2-11.3-5.4
		c-4.5-0.3-8.1-2.1-11.1-4.9c-5.2-4.8-11-8.3-18-9.4c-0.6,0.3-1.2,0.6-1.8,0.9c-0.6-0.4-1.3-0.9-1.5-1.8c-1-0.3-2-0.5-3,0.1
		c0,0,0,0,0,0c0,0,0,0,0,0C168.9,31.9,169.3,32.5,169.6,33.1z M204.6,75.8c-0.6,0.2-0.8-0.3-1-0.7c-0.2-0.6,0.3-0.8,0.7-1
		c0.6-0.2,0.8,0.3,1,0.7C205.5,75.4,205,75.7,204.6,75.8z M213.9,54.4c0.4-0.7,1.1-0.2,1.4,0.4c0.1,0.2-0.1,0.6-0.2,0.9
		C214.3,55.7,213.6,55.1,213.9,54.4z M214.2,61.4c-0.4,0.8-0.8,0.7-1.4,0.4C213.1,60.9,213.6,61,214.2,61.4z M208.8,50.6
		c0.7-0.4,0.6,0.3,0.6,0.7c0,0.2-0.3,0.3-0.5,0.5C208.4,51.4,208.4,50.8,208.8,50.6z M208.1,53.5c-0.4,0.6-1,0.7-1.6,0.6
		c0,0,0,0,0,0.1l-0.1-0.1c0,0,0.1,0,0.1,0C206.7,53,207.2,52.9,208.1,53.5z M197,48.4c0.4,0.6-0.3,0.6-0.7,0.6
		c-0.2,0-0.3-0.3-0.5-0.5C196.2,48,196.8,48,197,48.4z M186,39.5c0.4,0.7-0.3,0.7-0.7,0.6c-0.2,0-0.3-0.3-0.5-0.5
		C185.3,39.1,185.8,39.1,186,39.5z M181.3,35.7c-0.5,0.5-1,0.6-1.5,0C180.3,35.1,180.8,35.1,181.3,35.7z M177.1,37.4
		c0.1,0.9-0.5,1.2-1.2,1.4C175.4,37.6,175.6,37,177.1,37.4z M173.8,37.2c0.2,0,0.3,0.3,0.5,0.5c-0.4,0.5-0.9,0.5-1.1,0.1
		C172.7,37.2,173.4,37.2,173.8,37.2z"/>
	<path d="M136.7,71c1,0.3,1.7,1,2,2c0,0,0,0,0,0c1.8-0.8,3-2.2,4.1-3.8c0.3,0,0.7,0.1,0.9,0c4.8-3.2,9.1-2.4,14,0.7
		c3.4,2.2,7.9,3.1,11.9,0.3c0,0,0,0,0,0c0.3-1.8-0.9-2.1-2.3-2.2c0,0,0,0,0,0c0,0,0,0,0,0c-3-0.9-6-1.7-8.4-3.9
		c-1-0.9-2.2-1.4-3.3-2.2c-4.5-3-8.9-2.3-13.4,0.1c-2.5,1.3-3.8,3.5-5.5,5.4C136.5,68.6,138.1,69.8,136.7,71z M154.2,65.4
		c0.4,0.7-0.3,0.7-0.7,0.6c-0.2,0-0.3-0.3-0.5-0.5C153.4,65,153.9,64.9,154.2,65.4z M145.1,65.4c0.7,0.3,0.7,0.8,0.2,1.3
		C144.6,66.4,144.5,65.9,145.1,65.4z M142.8,69.2C142.8,69.1,142.8,69.1,142.8,69.2c-0.8-0.3-1.2-0.8-0.9-1.8
		C143.1,67.7,142.5,68.6,142.8,69.2C142.8,69.1,142.8,69.1,142.8,69.2L142.8,69.2z M140.8,64.9c0.1-0.4,0.4-0.9,1.3-0.6
		c0.1,0.1,0.6,0.3,0.4,0.9c-0.1,0.4-0.4,0.9-1,0.7C141.1,65.7,140.6,65.5,140.8,64.9z"/>
	<path d="M148.7,1.2C148.7,1.2,148.7,1.2,148.7,1.2C148.7,1.2,148.7,1.2,148.7,1.2L148.7,1.2z"/>
	<path d="M142.7,1.1c0.1,0,0.1,0,0.2,0.1c0.6,0.8,0.7,1.6,0.5,2.5c-0.2,0.3-0.4,0.6-0.6,0.9c0.3,0.7,0.9,0.9,1.6,0.8
		c0.7-0.1,1.1,0.3,1.3,0.9c0,0,0,0,0,0c1.2,1.1,2.8-0.1,4.1,0.8c1.9,1.3,3.9,2.6,6,3.3c3.1,1,5.1,4.2,8.7,4c0,0,0,0,0,0
		c1.4,0,2.7,0,4.1,0c0-0.6,0.4-1,1-1c0-0.8-0.2-1.7,0.9-2c0,0,0,0,0,0c0,0,0,0,0,0c0-0.3,0-0.6,0-0.9c0,0,0,0,0,0
		c-0.7-0.1-1.5-0.1-2.2-0.2c0,0,0,0,0,0c0,0,0,0,0,0c-4.6-1.9-9.1-3.8-13-6.9c-0.7-0.6-1.7-1.1-2.7-0.9c-1.2-0.1-2.4,0-3.5,0.6
		c-0.7-0.5-0.4-1.1-0.4-1.7c0,0,0,0,0,0c-1.7-0.2-3.6,0.9-5-0.8c0,0,0,0,0,0c-0.3,0-0.7,0-1,0.1c0,0,0,0,0,0
		C142.7,0.7,142.7,0.9,142.7,1.1z M164.7,11.1c-1.6-0.4-1.6-0.4-1.6-1.5C163.7,9.6,164,10.2,164.7,11.1z M160.4,9.8
		c-0.5,0.6-1,0.5-1.5,0C159.4,9.2,159.9,9.2,160.4,9.8z M154.2,5.5c0.6,0.5,0.6,1,0,1.5C153.6,6.5,153.6,6,154.2,5.5z M147.4,3.9
		c-1-0.7-2.3-0.5-3.3-1C144.5,1.8,146,2.1,147.4,3.9z"/>
	<path d="M177.6,12.2c0,0.8-0.1,1.5-0.1,2.3c0.8,1.8,2.5,2,4.1,2.5c2.5,0.8,5.1,1.4,7.6,2c4.3,1.1,7.8,3.6,11.3,6.3
		c-0.2-0.6-0.4-1.1-0.7-1.7c0.5-0.5,1.1-0.4,1.7-0.4c0,0,0,0,0,0c0,0,0,0,0,0c0-0.9-0.2-1.8,1.1-2c0.3,0,0.6,0,0.9,0c0,0,0,0,0,0
		c0,0,0,0,0,0c-4.3-5.2-10.4-7.1-16.6-8.7c-2-0.5-4.2-1.1-6.3-0.2c0,0,0,0,0,0c0,0,0,0,0,0C179.5,14.5,178.6,12.2,177.6,12.2z
		 M198.2,20.6c-0.3,0.8-0.8,0.7-1.4,0.4C197.2,20.1,197.6,20.2,198.2,20.6z M188.7,15.1c0.1-0.4,0.4-0.9,1-0.7
		c0.4,0.1,0.9,0.3,0.4,1.8c0,0,0,0.1-0.1,0.3c0-0.1,0.1-0.2,0.1-0.3c0-0.2-0.2,0.1-0.7-0.1C189,16,188.5,15.7,188.7,15.1z"/>
	<path d="M201.8,23.5c-0.5,0.5-0.8,1.3-1.3,1.8c0,0,0,0,0,0c0,0,0,0,0,0c5.4,4.8,12,7.2,18.9,8.9c0,0,0,0,0,0c0,0,0,0,0,0
		c1.2,0.2,2-0.8,3.1-1c0,0,0,0,0,0c0,0,0,0,0,0c0.7,0,1.3,0,2,0c0-0.9,0-1.8,0-2.7c0,0,0,0,0,0c-6.8-3.6-14.6-4.7-20.9-9.2
		c-0.1,0.4-0.3,0.7-0.6,1C202.5,22.7,202.1,23.1,201.8,23.5z M222.1,31.6c-0.3,0.7-0.8,0.7-1.3,0.2
		C221.1,31.1,221.5,31.1,222.1,31.6z M212.1,29.8c-2.4,0-3-2-4.2-3.3C210.1,26.5,210.9,28.5,212.1,29.8z"/>
	<path d="M234.2,44.2c1.5,3.6,2.9,7.2,4.4,10.8c0.6,0,1.1,0,1.7,0.1c0,0,0,0,0,0l0,0l0,0c0,0,0,0,0,0c-0.2-0.5-0.5-1.1-0.7-1.6
		c1.7,0.2,1.7,0.3,0.7,1.6c0,0,0,0,0,0c0,0,0,0,0,0c0,0.7-0.1,1.5-0.1,2.2c0,0,0,0,0,0c0,0.3,0,0.6,0.3,0.8c0,0,0,0,0,0
		c1.1,0.9,1.7,2,1.8,3.4c0.3-0.4,0.6-0.6,1-0.9c0.8-0.4,1.6-0.8,2.3-1.3c0.5-0.3,1.1-0.6,1.8-0.3c0,0,0,0,0,0
		c-0.7-1.3-1.5-2.6-2.3-3.9c0,0,0,0,0,0c-1-0.3-0.9-1.2-0.9-1.9c0,0,0,0,0,0c0,0,0,0,0,0c-2.2-3.6-4.3-7.1-5.9-11c0,0,0,0,0,0
		c0,0,0,0,0,0C237,42.8,235.6,43.5,234.2,44.2z"/>
	<path d="M224.8,33.2c-0.2,0.2-0.3,0.3-0.5,0.4c-0.3,0.5-0.9,0.5-1.5,0.5c-0.1,0-0.2,0-0.4,0c0,0.3,0,0.6,0,0.9c0,0,0,0,0,0
		c2,1,3.9,2.1,5.9,3.1c0,0,0,0,0,0c0.6-0.3,1.1-0.6,1.8-0.9c0.1,1,0.2,1.9,0.3,2.8c0,0,0,0,0,0c0,0,0,0,0,0c0.9,0.7,1.8,1.4,2.7,2.1
		c0.9-0.1,1.8-0.2,2.6-0.2c1-0.8,0.5-1.8,0.6-2.7c0,0,0,0,0,0c0,0,0,0,0,0c-3.2-4.1-7-7.2-12-8.9c0,0,0,0,0,0
		C225.2,31.3,225.3,32.2,224.8,33.2z M234.1,39.7c-0.5,0.5-1,0.6-1.5,0C233.2,39.1,233.7,39.1,234.1,39.7z M226.7,33.5
		c0.8,0.3,0.7,0.8,0.4,1.4C226.3,34.5,226.4,34,226.7,33.5z"/>
	<path d="M123,66.2c0.6,0.3,1.2,0.6,1.7,0.9c0,0,0,0,0,0c0-0.7-0.1-1.6,0.8-1.9c0.8-0.2,1.9-0.4,2.2,0.9c0.8,0.1,1.8-0.2,1.8,1
		c0,1.2-1.1,0.9-1.8,0.9c0,0,0,0,0,0c0,0,0,0,0,0c-0.4,0.1-0.8,0.1-1.2,0.2c0,0,0,0,0,0c0.9,0.7,1.9,1.3,2.8,2
		c2.7,2.5,5.8,3.5,9.5,2.8c0,0,0,0,0,0c-0.8-0.7-2-0.9-2.3-2c0,0,0-0.1,0-0.1c-1-0.6-1-1.9-1.6-2.7c0,0,0,0,0,0
		c-2.1-1.7-4.4-3-6.8-4.1c0,0,0,0,0,0c-1.1-0.2-2.4,0.8-3.1-0.8c0,0,0,0,0,0c-0.7-0.3-1.3-0.3-2,0c0,0.8,0,1.7,0,2.5
		C122.9,65.9,122.9,66,123,66.2z"/>
	<path d="M127.7,66C127.7,66,127.7,66,127.7,66C127.7,66,127.7,66,127.7,66C127.7,66,127.7,66,127.7,66C127.7,66,127.7,66,127.7,66z
		"/>
	<path d="M164.4,31.7c0,0.2,0.1,0.4,0.1,0.6c0,0,0,0,0,0c0,0,0,0,0,0c0.4,1.6,1.1,3.1,0.1,4.8c0,0,0,0,0,0c1,0.3,2,0.5,3,0.8
		c0,0,0,0,0,0c0,0,0,0,0,0c-1.2-1.3,0.4-1.9,0.7-2.9c-0.3-0.1-0.5-0.3-0.6-0.7c-0.1-0.8,0.2-1.1,0.7-1.2c-0.1-0.7-0.3-1.3,0.2-1.9
		c-3.6-0.1-7.3-0.1-10.9-0.1c-1.4,0-3-0.3-4.2,1C157,31.4,160.5,31.8,164.4,31.7z M165.9,34.5c0.8,0.3,0.7,0.8,0.4,1.4
		C165.5,35.5,165.6,35,165.9,34.5z"/>
	<path d="M124.8,67.3c-0.3,0.1-0.5,0.1-0.8,0.1c-0.4-0.2-0.7-0.4-0.9-0.8c-0.1,0.8-0.5,1.4-1.1,1.9c-0.2,0.1-0.4,0.2-0.6,0.4
		c-0.2,0.4-0.4,0.8-0.6,1.2c0,0.9,0.1,1.9-1.3,1.9c-0.9-0.8,0.5-1.3,0.3-1.9v0c0,0,0,0,0,0c0,0,0,0,0,0c-0.1,0-0.2,0-0.3,0
		c-0.4,0.3-0.7,0.8-0.9,1.3c-0.8,1.7,1.1,3.1,0.3,4.8c2.7-2.1,4.6-4.7,6-7.7c0,0,0,0,0,0c0,0,0,0,0,0
		C124.8,68,124.8,67.6,124.8,67.3z"/>
	<path d="M123.1,66.6c0-0.1,0-0.1,0-0.2c0-0.1-0.1-0.2-0.1-0.2c-0.1,0-0.2-0.1-0.2-0.1c0,0,0,0,0,0l0,0
		C122.8,66.2,123,66.4,123.1,66.6z"/>
	<path d="M49.9,24.7c0,0.1,0.1,0.1,0.1,0.2c0.2,2.9-2.1,3.7-4.1,4.7c-0.3,0-0.7,0.1-1,0.3c0,0,0,0.1,0,0.1c0.1-0.1,0.3-0.1,0.4-0.1
		c0.5,0.3,1,0.6,0.6,1.2c3.2-1.4,5.7-3.7,7.3-6.8C52.2,24.8,51.1,25.1,49.9,24.7z"/>
	<path d="M49.6,24.2c-0.2,0-0.4,0-0.6,0c0.3,0.2,0.6,0.4,0.9,0.5C49.8,24.5,49.7,24.4,49.6,24.2z"/>
	<path d="M170.8,10.3c0.1,0.1,0.2,0.3,0.2,0.5c0,0.2,0,0.3-0.1,0.5c0.5,0.1,0.9,0.1,1.4,0.2c-0.3,0.7-0.6,1.3-0.8,1.8
		c1.1,0.1,2.2,0.1,3.3,0.2c1.1-0.2,1.7,0.7,2.5,1.1c0,0,0,0,0,0c0,0,0,0,0,0c-0.3-0.6-0.5-1.2-0.3-1.9c0.1-0.2,0.3-0.4,0.5-0.5
		c0-0.2,0-0.5,0-0.7c0,0,0,0,0,0c0,0,0,0,0,0c-1-0.2-1.4-1.7-2.7-1.2c0,0,0,0-0.1,0c0,0,0,0,0.1,0C173.5,10.2,172.2,10.3,170.8,10.3
		z"/>
	<path d="M142.3,0.9c0-0.1,0-0.1,0-0.2c0.1-0.2,0.2-0.3,0.3-0.3c0,0,0,0,0,0c-2.8-0.2-5.6-0.8-8.2,0.7c0,0,0,0,0.1,0
		C137.1,1.9,139.7,0.3,142.3,0.9z"/>
	<path d="M142.3,0.9c0,0.1,0.1,0.2,0.4,0.4c0-0.1,0-0.2,0-0.2C142.6,1,142.4,1,142.3,0.9z"/>
	<path d="M241.9,62.8c0-0.4,0.1-0.7,0.2-1c-1.1-1-1-2.5-1.6-3.7c0,0,0,0,0,0c-0.3,3.3,1.3,6.4,1.4,9.7c0,0.8,0.4,1.9,1.4,2.4
		C242.4,67.8,241.6,65.4,241.9,62.8z"/>
	<path d="M242.4,62c0-0.2,0-0.4-0.1-0.6c-0.1,0.1-0.2,0.2-0.2,0.4C242.2,61.9,242.3,62,242.4,62z"/>
	<path d="M100.8,49.2C100.8,49.2,100.7,49.2,100.8,49.2c4,1.5,8.2,1.3,12.3,0.1c-0.1,0-0.1,0-0.2,0C108.9,50,104.8,49.3,100.8,49.2z
		"/>
	<polygon points="220.2,127.8 220.2,127.8 220.2,127.8 	"/>
	<path d="M213.6,130.1c2.8,0.5,4.3-0.1,6.6-2.4C217.9,128.2,216.1,130.3,213.6,130.1z"/>
	<path d="M169.6,70C169.6,70.1,169.6,70.1,169.6,70c1.2,0,1.6-1,2-1.9c0-0.8-0.2-1.7,0.8-2.1c0,0,0,0,0,0c0-0.6-0.1-1.2-0.1-1.8
		c0,0,0,0,0,0c0,0,0,0,0,0c-0.6,0.3-1.1,0.6-1.7,0.9c0,0,0,0,0,0c-0.6,1.6-2.3,1.8-3.4,2.8C169.3,67.4,170.5,67.6,169.6,70z"/>
	<path d="M205.5,114.1c-2.3,0-4.6-0.1-7-0.1C200.8,115.2,203.1,114.4,205.5,114.1z"/>
	<path d="M235.3,42.6c-0.6,0-1.3-0.1-2.2-0.4c0,0,0,0,0,0c0,0,0,0,0,0c0.3,0.7,0.4,1.5,1.1,1.9c0,0,0,0,0,0c0,0,0,0,0,0
		C234.5,43.5,234.9,43,235.3,42.6z"/>
	<path d="M236.5,42c0.5-0.1,1.1-0.1,1.8,0.1c-0.6-1-0.8-2.3-2-2.8C236.8,40.6,236.8,41.5,236.5,42z"/>
	<path d="M236.5,42c-0.5,0.1-0.9,0.3-1.3,0.6C235.9,42.6,236.3,42.4,236.5,42z"/>
	<path d="M26.1,90c-0.2,0.3-1.1-0.4-0.8,0.6c-0.2,0.5-0.4,0.9-0.5,1.4c0.4-0.1,0.8-0.1,1.3-0.1c0,0,0,0,0,0c0,0,0,0,0,0
		c0.1-0.6,0.4-0.9,1-1c0,0,0,0,0,0c0,0,0,0,0,0c-0.1-1.1,0.1-2.3-0.9-3.1c0,0,0,0,0,0c0,0,0,0,0,0C26.6,88.6,26.7,89.3,26.1,90z"/>
	<path d="M24.2,109.9c-1.1,0.5-0.5,0.7,0.1,1c0.9-0.4,0.8-1.2,0.7-2C24.8,109.2,24.6,109.7,24.2,109.9z"/>
	<path d="M142.7,4.6c-0.4,0.5-0.8,1-1,1.6c0,0,0,0,0,0c1.3,0,2.7,0,4,0c0,0,0,0,0,0C145,5.1,142.6,6.7,142.7,4.6z"/>
	<path d="M142.8,4.5c0-0.1,0-0.1-0.1-0.2c0,0.1,0,0.2,0,0.3C142.7,4.6,142.7,4.5,142.8,4.5z"/>
	<path d="M17.8,41.1C17.9,41.1,17.9,41.1,17.8,41.1C17.9,41.1,17.8,41.1,17.8,41.1c-1.4,0-1.9,0.7-1.7,2c0,0,0,0,0,0
		C16.2,42,18.1,42.4,17.8,41.1z"/>
	<path d="M250.4,62L250.4,62c-0.5-1.5-1.8-2.2-2.9-3.1C247.9,60.5,249,61.4,250.4,62z"/>
	<path d="M52,15.3c-1.2,0.1-1.7,0.9-2.1,1.9C50.9,16.9,51.7,16.4,52,15.3z"/>
	<path d="M122.3,65.3c-0.3-0.7-0.1-1.4,0.5-2.1c0,0,0,0,0,0c0,0,0,0,0,0c-1.2,0.4-2.4,0.6-3.2,1.8c0,0,0,0,0,0c0,0,0,0,0,0
		C120.6,64.5,121.4,65,122.3,65.3z"/>
	<path d="M122.8,65.7c-0.1-0.1-0.2-0.2-0.3-0.3c-0.1,0-0.1,0-0.2-0.1c0.1,0.2,0.2,0.5,0.4,0.7c0,0,0,0,0,0
		C122.8,65.9,122.8,65.8,122.8,65.7z"/>
	<path d="M136.3,69.9c-0.1-0.9-0.2-1.7,0.4-2.5c-0.7,0.3-1.3,0.5-2,0.7c0,0,0,0,0,0C135.7,68.4,136,69.1,136.3,69.9z"/>
	<path d="M136.3,69.9c0,0.3,0.1,0.6,0.1,1c0.1,0.1,0.2,0.1,0.3,0.2C136.5,70.7,136.4,70.3,136.3,69.9z"/>
	<path d="M170.3,9.8c0.2,0.1,0.4,0.2,0.5,0.4c1.3-0.7,2.6-0.5,4-0.1c-2.1-1-4.2-1.3-6.3,0C169,9.8,169.6,9.8,170.3,9.8z"/>
	<path d="M170.8,10.2c-0.1,0-0.1,0.1-0.2,0.1c0,0,0,0,0,0c0.1,0,0.2,0,0.3,0C170.8,10.3,170.8,10.2,170.8,10.2z"/>
	<path d="M220.6,125.6c-0.1,0-0.4,0.8,0,1.2c0,0,0,0,0,0h0.4l0.4-0.1C220.9,126.5,221.3,125.6,220.6,125.6z"/>
	<path d="M149.8,41.2C149.8,41.2,149.8,41.3,149.8,41.2c1.1,0,2.3,0.2,3.1-0.9c0,0,0,0,0,0C152,41.1,150.3,39.6,149.8,41.2z"/>
	<path d="M196.5,88C196.5,88,196.5,88,196.5,88c1.6-1.5,0.7-3.3,0.8-5C196.5,84.6,197.5,86.4,196.5,88z"/>
	<path d="M252.4,93.9C252.4,93.9,252.4,93.9,252.4,93.9c1.3-0.8,0.8-1.9,0.8-3c0,0,0,0,0,0C253.1,92,251.8,92.7,252.4,93.9z"/>
	<path d="M127.2,66.7c-0.2-0.2-0.5-0.3-0.7-0.2c-0.5,0.1-0.9,0.4-1.3,0.6c-0.1,0-0.1,0-0.2,0.1c0.3,0.4,0.3,0.7,0,1.2
		c0.5-0.1,1.1-0.1,1.6-0.2c0,0,0,0,0,0c0.1-0.3,0.2-0.5,0.4-0.7C127.1,67.2,127.2,67,127.2,66.7z"/>
	<path d="M124.8,67.3c0,0,0.1,0,0.1,0c0-0.1-0.1-0.1-0.2-0.2c0,0,0,0,0,0c0,0,0,0,0,0C124.7,67.1,124.8,67.2,124.8,67.3z"/>
	<path d="M81.1,138.7c-0.1,1.2,0.9,1.6,1.7,2.1C82.8,139.5,81.6,139.4,81.1,138.7z"/>
	<path d="M148.8,1.2C148.8,1.2,148.8,1.2,148.8,1.2L148.8,1.2C148.8,1.2,148.8,1.2,148.8,1.2c1,1.5,2.8-0.1,3.9,1.1
		C151.7,0.7,150,1.5,148.8,1.2C148.7,1.2,148.7,1.2,148.8,1.2L148.8,1.2C148.7,1.2,148.8,1.2,148.8,1.2z"/>
	<path d="M148.8,1.2C148.7,1.2,148.7,1.2,148.8,1.2C148.7,1.2,148.7,1.2,148.8,1.2C148.7,1.2,148.8,1.2,148.8,1.2
		C148.8,1.2,148.8,1.2,148.8,1.2z"/>
	<polygon points="148.7,1.2 148.7,1.2 148.7,1.2 	"/>
	<path d="M113.7,41c-0.8,0.2-1.5,0.4-2,1.1C112.3,41.6,113.5,42.3,113.7,41z"/>
	<path d="M212.5,73C212.5,73.1,212.5,73.1,212.5,73c0.9-0.4,1.5-1.1,1.8-2.1c0,0,0,0,0,0c0,0,0,0,0,0
		C213.2,71.2,212.8,72.1,212.5,73z"/>
	<path d="M196.5,88L196.5,88C196.5,88,196.5,88,196.5,88C196.5,88,196.5,88,196.5,88L196.5,88z"/>
	<path d="M196.5,88c-0.8,1.4-1.3,2.9-1.9,4.3C195.9,91.1,196.8,89.8,196.5,88z"/>
	<polygon points="196.5,88 196.5,88 196.5,88 	"/>
	<path d="M148.7,1.2C148.7,1.2,148.7,1.2,148.7,1.2C148.7,1.2,148.7,1.2,148.7,1.2c-1.5-1.4-3.3-0.8-5-0.8c0,0,0,0,0,0
		C145.3,1.3,147.2,0.3,148.7,1.2z"/>
	<path d="M148.7,1.2C148.7,1.2,148.7,1.2,148.7,1.2C148.7,1.2,148.7,1.2,148.7,1.2C148.8,1.2,148.8,1.2,148.7,1.2L148.7,1.2z"/>
	<path d="M172.4,64.2c0.1-1-0.4-1.5-1.3-1.8c-0.7,0.8-0.3,1.8-0.4,2.7c0,0,0,0,0,0C171.1,64.5,171.3,63.6,172.4,64.2z"/>
	<path d="M177.9,11.9C177.9,12,177.9,12,177.9,11.9c0.8-0.1,1.8,1.1,2.6,0.4c-1.1-0.2-1.7-1.4-3-1C177.9,11.5,178,11.7,177.9,11.9z"
		/>
	<path d="M177.9,12c-0.1,0-0.2,0.1-0.3,0.1c0,0,0,0.1,0,0.1C177.7,12.2,177.8,12.1,177.9,12z"/>
	<path d="M26.1,92.4c0,0.2,0,0.4,0,0.6c0,0.5,0,1,0,1.5c0.1,0,0.1,0,0.2,0c0.3,0.1,0.6,0.3,0.7,0.6c0-1.3,0.1-2.7,0.1-4
		C26.7,91.4,26.5,91.9,26.1,92.4C26.1,92.3,26.1,92.3,26.1,92.4z"/>
	<path d="M168.6,14.3c-1.4,0.6-2.7,0.6-4.1,0c0,0,0,0,0,0C165.9,15.6,167.3,15.5,168.6,14.3C168.6,14.3,168.6,14.3,168.6,14.3
		C168.6,14.3,168.6,14.3,168.6,14.3z"/>
	<path d="M27.1,95.9c0,0.7,0,1.3,0.1,2C28.4,97.2,28.2,96.5,27.1,95.9z"/>
	<path d="M171.6,31.2c0.9,1.1,2.2,0.5,3.3,0.8C174,31,172.8,30.9,171.6,31.2z"/>
	<path d="M222.1,34.3c-0.9,0.2-1.8,0.7-2.8,0c0.8,1,2,0.7,3.1,0.9c0,0,0,0,0,0c-0.2-0.2-0.3-0.4-0.3-0.6
		C222.1,34.4,222.1,34.3,222.1,34.3z"/>
	<path d="M222.4,33.9c-0.1,0-0.1,0.1-0.2,0.1c0,0-0.1,0.1-0.1,0.2c0.1,0,0.2,0,0.3-0.1c0,0,0,0,0,0C222.4,34.1,222.4,34,222.4,33.9z
		"/>
	<path d="M78.7,134.1c0.2,0.4,0.4,0.7,0.9,0.7C80.3,133.5,79,134.3,78.7,134.1z"/>
	<path d="M228.3,38.2C228.3,38.2,228.3,38.2,228.3,38.2c0.5,0.8,1,1.7,2.1,1.9C229.6,39.6,230.4,37.3,228.3,38.2z"/>
	<path d="M135.7,7.2c1.1,0,2.3,0.2,3.1-0.9c0,0,0,0,0,0C137.9,7.1,136.6,6.4,135.7,7.2C135.7,7.2,135.7,7.2,135.7,7.2z"/>
	<path d="M201.6,81.1C201.6,81.1,201.6,81.1,201.6,81.1C201.6,81.1,201.6,81.1,201.6,81.1c0.9-0.3,2.2,0.2,2.6-1.1c0,0,0,0,0,0
		C203.6,80.9,202.1,80,201.6,81.1z"/>
	<path d="M68.9,52L68.9,52L68.9,52c-0.9,0.4-1.6,1.1-1.7,2.1h0C67.8,53.5,68.5,52.9,68.9,52z"/>
	<path d="M171.6,13.5c-0.1,0-0.1,0-0.2-0.1c0,0,0-0.1-0.1-0.1c-0.4,0-0.9,0-1.3,0c-0.4,0.4-1,0.6-1.4,1c0,0,0,0,0,0l0,0c0,0,0,0,0,0
		c0,0,0,0,0,0c1,0.1,2,0.4,3,0c0,0,0,0,0,0c0,0,0,0,0,0C171.6,14,171.6,13.7,171.6,13.5z"/>
	<polygon points="168.6,14.3 168.6,14.3 168.6,14.3 	"/>
	<polygon points="168.6,14.3 168.6,14.3 168.6,14.3 	"/>
	<path d="M168.6,14.3C168.6,14.3,168.6,14.3,168.6,14.3C168.6,14.3,168.6,14.3,168.6,14.3C168.6,14.3,168.6,14.3,168.6,14.3z"/>
	<path d="M172.5,13.7c-0.2,0-0.4,0-0.6-0.1c0,0.1,0,0.2,0,0.3c-0.1,0.2-0.2,0.3-0.3,0.3c1.2,0.1,2.4,0.4,3.3-0.8
		C174.1,13.6,173.3,13.8,172.5,13.7z"/>
	<path d="M171.9,13.6c0-0.1-0.2-0.3-0.3-0.4c0,0.1,0,0.2,0,0.2C171.7,13.5,171.8,13.6,171.9,13.6z"/>
	<path d="M239.5,55.6c-0.4-0.1-0.6-0.3-0.8-0.6c0.1,1,0.9,1.6,1.6,2.3c0,0,0,0,0,0c-0.1-0.4-0.3-0.7-0.4-1.1
		C240,55.9,239.9,55.6,239.5,55.6z"/>
	<path d="M127.9,64c-0.8-1.2-2-1-3.1-0.8c0,0,0,0,0,0C125.7,63.9,127,63.3,127.9,64C127.9,64,127.9,64,127.9,64z"/>
	<path d="M85.1,95c-0.8,0.7-1.6,0.4-2.3-0.1c0,0.3,0,0.6,0.1,1c0,0,0,0,0,0C83.5,95.2,84.5,95.8,85.1,95z"/>
	<path d="M201.6,81.1C201.6,81.1,201.6,81.1,201.6,81.1C201.6,81.1,201.6,81.1,201.6,81.1L201.6,81.1z"/>
	<path d="M201.6,81.1c-0.3,0.2-0.6,0.2-0.9,0c-0.6,0.5-1.6,0.2-2.2,0.8C199.7,82.1,200.8,82.3,201.6,81.1
		C201.6,81.1,201.6,81.1,201.6,81.1C201.6,81.1,201.6,81.1,201.6,81.1z"/>
	<path d="M200.5,80.9C200.5,80.9,200.5,80.9,200.5,80.9c0.1,0.1,0.1,0.1,0.2,0.2c0,0,0.1-0.1,0.1-0.1c0,0,0,0,0,0
		C200.7,80.9,200.6,80.9,200.5,80.9C200.5,80.9,200.5,80.9,200.5,80.9z"/>
	<path d="M201.6,81.1C201.6,81.1,201.6,81.1,201.6,81.1C201.6,81.1,201.6,81.1,201.6,81.1C201.6,81.1,201.6,81.1,201.6,81.1z"/>
	<path d="M201.6,81.1L201.6,81.1C201.6,81.1,201.6,81.1,201.6,81.1C201.6,81.1,201.6,81.1,201.6,81.1z"/>
	<path d="M90.5,42.7c-0.1-0.6-0.1-1.3,0.3-1.8c0,0,0,0,0,0c-0.3,0-0.5,0-0.8,0v0C90.4,41.5,90.3,42.1,90.5,42.7
		C90.5,42.7,90.5,42.7,90.5,42.7z"/>
	<path d="M245.2,55.1C245.2,55.1,245.2,55.1,245.2,55.1c0.2-0.8,0-1.5-0.8-1.9C245,53.6,244.7,54.5,245.2,55.1z"/>
	<path d="M13.3,79c-0.2,0.9-0.1,1.6,0.8,2.1c0,0,0,0,0,0C13.5,80.4,13.7,79.6,13.3,79C13.3,79,13.3,79,13.3,79z"/>
	<path d="M205.5,78.8c0.8,0.1,1.6,0.4,1.8-0.8c0,0,0,0,0,0C206.8,78.5,206,78.5,205.5,78.8C205.5,78.8,205.5,78.8,205.5,78.8z"/>
	<path d="M224.4,123.6c1.2-0.1,1-1,0.9-1.8c0,0,0,0,0,0c0,0,0,0,0,0C224.8,122.3,225,123.2,224.4,123.6z"/>
	<path d="M54,14.2c-0.8,0.1-1.6,0.2-2,1C52.5,14.7,53.5,14.8,54,14.2z"/>
	<path d="M129.3,3.9c0.1,0.1,0.3,0.2,0.4,0.3c0,0,0,0,0,0c0,0,0,0,0,0c-0.1-0.1-0.1-0.1-0.2-0.2c-0.3-0.4-0.2-0.7,0.1-1
		c-0.7,0.2-1.5,0.4-2,1.1C128.1,3.9,128.7,3.8,129.3,3.9z"/>
	<path d="M171.7,68.1L171.7,68.1c1-0.4,1-1.2,0.8-2.1c0,0,0,0,0,0C172,66.6,172.1,67.5,171.7,68.1L171.7,68.1z"/>
	<path d="M74.9,192.5c0.1,0.6,0.7,0.6,1,1c0,0,0,0,0,0c0,0,0,0,0,0C75.8,192.9,75.5,192.6,74.9,192.5z"/>
	<path d="M47.6,22.2C47.6,22.2,47.6,22.2,47.6,22.2C47.6,22.2,47.6,22.2,47.6,22.2C47.6,22.2,47.6,22.2,47.6,22.2z"/>
	<path d="M47.5,22c-0.2-0.3-0.3-0.5-0.5-0.8c-0.4,0-0.7,0.1-1,0c0.5,0.4,1.1,0.5,1.6,1C47.6,22.1,47.5,22.1,47.5,22z"/>
	<path d="M25.5,92.9c-0.2,0-0.4,0-0.6,0c0.2,0.5,0.4,0.9,0.5,1.4c0,0-0.4,0.1-0.4,0.1s0.4,0.2,0.4,0.1c0.1-0.1,0.2-0.1,0.3-0.1
		c-0.2-0.4-0.3-0.9-0.3-1.4C25.4,93,25.4,93,25.5,92.9z"/>
	<path d="M25.7,94.4c0.1,0.2,0.2,0.3,0.4,0.5c0-0.2,0-0.4,0-0.5C25.9,94.4,25.8,94.4,25.7,94.4z"/>
	<polygon points="54.2,151.5 54.2,151.5 54.2,151.5 	"/>
	<path d="M48.1,22.8c0-0.1-0.1-0.1-0.1-0.2c0,0,0,0,0,0c0.1,0.2,0.2,0.4,0.3,0.6c0.1,0,0.2,0,0.3,0C48.4,23.1,48.2,23,48.1,22.8z"/>
	<path d="M47.9,22.6c-0.1-0.1-0.2-0.3-0.3-0.4c-0.2,0-0.4,0-0.6,0C47.3,22.5,47.6,22.6,47.9,22.6C47.9,22.6,47.9,22.6,47.9,22.6z"/>
	<path d="M47.8,22.4c0,0.1,0.1,0.2,0.1,0.2c0,0,0,0,0,0c0.3,0,0.7-0.1,1-0.4c-0.4,0-0.9,0-1.3,0C47.7,22.3,47.8,22.3,47.8,22.4z"/>
	<path d="M48.7,23.4c-0.1,0.1-0.2,0.1-0.3,0.2c0.2,0.2,0.4,0.5,0.6,0.6c0-0.2,0-0.4,0-0.6C48.9,23.5,48.8,23.5,48.7,23.4z"/>
	<path d="M48.4,23.6c0-0.1-0.1-0.1-0.1-0.2c0-0.1-0.1-0.1-0.1-0.2c-0.4,0-0.8,0-1.2,0C47.5,23.6,48,23.7,48.4,23.6z"/>
	<path d="M48.7,23.4c0.1-0.1,0.2-0.1,0.2-0.2c-0.2,0-0.3,0-0.5,0C48.6,23.3,48.7,23.3,48.7,23.4z"/>
	<path d="M44.7,30.1c0.1,0,0.1,0,0.2-0.1c0,0,0,0-0.1-0.1C44.8,30,44.7,30.1,44.7,30.1z"/>
	<path d="M44.8,29.5c-0.1,0.2,0,0.3,0.1,0.5c0.1,0,0.1-0.1,0.2-0.1c0-0.2,0-0.5,0-0.7c0,0,0,0,0,0C44.9,29.2,44.8,29.3,44.8,29.5z"
		/>
	<path d="M44.9,30.1c0,0,0.1,0.1,0.1,0.1c0-0.1,0-0.1,0-0.2C45,30,44.9,30,44.9,30.1z"/>
	<path d="M77.9,187.5c-0.2,0.2-0.7,0.5-0.6,0.5c0.4,0.7,1,0.4,1.6,0.5C78.6,188.2,77.9,188.2,77.9,187.5z"/>
	<path d="M17.2,60.1c0,0.6,0,1.3,0,1.9C17.7,61.3,17.6,60.7,17.2,60.1z"/>
	<path d="M187.6,117.8C187.6,117.8,187.6,117.8,187.6,117.8c0,0.7,0,1.3,0,2c0,0,0,0,0,0C188.1,119.2,188.1,118.5,187.6,117.8z"/>
	<path d="M225.5,121L225.5,121C225.6,120.9,225.6,120.9,225.5,121C225.6,120.9,225.5,120.9,225.5,121C225.5,121,225.5,121,225.5,121
		z"/>
	<path d="M224.4,118.8c0,0.7,0,1.3,0,2C225,120.1,225,119.5,224.4,118.8z"/>
	<path d="M186.5,121.8c0-0.7,0-1.3,0-2C186,120.5,186,121.1,186.5,121.8z"/>
	<path d="M246.3,60.1c-0.8,0-1.8-0.2-2,1C244.9,60.4,245.8,60.6,246.3,60.1C246.3,60.1,246.3,60.1,246.3,60.1z"/>
	<path d="M52,107.9c0,0.7,0,1.3,0,2C52.5,109.2,52.6,108.5,52,107.9z"/>
	<path d="M201.3,77.5c0,0.2,0,0.3-0.1,0.4c0.1,0,0.2,0,0.4,0c0,0,0-0.1,0-0.1c0-0.5-0.1-1-0.2-1.4c-0.3-0.2-0.5-0.3-0.9-0.4
		C200.9,76.4,201.1,77,201.3,77.5z"/>
	<path d="M120,70c0.6,0.2,0.1-0.4,0.3-0.5c0,0,0-0.1,0-0.1c-0.1,0.1-0.3,0.2-0.4,0.2c-0.1,0-0.1,0.1-0.2,0.1
		C119.9,69.8,119.9,69.9,120,70z"/>
	<path d="M120.4,69.4c0.3-0.2,0.7-0.4,1-0.6c0.1-0.3,0.3-0.5,0.4-0.8C121.2,68.4,120.7,68.7,120.4,69.4z"/>
	<path d="M119.8,69.7C119.8,69.7,119.8,69.7,119.8,69.7C119.8,69.7,119.8,69.8,119.8,69.7C119.8,69.8,119.8,69.8,119.8,69.7z"/>
	<polygon points="115.7,102.9 115.7,102.9 115.7,102.8 115.6,102.7 	"/>
	<path d="M201.6,78.4c-0.2,0-0.3,0-0.5-0.1c-0.1,0.2-0.3,0.5-0.6,0.6c0.3,0,0.7,0,1,0C201.5,78.8,201.6,78.6,201.6,78.4z"/>
	<path d="M201.2,78c-0.2,0-0.5,0-0.7,0c0.2,0.2,0.4,0.3,0.5,0.4C201.1,78.2,201.2,78.1,201.2,78z"/>
	<path d="M201.6,78.4c0.3,0,0.6-0.2,0.9-0.4c-0.3,0-0.6,0-0.9,0C201.6,78.1,201.6,78.3,201.6,78.4z"/>
	<path d="M119.6,69.9c-0.1-0.1-0.2-0.2-0.2-0.3c-0.1,0-0.1,0-0.2,0c-0.5,0-1,0.1-1.4,0.5c0.6,0,1.1,0,1.7,0
		C119.5,70,119.6,69.9,119.6,69.9z"/>
	<path d="M119.4,69.4c0,0.1,0,0.1,0,0.2c0.1,0,0.3,0.1,0.4,0.1c0-0.2,0-0.5,0-0.7C119.6,69,119.5,69.1,119.4,69.4z"/>
	<path d="M119.6,69.9c0,0,0.1,0.1,0.1,0.1c0-0.1,0-0.1,0-0.2C119.7,69.8,119.7,69.9,119.6,69.9z"/>
	<path d="M129.7,4.3c0.4,0.3,0.8,0.5,1.4,0.4c0,0,0.4-0.2,0.4-0.2s-0.4,0-0.4,0C130.5,4.8,130.1,4.6,129.7,4.3
		C129.8,4.3,129.7,4.3,129.7,4.3C129.7,4.3,129.7,4.3,129.7,4.3z"/>
	<path d="M132.8,3.3C132.8,3.3,132.8,3.3,132.8,3.3C132.8,3.3,132.8,3.3,132.8,3.3c0,0.6,0,1.3,0,1.9C133.3,4.6,133.3,4,132.8,3.3z"
		/>
	<path d="M169.6,35.1c-0.8-0.7-0.7-1.3,0-2c-0.4,0-0.9-0.1-1.2,0c0,0.1,0,0.2,0,0.2c0,0.5,0,1.1-0.1,1.6c0,0,0,0,0,0.1
		C168.7,35.2,169.2,35.1,169.6,35.1z"/>
	<path d="M171.2,13c-0.1-0.3-0.3-0.7-0.4-1c-0.1,0.3-0.3,0.6-0.5,0.9C170.6,12.8,170.9,12.8,171.2,13z"/>
	<path d="M171,11.3c-0.1,0-0.3,0-0.4,0c0.1,0.2,0.1,0.4,0.2,0.7C170.9,11.7,170.9,11.5,171,11.3z"/>
	<path d="M170.1,13.2c0.1-0.1,0.1-0.2,0.2-0.3c-0.2,0.1-0.5,0.2-0.7,0.4C169.8,13.2,169.9,13.2,170.1,13.2
		C170.1,13.2,170.1,13.2,170.1,13.2z"/>
	<path d="M171.3,13.2c0.1,0,0.2,0,0.3,0c-0.1-0.1-0.3-0.2-0.4-0.3C171.2,13.1,171.3,13.2,171.3,13.2z"/>
	<polygon points="171.6,13.2 171.6,13.2 171.6,13.2 	"/>
	<path d="M202.6,21.2c-0.6,0.5-0.5,1.4-1.1,2C202.7,23,202.4,22,202.6,21.2z"/>
	<path d="M222.8,33.9c-0.1,0.2-0.2,0.3-0.3,0.3c0.1,0,0.2,0,0.4,0c0,0,0,0,0,0c0.5-0.1,1-0.2,1.4-0.5c0.1-0.1,0.1-0.3,0.2-0.5
		C224,33.7,223.3,33.6,222.8,33.9C222.8,33.8,222.8,33.8,222.8,33.9z"/>
	<path d="M222.8,33.8c0.1-0.2,0-0.4-0.3-0.6c0,0.2,0,0.5,0,0.7C222.5,33.9,222.7,33.8,222.8,33.8z"/>
	<path d="M127.7,66c-1.4-1-2.2,0-3,1c0,0,0,0,0,0C125.8,66.8,126.5,65.7,127.7,66z"/>
	<path d="M127.7,66c0,0.6,0,1.3,0,1.9C128.3,67.3,128.3,66.7,127.7,66z"/>
	<path d="M120.8,70c-0.3,0-0.7,0-1,0C120.1,70.5,120.4,70.5,120.8,70z"/>
	<path d="M24.8,92.5c0-0.2,0-0.4,0-0.5c-0.3,0.1-0.6,0.3-0.7,0.9c0,0,0,0,0,0c0,0,0,0,0,0C24.3,92.7,24.6,92.6,24.8,92.5z"/>
	<path d="M25.6,92.6c0.2-0.1,0.3-0.2,0.5-0.2c0-0.1,0-0.3,0-0.4C25.9,92.1,25.7,92.4,25.6,92.6C25.6,92.6,25.6,92.6,25.6,92.6z"/>
	<path d="M24.9,92.9c-0.1,0-0.1,0-0.2,0.1c-0.2,0-0.4,0-0.5,0c0,0,0,0,0,0C24.4,92.9,24.6,92.9,24.9,92.9
		C24.9,92.9,24.9,92.9,24.9,92.9z"/>
	<path d="M25.6,92.6c-0.3-0.1-0.5-0.1-0.8-0.1c0,0.1,0,0.1,0,0.2c0,0,0,0.1,0,0.1C25.1,92.8,25.4,92.7,25.6,92.6
		C25.6,92.6,25.6,92.6,25.6,92.6z"/>
	<path d="M25.6,92.6c0,0.1-0.1,0.2-0.1,0.3c0.2,0,0.4,0,0.6,0C25.9,92.8,25.8,92.7,25.6,92.6C25.6,92.6,25.6,92.6,25.6,92.6z"/>
</g>
</svg>
