<?xml version="1.0" encoding="utf-8"?>
<!-- Generator: Adobe Illustrator 25.1.0, SVG Export Plug-In . SVG Version: 6.00 Build 0)  -->
<svg version="1.1" id="Camada_1" xmlns="http://www.w3.org/2000/svg" xmlns:xlink="http://www.w3.org/1999/xlink" x="0px" y="0px"
	 viewBox="0 0 48 48" style="enable-background:new 0 0 48 48;" xml:space="preserve">
<style type="text/css">
	.st0{fill:#C2C2C2;}
	.st1{fill:#1E0E20;}
	.st2{fill:#1F0E21;}
	.st3{fill:#221224;}
	.st4{fill:#372739;}
	.st5{fill:#221124;}
	.st6{fill:#1F0F21;}
	.st7{fill:#7B707C;}
	.st8{fill:#271728;}
	.st9{fill:#251627;}
	.st10{fill:#2A1A2B;}
	.st11{fill:#241426;}
	.st12{fill:#312133;}
	.st13{fill:#2C1D2E;}
	.st14{fill:#251526;}
	.st15{fill:#38293A;}
	.st16{fill:#211123;}
	.st17{fill:#1C0C1E;}
	.st18{fill:#221324;}
	.st19{fill:#231325;}
	.st20{fill:#2F1F31;}
	.st21{fill:#312234;}
	.st22{fill:#3B2D3D;}
	.st23{fill:#352538;}
	.st24{fill:#251527;}
	.st25{fill:#3C2E3E;}
	.st26{fill:#403242;}
	.st27{fill:#403041;}
	.st28{fill:#221223;}
	.st29{fill:#392A3B;}
	.st30{fill:#2A1A2C;}
</style>
<path class="st0" d="M10.8,45.6c-2.4-1.4-3.6-3.6-4.7-6c-0.8-1.9-0.8-3.9-1.6-5.8c-0.6-1.3,0.2-2.2,1.4-3.2c1.1-0.9,2.2-1.3,3.6-1.2
	c1.2,0,2-0.8,2.8-1.4c0.2-1.2-0.4-2.2-0.1-3.3c0.2-0.5,0.6-0.6,1-0.8c0.2,0,0.4,0,0.5,0.1c0.3,0.3,0.3,0.6,0.3,1
	c0,0.3-0.2,0.7-0.2,1c-0.1,0.3,0,0.7,0.1,1c0.3,0.8,1.4,0.6,1.7,1.4c0.2,0.4,0.2,0.9-0.1,1.2c-1.7,2-3.6,3.7-6.5,3.3
	c-0.6-0.1-1.1-0.4-1.7-0.1c-0.5,1-0.1,1.9,0.5,2.6C9.2,37,11,38,13.5,37.9c2.4-0.1,4.1-1.2,5.9-2.4c1-0.6,1.5-1.7,1.7-2.7
	c0.3-1.3,1-2.1,2.1-2.2c3.2-0.5,4.8-2.4,5.7-5.3c0.7-2.2,2.2-4.1,3-6.3c0.5-1.4,2-2.1,3.2-2.9c0.6-0.4,1.3-0.7,1.9-1.1
	c1.8-1.2,2.3-3.5,1.3-5.4c-0.3-0.5-0.6-1-0.8-1.6c-0.2-0.5-0.2-1-0.2-1.5c0.9-1.7,1.8-3.3,2.7-5c0.2,0,0.4,0,0.6,0.1
	c0.3,0.1,0.5,0.3,0.7,0.5c0.1,0.1,0.3,0.3,0.4,0.4c0.2,0.2,0.3,0.5,0.4,0.8c0,0.4-0.4,0.6-0.4,1c0,0.2,0,0.5,0,0.7
	c0.3,0.7,1.2,1,1.4,1.8l0,0c0.2,0.7,0.5,1.3,0.8,1.9C44,9,44.1,9.4,44.3,9.8c1.2,3.3,0,5.9-2.6,7.9c-1.1,0.8-2,1.9-3.5,2.1
	c-1.1,0.2-1.2,1.6-2.3,1.8c0.1,2.1,0.3,4-0.3,5.9c-0.2,0.7-0.5,1.3-1,1.9c-1.5,1.9-3.4,3.1-5.8,3.6c-2.5,0.5-4.3,2-5.4,4.4l-0.1,0
	l0.1,0c-0.4,1.7-0.6,3.4-1.2,5c-0.9,2.6-2.9,4-5.6,4.6c-2,0.5-3.9,0.5-5.4-1.1c-0.1-0.4,0.4-0.6,0.4-1
	C11.5,45.3,11.2,45.5,10.8,45.6z"/>
<path class="st1" d="M18.2,19.7c-0.1-1.1-0.4-2.2-0.1-3.4c0.6-2.2,1.7-3.8,4-4.4c0.6-0.1,1.1-0.4,1.7-0.4c1.4-0.1,2.6-0.8,3.8-1.5
	c0.4-0.8,0.9-1.1,1.4-0.1c-0.3,2.2-1.9,3.3-3.7,3.8c-2.5,0.6-4,1.8-4.5,4.3c0,0.1-0.2,0.2-0.3,0.3l0,0c0.2,0.8,0.3,1.7,0,2.5
	c-0.5,0-0.9,0.4-1.4,0.1C18.9,20.6,18.3,20.4,18.2,19.7z"/>
<path class="st2" d="M19.4,20.9c0.4-0.2,0.8-0.3,1.2,0c-0.9,1.4-2.1,2.1-3.8,2.2c-0.5,0-1,0.2-1.5,0.3c-0.1-0.1-0.1-0.2-0.1-0.4
	c0-0.1-0.1-0.2-0.1-0.3c-0.1,0-0.2,0.1-0.3,0.2c-0.1,0.2-0.1,0.4-0.2,0.6c0,0.2-0.1,0.3-0.3,0.4c-0.3,0.1-0.5,0.1-0.8,0l0,0
	c-0.6,0-0.8-0.3-0.9-0.9c0.1-0.3,0.3-0.5,0.6-0.7c0.5-0.1,0.7-0.7,1.2-0.8c1.1-0.4,2.2-0.8,3.4-1C18.5,20.3,18.9,20.7,19.4,20.9z"/>
<path class="st3" d="M13.6,23.9c0.3-0.1,0.6-0.2,0.9-0.3c0.3,0,0.4,0.1,0.5,0.4c0.5,1.4,0.8,2.8,0.7,4.3c-1-0.2-2.1-0.1-2.3-1.5
	c0-0.2,0.1-0.4,0.3-0.6c0.1-0.1,0.2-0.2,0.4-0.1c0.2-0.1-0.1-0.2-0.1-0.3c-0.2-0.3-0.1-0.6,0-0.9C13.8,24.5,13.7,24.2,13.6,23.9z"/>
<path class="st4" d="M29.1,8.9c-0.5-0.6-1-0.3-1.4,0.1c0-0.6,0.5-1.3,0.1-1.9c-0.1-0.3-0.3-0.7,0.2-0.8c0.2,0.2,0.4,0.3,0.6,0.5
	c0.1,0.3,0.4,0.6,0.4,0.9C29.3,8.1,29.5,8.5,29.1,8.9z"/>
<path class="st5" d="M12.7,23c0.3,0.3,0.6,0.6,0.9,0.9c-0.3,0.5-0.9,0.4-1.3,0.7C12.1,24,12.4,23.5,12.7,23z"/>
<path class="st6" d="M19.4,19.9c-0.6,0.3-1-0.2-1.6-0.3c0.1-0.3,0.2-0.6,0.4-0.9C18.6,19.2,19.5,19,19.4,19.9z"/>
<path class="st0" d="M15,23.9c-0.2-0.1-0.3-0.2-0.5-0.4l0,0c-0.1-0.6-0.2-1.1,0.6-1.3l0,0c0.4,0,0.6,0.2,0.6,0.6
	c-0.1,0.1-0.2,0.3-0.3,0.4C15.3,23.5,15.1,23.7,15,23.9z"/>
<path class="st7" d="M28,6.2c-0.1,0.3-0.1,0.5-0.2,0.8c-0.3-0.3-0.7-0.5-0.8-1C27.4,5.9,27.7,5.9,28,6.2z"/>
<path class="st5" d="M14.5,21.6c-0.4,0.3-0.5,1-1.2,0.8C13.6,21.9,13.9,21.5,14.5,21.6z"/>
<path class="st8" d="M10.8,45.6c0.3-0.3,0.5-0.8,1-0.8c0.1,0.5-0.4,0.7-0.7,1C11,45.8,10.9,45.7,10.8,45.6z"/>
<path class="st7" d="M29.1,7.7c-0.3-0.2-0.6-0.4-0.4-0.9C29,7,29.3,7.2,29.1,7.7z"/>
<path class="st9" d="M17.9,44.9c-0.8,0.3-0.7,1.4-1.5,1.5c-0.4-0.8,0.2-1.4,0.3-2C17.3,44.1,17.5,44.5,17.9,44.9z"/>
<path class="st3" d="M28,28.6c1.1-0.2,1.6,0.3,1.7,1.2C29.3,29.3,28.1,29.8,28,28.6z"/>
<path class="st10" d="M30,25.8c0.2-0.7,0.2-0.7,0.8-0.9C30.6,25.6,30.6,25.6,30,25.8z"/>
<path class="st11" d="M8.2,30.8C8,31.1,7.8,31,7.7,30.9c-0.2-0.1-0.2-0.3-0.1-0.5c0.1-0.2,0.3-0.2,0.5-0.1
	C8.3,30.4,8.3,30.6,8.2,30.8z"/>
<path class="st12" d="M34.4,18.7c-0.1-0.2-0.2-0.4,0.1-0.5c0.2-0.1,0.4-0.2,0.5,0.1c0.1,0.2,0.2,0.4-0.1,0.5
	C34.8,18.8,34.6,18.9,34.4,18.7z"/>
<path class="st13" d="M36,19.1c0.1,0.2,0.1,0.4-0.1,0.5c-0.2,0.1-0.4,0.2-0.5-0.1c-0.1-0.2-0.2-0.4,0.1-0.5
	C35.6,18.9,35.8,18.9,36,19.1z"/>
<path class="st14" d="M13.2,44.5c0.1,0,0.3-0.1,0.4,0.1c0.1,0.2,0.2,0.4-0.1,0.5c-0.2,0.1-0.4,0.2-0.5-0.1
	C12.9,44.9,12.8,44.7,13.2,44.5z"/>
<path class="st6" d="M21.8,35.9c0.1-0.2,0.4-0.2,0.5-0.1c0.2,0.1,0.2,0.3,0.1,0.5c-0.1,0.2-0.3,0.2-0.5,0.1
	C21.7,36.3,21.7,36.1,21.8,35.9z"/>
<path class="st15" d="M41.4,15.1c0.2,0.1,0.2,0.4,0.1,0.5c-0.1,0.2-0.3,0.2-0.5,0.1c-0.2-0.1-0.2-0.3-0.1-0.5
	C41,14.9,41.2,15,41.4,15.1z"/>
<path class="st16" d="M34.9,25.8c0.1,0.2,0.2,0.4-0.1,0.5c-0.2,0.1-0.4,0.2-0.5-0.1c-0.1-0.2-0.2-0.4,0.1-0.5
	C34.6,25.6,34.8,25.5,34.9,25.8z"/>
<path class="st17" d="M38.1,16.7c0.2,0.2,0.4,0.4,0.6,0.6l0,0c-0.3,0.2-0.7,0.2-1,0.1C37.7,17.1,37.9,17,38.1,16.7z"/>
<path class="st17" d="M38.1,16.7c-0.2-0.2-0.4-0.3-0.4-0.8c0.2,0,0.5,0,0.7,0C38.5,16.4,38.3,16.5,38.1,16.7z"/>
<path class="st18" d="M23.4,35.1c-0.2,0.2-0.5,0.2-0.8,0.1c0-0.3,0.1-0.5,0.4-0.5C23.3,34.7,23.4,34.9,23.4,35.1z"/>
<path class="st19" d="M13.3,28.9c0,0.5,0,0.7,0,1.2C12.6,29.7,12.6,29.4,13.3,28.9z"/>
<path class="st17" d="M38.7,17.3c0.3-0.3,0.6-0.7,1.1-0.1C39.5,17.6,39.1,17.5,38.7,17.3L38.7,17.3z"/>
<path class="st20" d="M13.9,24.8c0.1,0.3,0.2,0.6,0.3,0.9c0.1,0.2,0,0.4-0.3,0.3l0,0c-0.2,0-0.3,0-0.3-0.1c0-0.1,0-0.2,0-0.2
	C13.3,25.3,13.7,25.1,13.9,24.8z"/>
<path class="st21" d="M23.4,37.3c-0.3,0.3-0.4,0.7-1,0.7C22.5,37.5,22.7,37.1,23.4,37.3L23.4,37.3z"/>
<path class="st22" d="M21.6,42c-0.5,0-0.7,0-1.2,0C20.9,41.2,21.2,41.2,21.6,42z"/>
<path class="st23" d="M34.1,21.5c0.3,0,0.5,0.1,0.5,0.5C34.2,22,34.1,21.9,34.1,21.5z"/>
<path class="st19" d="M12.6,45.7c0.3,0,0.5,0.1,0.5,0.5C12.8,46.2,12.6,46,12.6,45.7z"/>
<path class="st24" d="M11.2,30c0-0.3,0.1-0.5,0.5-0.5C11.7,29.8,11.5,30,11.2,30z"/>
<path class="st25" d="M9.4,31.2c0.3-0.1,0.5,0,0.5,0.3C9.5,31.6,9.4,31.5,9.4,31.2z"/>
<path class="st26" d="M13.6,25.7c0.1,0.1,0.2,0.2,0.3,0.3c-0.2,0.2-0.4,0.4-0.6,0.6C13,26.2,13.4,26,13.6,25.7z"/>
<path class="st27" d="M5.5,33c-0.3,0-0.4-0.1-0.4-0.3c0.1-0.3,0.3-0.1,0.4,0C5.5,32.7,5.5,32.9,5.5,33z"/>
<path class="st28" d="M31.7,30.8c0,0.3-0.1,0.5-0.3,0.4c-0.3-0.1-0.1-0.3,0-0.4C31.5,30.7,31.6,30.8,31.7,30.8z"/>
<path class="st29" d="M19,44.9c0,0.3-0.1,0.5-0.5,0.5C18.5,45,18.7,44.9,19,44.9z"/>
<path class="st30" d="M18.9,16.1c0.1,0,0.3-0.1,0.4,0.1c0.1,0.2,0.2,0.4-0.1,0.5c-0.2,0.1-0.4,0.2-0.5-0.1
	C18.6,16.5,18.5,16.3,18.9,16.1z"/>
<path class="st13" d="M20.7,17.3c-0.3,0.2-0.6,0.2-0.9-0.2C20.3,16.8,20.4,17.2,20.7,17.3L20.7,17.3z"/>
<path class="st3" d="M22.6,12.9c0-0.3,0.1-0.5,0.3-0.4c0.3,0.1,0.1,0.3,0,0.4C22.8,12.9,22.7,12.9,22.6,12.9z"/>
<path class="st6" d="M20.1,15.4c0.3-0.1,0.5,0,0.5,0.3C20.3,15.9,20.2,15.8,20.1,15.4z"/>
<path class="st19" d="M15.1,22.3c-0.5,0.3-0.4,0.9-0.6,1.3c-0.2-0.2-0.6-0.5-0.4-0.8C14.3,22.4,14.6,22,15.1,22.3z"/>
<path class="st5" d="M15.7,22.9c-0.2-0.2-0.4-0.4-0.6-0.6c0.3-0.2,0.5-0.6,0.9-0.3C16.3,22.3,15.9,22.6,15.7,22.9z"/>
<path class="st0" d="M14,26c0.1-0.1,0.2-0.2,0.3-0.3c0.3,0.3,0.6,0.5,0.2,1C14,26.8,14.2,26.2,14,26z"/>
</svg>
